<?xml version="1.0" encoding="utf-8"?>
<!-- Generator: Adobe Illustrator 19.2.1, SVG Export Plug-In . SVG Version: 6.00 Build 0)  -->
<svg version="1.1" id="Layer_1" xmlns="http://www.w3.org/2000/svg" xmlns:xlink="http://www.w3.org/1999/xlink" x="0px" y="0px"
	 viewBox="0 0 326 182.6" style="enable-background:new 0 0 326 182.6;" xml:space="preserve">
<style type="text/css">
	.st0{fill:#00B7B8;}
</style>
<path class="st0" d="M271.8,27.1c0-5.3,5.7-9.7,12.7-9.7l5.5,0l0-4.4c0-7,4.2-12.8,9.6-12.8v0c5.3,0,9.7,5.7,9.8,12.7l0,4.5l3.8,0
	c7-0.1,12.8,4.2,12.9,9.6c0,5.3-5.7,9.7-12.7,9.8l-3.8,0l0,4.8c0,7-4.2,12.8-9.6,12.8c-5.3,0-9.7-5.7-9.8-12.7l0-4.9l-5.5,0
	C277.6,36.7,271.9,32.4,271.8,27.1z M79.8,140.1c2.5-1.1,4.7-2.5,6.7-4.4c2-1.9,3.6-4,4.7-6.5c1.2-2.5,1.8-5.2,1.8-8.1l0.4-52.1
	c0-4-0.9-7.6-2.8-10.8c-1.8-3.2-4.4-5.6-7.6-7.4c-2.9-1.7-5.9-2.7-9.2-2.9c-3.2-0.2-6.3,0.3-9.3,1.5c-3,1.2-5.6,3.1-7.8,5.5
	L6.2,105.4c-2,2.1-3.6,4.3-4.6,6.8c-1,2.5-1.5,5.1-1.6,7.8c0,2.6,0.5,5.2,1.5,7.7c1,2.5,2.5,4.8,4.5,6.8c2.1,2.1,4.4,3.6,6.9,4.7
	c2.5,1,5.2,1.6,7.9,1.6c2.7,0,5.4-0.5,7.9-1.5c2.6-1,4.9-2.5,7-4.5l23-22.1c0.4-0.4,0.7-0.4,1.1-0.2c0.3,0.3,0.4,0.7,0.3,1.2
	L51.8,126c0.7,3,2,5.6,3.8,8c1.8,2.3,4.1,4.2,6.8,5.5c2.8,1.3,5.9,2.1,9.6,2.1C74.7,141.6,77.3,141.1,79.8,140.1z M173.7,138.8
	c2.5-1.2,4.7-2.8,6.7-4.8c1.9-2,3.4-4.3,4.5-6.8c1.1-2.5,1.6-5.1,1.6-7.7c0-3.7-0.8-6.9-2.2-9.7c-1.4-2.8-3.4-5.1-5.8-7
	c-2.5-1.8-5.3-3.1-8.5-3.9l-11.6,7.7c-0.3,0.4-0.7,0.4-0.9,0c-0.3-0.3-0.3-0.7-0.1-1.1c3.8-3.9,7.6-7.7,11.3-11.5
	c3.7-3.8,7.4-7.5,10.9-11.2c2.5-2.5,4.2-5.4,5.2-8.6c1-3.2,1.2-6.4,0.8-9.6c-0.4-3.2-1.5-6.2-3.2-8.9c-1.8-2.7-4.1-4.9-7.1-6.6
	c-3-1.6-6.5-2.5-10.6-2.5L121,47.2c-3.9,0.1-7.5,1.1-10.6,3c-3.1,1.9-5.7,4.4-7.5,7.6c-1.9,3.2-2.8,6.7-2.8,10.5
	c0,3.4,0.8,6.5,2.2,9.4c1.4,2.8,3.4,5.2,5.9,7.2c2.5,1.9,5.3,3.3,8.4,4l10.8-7.7c0.5-0.2,0.8,0,1.1,0.3c0.3,0.4,0.3,0.8,0,1.1
	l-20.8,21.5c-2.2,2-4,4.4-5.3,7c-1.3,2.7-2,5.7-2.1,9c0.1,3.9,1.1,7.4,3,10.6c1.9,3.1,4.6,5.6,7.8,7.5c3.2,1.8,6.8,2.8,10.7,2.8
	l43.9-0.3C168.5,140.7,171.2,140,173.7,138.8z M195.4,113.8c2.4,5.4,5.6,10.2,9.8,14.3c4.2,4.1,8.9,7.3,14.4,9.6
	c5.4,2.3,11.3,3.4,17.5,3.4c6.2-0.1,12-1.3,17.4-3.7c5.4-2.4,10.2-5.7,14.3-9.8c4.1-4.2,7.3-9,9.6-14.4c2.3-5.4,3.5-11.2,3.5-17.4
	l-0.2-28.4c-0.1-3.9-1.1-7.5-3-10.7c-1.9-3.2-4.5-5.7-7.6-7.6c-3.2-1.9-6.6-2.8-10.4-2.9c-4,0.1-7.5,1.1-10.7,3
	c-3.2,1.9-5.7,4.5-7.6,7.7c-1.9,3.2-2.8,6.8-2.8,10.7l0.2,25.9c0,0.8-0.3,1.6-0.8,2.3c-0.5,0.7-1.2,1-2,1.1c-0.9,0-1.6-0.4-2.1-1
	c-0.5-0.7-0.8-1.4-0.8-2.3c0-0.3,0-1,0-2.3c0-1.3,0-2.8,0-4.7c0-1.9,0-3.9,0-6c0-2.1,0-4.1,0-6c0-1.9,0-3.4,0-4.7c0-1.3,0-2,0-2.2
	c-0.1-3.9-1-7.5-2.9-10.7c-1.9-3.2-4.4-5.7-7.5-7.6c-3.1-1.9-6.7-2.8-10.6-2.8c-4,0.1-7.5,1.1-10.7,3c-3.2,1.9-5.7,4.5-7.6,7.7
	c-1.9,3.2-2.8,6.8-2.8,10.7l0.2,28.4C191.8,102.7,193,108.4,195.4,113.8z M299.4,141c-6.3,0-11.5-5.1-11.5-11.5
	c0-6.4,5.1-11.5,11.5-11.5c6.4,0,11.5,5.1,11.5,11.5C310.9,135.9,305.7,141,299.4,141z M299.4,139.2c5.3,0,9.6-4.3,9.6-9.6
	c0-5.3-4.3-9.6-9.6-9.6c-5.3,0-9.6,4.3-9.6,9.6C289.8,134.8,294.1,139.2,299.4,139.2z M298.8,130.3c-0.3-0.1-0.7-0.1-1.2-0.1H297v5
	h-2.4v-12h5.1c1.3,0,2.2,0.1,2.8,0.3c0.6,0.2,1,0.6,1.4,1.2c0.4,0.6,0.5,1.2,0.5,1.9c0,0.9-0.3,1.6-0.8,2.2c-0.5,0.6-1.3,1-2.4,1.1
	c0.5,0.3,1,0.6,1.3,1c0.3,0.4,0.8,1,1.4,2l1.5,2.3h-2.9l-1.8-2.6c-0.6-0.9-1.1-1.5-1.3-1.8C299.3,130.6,299,130.4,298.8,130.3z
	 M298.8,128.3c1.2,0,1.9-0.1,2.2-0.1c0.3-0.1,0.5-0.3,0.7-0.5c0.2-0.2,0.2-0.5,0.2-0.9c0-0.4-0.1-0.7-0.3-1
	c-0.2-0.2-0.5-0.4-0.9-0.5c-0.2,0-0.8,0-1.8,0H297v3H298.8z M12.6,167.7v9.7h-0.9l-0.3-1.4c-1.8,0.9-3.5,1.4-5.1,1.4
	c-3.3,0-4.9-1.3-4.9-4c0-2.8,1.9-4.2,5.6-4.2c1.3,0,2.7,0.1,4.2,0.3v-1.7c0-2.2-1.4-3.2-4.1-3.2c-1.5,0-3.1,0.2-4.6,0.7V164
	c1.5-0.4,3.1-0.7,4.6-0.7C10.7,163.3,12.6,164.7,12.6,167.7z M11.1,170.7c-1.5-0.2-2.9-0.3-4.2-0.3c-2.8,0-4.2,1-4.2,3
	c0,1.9,1.2,2.8,3.5,2.8c1.7,0,3.4-0.5,4.9-1.4V170.7z M28.5,167.4c0-2.7-1.7-4.1-5-4.1c-2,0-3.8,0.4-5.4,1.2v-6.3h-1.4v19.2h1.4
	v-11.6c1.7-0.8,3.4-1.3,5.1-1.3c2.6,0,3.9,0.9,3.9,2.8c0,1.9-1.6,3-4.8,3.4v0.8l4.5,5.8h2.1l-4.8-5.8
	C27.1,170.8,28.5,169.4,28.5,167.4z M32.6,161h-1v12.6c0,2.5,1.1,3.8,3.4,3.8h2v-1.2h-2.1c-1.4,0-2-0.9-2-2.8v-8.9h4.1v-1.2h-4.2
	L32.6,161z M40.3,159.8h1.7v-1.6h-1.7V159.8z M40.4,177.4h1.4v-14.1h-1.4V177.4z M51.1,176.2L46,163.3h-1.6l5.9,14.1h1.6l6-14.1
	h-1.6L51.1,176.2z M60.5,177.4h1.4v-14.1h-1.4V177.4z M60.3,159.8H62v-1.6h-1.7V159.8z M67.4,161h-1v12.6c0,2.5,1.1,3.8,3.4,3.8h2
	v-1.2h-2.1c-1.4,0-2-0.9-2-2.8v-8.9h4.1v-1.2h-4.2L67.4,161z M85.3,167.7v9.7h-0.9l-0.3-1.4c-1.8,0.9-3.5,1.4-5.1,1.4
	c-3.3,0-4.9-1.3-4.9-4c0-2.8,1.9-4.2,5.6-4.2c1.3,0,2.7,0.1,4.2,0.3v-1.7c0-2.2-1.4-3.2-4.1-3.2c-1.5,0-3.1,0.2-4.6,0.7V164
	c1.5-0.4,3.1-0.7,4.6-0.7C83.4,163.3,85.3,164.7,85.3,167.7z M83.9,170.7c-1.5-0.2-2.9-0.3-4.2-0.3c-2.8,0-4.2,1-4.2,3
	c0,1.9,1.2,2.8,3.5,2.8c1.7,0,3.4-0.5,4.9-1.4V170.7z M95.9,164.5h8.8l-9.1,11.7v1.2h10.5v-1.2h-8.7l9-11.7v-1.2H95.9V164.5z
	 M114.7,176.2l-5.2-12.9H108l5.9,14.1h1.6l6-14.1h-1.6L114.7,176.2z M129,176l-5.2-12.7h-1.6l6.1,14.3c-0.9,2-2.1,3.3-3.7,3.9
	l0.4,1.1c2.1-0.6,3.6-2.2,4.7-4.8l6.1-14.5h-1.6L129,176z M143.9,169.7h-1.8c-2,0-3-0.8-3-2.4c0-1.9,1.5-2.8,4.5-2.8
	c1.5,0,3,0.3,4.6,0.8V164c-1.6-0.4-3.1-0.7-4.6-0.7c-3.9,0-5.9,1.3-5.9,4c0,2.5,1.5,3.8,4.4,3.8h1.8c2.2,0,3.3,0.8,3.3,2.3
	c0,1.9-1.5,2.8-4.4,2.8c-1.5,0-3.1-0.3-4.6-0.8v1.3c1.6,0.4,3.1,0.7,4.6,0.7c3.9,0,5.9-1.3,5.9-4C148.6,170.9,147,169.7,143.9,169.7
	z M146.5,158.2h-1.3l-2,2.6l-2-2.6h-1.3l2.6,3.5h1.5L146.5,158.2z M162.4,174.3c-1.6,1.2-3.4,1.8-5.1,1.8c-2.4,0-3.7-1.3-3.7-3.9
	v-8.9h-1.4v8.8c0,3.5,1.7,5.2,5,5.2c2,0,3.8-0.6,5.4-1.8l0.2,1.8h1v-14.1h-1.4V174.3z M168.2,159.8h1.7v-1.6h-1.7V159.8z
	 M168.3,176.3c0,2.4-0.6,4.1-1.7,5.1l1,0.9c1.4-1.2,2.1-3.2,2.1-6v-13h-1.4V176.3z M185.8,169.7c0,0.3,0,0.6,0,1H175
	c0,3.7,2,5.5,5.9,5.5c1.6,0,3-0.2,4.3-0.7v1.2c-1.2,0.4-2.7,0.7-4.3,0.7c-4.8,0-7.3-2.4-7.3-7.2c0-4.6,2.1-6.9,6.4-6.9
	C183.8,163.3,185.8,165.4,185.8,169.7z M184.4,169.4c-0.1-3.3-1.5-4.9-4.4-4.9c-3.1,0-4.8,1.6-4.9,4.9H184.4z M201.3,161.4l3.2-3.2
	h-2.1l-2.2,3.2H201.3z M206.3,174.3c-1.6,1.2-3.4,1.8-5.1,1.8c-2.4,0-3.7-1.3-3.7-3.9v-8.9h-1.4v8.8c0,3.5,1.7,5.2,5,5.2
	c2,0,3.8-0.6,5.4-1.8l0.2,1.8h1v-14.1h-1.4V174.3z M217.5,169.7h-1.8c-2,0-3-0.8-3-2.4c0-1.9,1.5-2.8,4.5-2.8c1.5,0,3,0.3,4.6,0.8
	V164c-1.6-0.4-3.1-0.7-4.6-0.7c-3.9,0-5.9,1.3-5.9,4c0,2.5,1.5,3.8,4.4,3.8h1.8c2.2,0,3.3,0.8,3.3,2.3c0,1.9-1.5,2.8-4.4,2.8
	c-1.5,0-3.1-0.3-4.6-0.8v1.3c1.6,0.4,3.1,0.7,4.6,0.7c3.9,0,5.9-1.3,5.9-4C222.2,170.9,220.7,169.7,217.5,169.7z M238,170
	c0,4.9-2.3,7.4-6.8,7.4c-1.1,0-2.4-0.2-3.9-0.7v5.8h-1.4v-18.6c1.6-0.4,3.4-0.6,5.4-0.6C235.8,163.3,238,165.5,238,170z M236.7,170
	c0-3.6-1.8-5.4-5.4-5.4c-1.3,0-2.6,0.1-4,0.3v10.4c1.4,0.5,2.7,0.7,3.9,0.7C234.8,176,236.7,174,236.7,170z M253.1,169.7
	c0,0.3,0,0.6,0,1h-10.7c0,3.7,2,5.5,5.9,5.5c1.6,0,3-0.2,4.3-0.7v1.2c-1.2,0.4-2.7,0.7-4.3,0.7c-4.8,0-7.3-2.4-7.3-7.2
	c0-4.6,2.1-6.9,6.4-6.9C251.2,163.3,253.1,165.4,253.1,169.7z M251.8,169.4c-0.1-3.3-1.5-4.9-4.4-4.9c-3.1,0-4.8,1.6-4.9,4.9H251.8z
	 M256.1,170.1c0,4.9,2.4,7.3,7.1,7.3c1.3,0,2.6-0.1,3.8-0.4v-1.2c-1.3,0.3-2.5,0.4-3.6,0.4c-3.8,0-5.7-2-5.7-6.1
	c0-3.7,1.9-5.6,5.7-5.6c1.2,0,2.4,0.1,3.6,0.4v-1.2c-1.2-0.3-2.4-0.4-3.8-0.4C258.5,163.3,256.1,165.5,256.1,170.1z M276.7,163.3
	c-1.7,0-3.4,0.5-5.1,1.5v-6.6h-1.4v19.2h1.4v-11.1c1.6-1.2,3.3-1.8,5-1.8c2.5,0,3.8,1.1,3.8,3.4v9.4h1.4v-8.8
	C281.9,165,280.1,163.3,276.7,163.3z"/>
</svg>
