<?xml version="1.0" encoding="utf-8"?>
<!-- Generator: Adobe Illustrator 16.2.0, SVG Export Plug-In . SVG Version: 6.00 Build 0)  -->
<!DOCTYPE svg PUBLIC "-//W3C//DTD SVG 1.1//EN" "http://www.w3.org/Graphics/SVG/1.1/DTD/svg11.dtd">
<svg version="1.1" id="Layer_1" xmlns="http://www.w3.org/2000/svg" xmlns:xlink="http://www.w3.org/1999/xlink" x="0px" y="0px"
	 width="150px" height="162.878px" viewBox="0 0 150 162.878" enable-background="new 0 0 150 162.878" xml:space="preserve">
<g>
	<g>
		<defs>
			<rect id="SVGID_1_" width="150" height="162.878"/>
		</defs>
		<clipPath id="SVGID_2_">
			<use xlink:href="#SVGID_1_"  overflow="visible"/>
		</clipPath>
		<g clip-path="url(#SVGID_2_)">
			<defs>
				<rect id="SVGID_3_" width="150" height="162.878"/>
			</defs>
			<clipPath id="SVGID_4_">
				<use xlink:href="#SVGID_3_"  overflow="visible"/>
			</clipPath>
			<path clip-path="url(#SVGID_4_)" fill="#010101" d="M149.606,111.775c0.315,1.166,0.394,1.968,0.394,4.009
				c0,2.04-0.079,2.842-0.394,4.008c-1.541,5.725-5.783,9.973-11.592,11.613l-1.458,0.41l-22.549,0.053l-22.549,0.051v8.878v8.88
				l-6.607,6.604c-3.632,3.63-6.724,6.597-6.879,6.597c-0.149-0.004-3.161-2.946-6.694-6.542l-6.423-6.535v-6.395v-6.395h2.369
				h2.368v5.422l-0.069,5.632c2.815,2.828,5.406,5.496,8.557,8.237c3.054-2.682,5.778-5.624,8.675-8.429l-0.035-12.729v-12.347
				l22.732-0.008c12.501-0.005,23.555-0.076,24.562-0.16c1.39-0.115,2.083-0.271,2.874-0.645c1.359-0.643,2.655-1.924,3.323-3.287
				c0.485-0.989,0.536-1.268,0.536-2.915c0-1.648-0.051-1.926-0.536-2.916c-1.142-2.325-3.285-3.737-5.891-3.881l-1.505-0.082
				l0.048-4.579l0.049-4.577l1.822,0.034C141.651,99.913,147.731,104.816,149.606,111.775 M139.712,130.255
				c6.897-2.748,11.048-10.301,9.585-17.44c-1.453-7.084-7.991-12.611-14.92-12.611h-1.192v4.075v4.072l1.374,0.104
				c2.691,0.204,4.847,1.667,6.055,4.111c0.641,1.299,0.68,1.474,0.68,3.117c0,1.274-0.095,1.996-0.354,2.695
				c-0.683,1.842-2.361,3.555-4.24,4.333c-0.853,0.352-1.432,0.363-25.244,0.41l-24.371,0.049v12.431v12.433l-4.417,4.418
				c-2.431,2.431-4.499,4.421-4.599,4.421s-2.132-1.945-4.512-4.326l-4.329-4.325v-5.423v-5.423h-2.004h-2.005v6.058v6.058
				l6.421,6.423l6.423,6.425l6.515-6.512l6.516-6.514v-8.872v-8.874l22.275-0.071C137.961,131.418,136.64,131.479,139.712,130.255"
				/>
			<path clip-path="url(#SVGID_4_)" fill="#010101" d="M149.297,112.815c1.463,7.139-2.688,14.692-9.585,17.44
				c-3.072,1.224-1.751,1.162-26.342,1.241l-22.276,0.071v8.874v8.872l-6.516,6.514l-6.514,6.513l-6.423-6.425l-6.421-6.424v-6.059
				v-6.056h2.004h2.004v5.422v5.423l4.33,4.326c2.38,2.38,4.411,4.326,4.511,4.326c0.101,0,2.169-1.99,4.599-4.422l4.417-4.419
				v-12.432V123.17l24.372-0.049c23.811-0.047,24.391-0.058,25.244-0.41c1.878-0.778,3.556-2.491,4.24-4.333
				c0.258-0.7,0.353-1.421,0.353-2.695c0-1.644-0.038-1.818-0.68-3.118c-1.208-2.443-3.363-3.906-6.055-4.11l-1.373-0.104v-4.073
				v-4.074h1.191C141.307,100.204,147.845,105.73,149.297,112.815"/>
			<path clip-path="url(#SVGID_4_)" fill="#010101" d="M140.108,93.325c0.002,0.295-0.357,0.319-4.995,0.319h-4.994l-1.053-1.503
				c-3.395-4.852-8.88-8.309-14.838-9.355c-1.356-0.237-2.403-0.281-4.916-0.2l-3.193,0.1l-1.59-4.054
				c-0.875-2.229-1.591-4.146-1.591-4.257s0.144-0.248,0.319-0.301c0.956-0.295,4.027-0.696,6.164-0.805l2.444-0.124l-1.403-1.822
				c-3.335-4.331-8.165-8.417-13.021-11.011c-1.633-0.871-5.472-2.564-5.817-2.564c-0.098,0-0.166,7.21-0.166,17.646v17.643
				l1.504,0.747c6.272,3.113,11.884,8.165,15.878,14.292c0.561,0.861,1.022,1.681,1.022,1.82c0,0.266-4.725,3.063-5.173,3.063
				c-0.144,0-0.527-0.43-0.849-0.957c-1.952-3.185-5.368-6.928-8.373-9.174c-3.303-2.467-6.069-3.929-9.812-5.181
				c-8.515-2.846-17.566-2.226-25.687,1.762c-1.133,0.558-2.088,0.984-2.121,0.95c-0.392-0.421-3.01-5.184-2.944-5.356
				c0.165-0.431,4.559-2.436,7.261-3.312l2.684-0.871l0.003-16.625l0.004-16.624l-0.898,0.354
				c-5.437,2.143-9.419,4.559-13.477,8.179c-1.286,1.146-4.575,4.7-4.575,4.942c0,0.062,0.39,0.302,0.865,0.532
				c2.123,1.028,7.54,5.042,7.832,5.804c0.115,0.297-5.889,6.423-6.294,6.423c-0.135,0-0.776-0.452-1.426-1.004
				c-2.387-2.025-4.975-3.492-7.865-4.461c-4.409-1.476-9.694-1.476-14.101,0c-6.914,2.316-12.225,7.627-14.541,14.541
				c-1.476,4.407-1.476,9.693,0,14.099c2.684,8.009,9.216,13.679,17.735,15.394c1.324,0.266,4.262,0.306,26.951,0.372l25.465,0.074
				v10.011v10.011h-2.369h-2.369v-5.466v-5.467l-22.731-0.002c-14,0-23.362-0.071-24.371-0.184
				c-15.192-1.694-26.842-13.327-28.504-28.46c-0.366-3.327-0.179-6.7,0.565-10.165c3.239-15.091,17.175-25.817,32.585-25.075
				c1.352,0.066,2.6,0.137,2.772,0.16c0.207,0.028,0.763-0.557,1.639-1.72c6.54-8.682,15.529-15.003,25.709-18.083
				c1.983-0.599,5.304-1.383,5.864-1.383c0.246,0,0.277,2.387,0.277,21.365v21.365h4.965c5.253,0,7.531,0.251,10.818,1.189
				c0.689,0.199,1.274,0.359,1.299,0.359c0.026,0,0.046-9.961,0.046-22.139c0-14.89,0.06-22.139,0.186-22.139
				c0.479,0,3.943,0.829,5.772,1.383c13.009,3.934,24.029,13.189,30.169,25.337c1.302,2.577,1.303,2.579,2.313,3.072
				c1.581,0.773,4.311,2.622,6.171,4.184c2.059,1.729,3.991,3.916,5.72,6.476C138.357,89.382,140.102,92.739,140.108,93.325
				 M139.563,93.185c0-0.279-1.82-3.67-2.688-5.007c-2.928-4.517-7.443-8.615-12.033-10.917c-1.104-0.554-1.17-0.627-1.78-1.964
				c-1.354-2.97-4.027-7.219-6.343-10.078c-1.642-2.028-4.885-5.303-6.901-6.97c-4.508-3.726-9.356-6.512-14.976-8.604
				c-1.549-0.578-7.048-2.101-7.58-2.101c-0.113,0-0.177,7.921-0.177,22.139c0,12.615-0.069,22.139-0.16,22.139
				c-0.088,0-1.133-0.242-2.323-0.539c-4.211-1.05-8.53-1.389-13.324-1.046l-2.05,0.147V68.963c0-18.739-0.033-21.419-0.268-21.419
				c-0.605,0-5.987,1.474-7.671,2.101c-5.619,2.092-10.468,4.878-14.976,8.604c-2.988,2.473-6.808,6.582-8.775,9.444l-0.624,0.908
				l-4.478-0.002c-5.062-0.002-6.394,0.195-10.421,1.534C12.776,73.209,5.244,80.742,2.168,89.982
				c-1.294,3.886-1.527,5.404-1.527,9.949c0,4.544,0.233,6.062,1.527,9.948c3.427,10.297,12.188,18.235,22.873,20.724
				c3.902,0.909,4.778,0.938,28.745,0.94l22.366,0.002v5.466v5.467h2.005h2.004v-9.652v-9.654l-25.829-0.058
				c-25.595-0.057-25.843-0.062-27.377-0.443c-9.279-2.311-15.797-8.941-17.788-18.094c-0.472-2.177-0.472-7.115,0-9.293
				c1.773-8.152,7.35-14.55,15.054-17.268c2.763-0.975,4.321-1.219,7.744-1.219c3.422,0,4.982,0.244,7.745,1.219
				c2.82,0.995,5.078,2.296,7.381,4.249l1.13,0.958l2.853-2.857l2.854-2.857l-0.776-0.738c-1.815-1.72-4.585-3.661-6.837-4.79
				c-0.627-0.316-1.139-0.676-1.139-0.804c0-0.319,2.547-3.203,4.298-4.867c3.821-3.631,8.344-6.525,13.213-8.455
				c1.162-0.459,2.206-0.836,2.323-0.836c0.157,0,0.21,4.311,0.21,17.099v17.099l-2.595,0.86c-2.666,0.886-7.063,2.863-7.063,3.176
				c0,0.133,2.21,4.034,2.482,4.382c0.029,0.037,0.734-0.264,1.565-0.668c5.033-2.455,9.568-3.492,15.308-3.497
				c3.615-0.004,6.193,0.321,9.287,1.17c7.992,2.192,14.964,7.261,19.534,14.2l1.048,1.592l0.761-0.441
				c0.419-0.244,1.432-0.829,2.252-1.302l1.491-0.862l-0.554-0.902c-3.752-6.097-9.594-11.422-16.157-14.72l-1.485-0.747V75.33
				V57.201h0.375c0.206,0,1.294,0.374,2.415,0.831c6.047,2.467,11.678,6.575,15.973,11.649c1.432,1.693,2.738,3.521,2.738,3.832
				c0,0.155-0.898,0.25-3.143,0.328c-2.553,0.091-5.67,0.468-5.88,0.713c-0.024,0.027,0.629,1.769,1.449,3.872l1.494,3.821
				l0.809-0.086c1.935-0.208,6.295-0.06,7.822,0.264c5.899,1.254,11.201,4.752,14.486,9.559l0.884,1.296h4.524
				C137.528,93.28,139.563,93.238,139.563,93.185"/>
			<path clip-path="url(#SVGID_4_)" fill="#010101" d="M136.875,88.178c0.867,1.337,2.688,4.728,2.688,5.007
				c0,0.053-2.036,0.095-4.523,0.095h-4.524l-0.884-1.296c-3.285-4.806-8.588-8.305-14.486-9.559
				c-1.527-0.324-5.887-0.471-7.823-0.264l-0.809,0.086l-1.494-3.821c-0.82-2.103-1.472-3.845-1.448-3.872
				c0.209-0.244,3.327-0.622,5.88-0.713c2.245-0.078,3.143-0.173,3.143-0.328c0-0.311-1.307-2.139-2.739-3.832
				c-4.295-5.074-9.925-9.181-15.973-11.649c-1.12-0.457-2.208-0.83-2.414-0.83h-0.375V75.33v18.129l1.485,0.747
				c6.563,3.298,12.405,8.622,16.157,14.719l0.554,0.902l-1.491,0.862c-0.82,0.474-1.833,1.058-2.252,1.303l-0.762,0.441
				l-1.047-1.593c-4.57-6.939-11.542-12.008-19.534-14.2c-3.094-0.849-5.672-1.173-9.287-1.17
				c-5.74,0.006-10.275,1.043-15.308,3.497c-0.831,0.404-1.536,0.705-1.565,0.669c-0.272-0.348-2.482-4.25-2.482-4.383
				c0-0.313,4.397-2.29,7.062-3.176l2.595-0.86V74.118c0-12.787-0.053-17.099-0.209-17.099c-0.117,0-1.161,0.378-2.324,0.837
				c-4.868,1.929-9.391,4.823-13.212,8.454c-1.751,1.664-4.298,4.549-4.298,4.867c0,0.128,0.512,0.489,1.138,0.804
				c2.253,1.13,5.022,3.07,6.837,4.79l0.776,0.738l-2.853,2.857l-2.854,2.858l-1.129-0.959c-2.303-1.953-4.561-3.254-7.382-4.249
				c-2.762-0.975-4.322-1.219-7.744-1.219c-3.424,0-4.982,0.244-7.744,1.219c-7.704,2.719-13.282,9.116-15.055,17.268
				c-0.471,2.178-0.471,7.116,0,9.293c1.992,9.153,8.51,15.784,17.788,18.094c1.534,0.381,1.782,0.386,27.378,0.443l25.829,0.058
				v9.654v9.652h-2.005h-2.004v-5.467v-5.466l-22.367-0.002c-23.966-0.002-24.843-0.031-28.744-0.94
				c-10.685-2.489-19.446-10.426-22.873-20.723c-1.294-3.887-1.527-5.405-1.527-9.949c0-4.545,0.233-6.062,1.527-9.949
				c3.075-9.24,10.608-16.773,19.846-19.849c4.027-1.339,5.359-1.536,10.421-1.534l4.479,0.002l0.623-0.908
				c1.968-2.862,5.787-6.971,8.776-9.444c4.508-3.726,9.356-6.512,14.976-8.604c1.684-0.627,7.066-2.101,7.671-2.101
				c0.235,0,0.268,2.681,0.268,21.419v21.422l2.05-0.148c4.794-0.343,9.112-0.004,13.323,1.046c1.19,0.297,2.236,0.539,2.324,0.539
				c0.091,0,0.16-9.524,0.16-22.139c0-14.218,0.064-22.139,0.177-22.139c0.532,0,6.031,1.524,7.58,2.101
				c5.619,2.092,10.468,4.878,14.976,8.604c2.015,1.668,5.259,4.942,6.9,6.97c2.316,2.859,4.989,7.108,6.343,10.078
				c0.611,1.338,0.676,1.411,1.781,1.965C129.432,79.563,133.947,83.661,136.875,88.178"/>
			<path clip-path="url(#SVGID_4_)" fill="#010101" d="M111.183,46.497c1.757,0.767,2.506,1.184,2.506,1.394
				c0,0.32-3.076,3.485-3.375,3.473c-0.098-0.004-1.12-0.419-2.274-0.921c-6.501-2.833-14.479-4.892-22.259-5.747
				c-3.818-0.419-11.613-0.419-15.43,0c-7.682,0.844-15.751,2.914-22.075,5.662c-1.052,0.457-2.037,0.831-2.191,0.831
				c-0.417,0-3.531-3.196-3.412-3.504c0.054-0.142,1.357-0.795,2.895-1.454c7.881-3.371,14.659-5.183,23.478-6.276
				c2.087-0.259,3.982-0.328,9.02-0.328s6.933,0.069,9.02,0.328C96.07,41.068,103.173,42.996,111.183,46.497 M111.945,49.055
				l1.128-1.13l-1.833-0.818c-18.513-8.26-39.388-9.373-58.321-3.112c-3.634,1.201-9.565,3.619-9.565,3.899
				c0,0.064,0.607,0.718,1.35,1.456l1.35,1.341l2.705-1.104c7.113-2.906,14.312-4.679,21.916-5.403
				c5.715-0.543,13.852-0.311,19.417,0.554c6.006,0.931,13.076,2.972,18.404,5.314C110.372,50.875,110.034,50.972,111.945,49.055"/>
			<path clip-path="url(#SVGID_4_)" fill="#010101" d="M113.073,47.925l-1.128,1.13c-1.911,1.917-1.572,1.82-3.449,0.996
				c-5.328-2.341-12.398-4.382-18.404-5.313c-5.565-0.865-13.702-1.097-19.417-0.554c-7.603,0.724-14.803,2.496-21.916,5.403
				l-2.704,1.104l-1.351-1.341c-0.743-0.738-1.35-1.392-1.35-1.456c0-0.281,5.931-2.699,9.565-3.899
				c18.933-6.261,39.808-5.148,58.321,3.112L113.073,47.925z"/>
			<path clip-path="url(#SVGID_4_)" fill="#010101" d="M86.837,6.637c0.133,0.501,0.244,1.527,0.244,2.277
				c0,0.753-0.111,1.777-0.244,2.278c-0.816,3.047-3.353,5.592-6.379,6.398c-1.148,0.306-3.561,0.3-4.688-0.01
				c-2.961-0.818-5.492-3.385-6.295-6.388c-0.314-1.175-0.312-3.387,0.005-4.579c0.806-3.027,3.351-5.563,6.398-6.379
				c1.175-0.314,3.387-0.312,4.579,0.005C83.484,1.045,86.021,3.59,86.837,6.637 M86.01,12.012c1.102-2.901,0.643-5.947-1.246-8.283
				c-3.606-4.454-10.059-4.308-13.453,0.302c-2.724,3.701-1.866,8.91,1.926,11.702c2.25,1.656,4.841,2.052,7.624,1.162
				C83.025,16.205,85.203,14.138,86.01,12.012"/>
			<path clip-path="url(#SVGID_4_)" fill="#010101" d="M84.764,3.729c1.889,2.336,2.349,5.383,1.246,8.284
				c-0.807,2.126-2.984,4.192-5.149,4.883c-2.783,0.889-5.374,0.494-7.624-1.163c-3.792-2.791-4.65-8.001-1.926-11.701
				C74.706-0.579,81.158-0.725,84.764,3.729 M82.621,8.915c0-1.438-0.049-1.656-0.552-2.469c-0.341-0.554-0.889-1.102-1.443-1.443
				c-0.813-0.503-1.032-0.552-2.469-0.552c-1.438,0-1.657,0.049-2.469,0.552c-1.287,0.794-1.966,1.97-2.056,3.555
				c-0.118,2.099,0.675,3.589,2.367,4.444c0.849,0.428,1.15,0.485,2.355,0.434c1.74-0.071,2.88-0.702,3.715-2.052
				C82.572,10.571,82.621,10.353,82.621,8.915"/>
			<path clip-path="url(#SVGID_4_)" fill="#010101" d="M84.898,35.336v2.368h-6.742h-6.741v-2.368v-2.369h6.741h6.742V35.336z
				 M84.534,37.34v-2.004v-2.005h-6.378h-6.377v2.005v2.004h6.377H84.534z"/>
			<path clip-path="url(#SVGID_4_)" fill="#010101" d="M84.898,28.776v2.368h-6.742h-6.741v-2.368v-2.369h6.741h6.742V28.776z
				 M84.534,30.78v-2.004v-2.005h-6.378h-6.377v2.005v2.004h6.377H84.534z"/>
			<path clip-path="url(#SVGID_4_)" fill="#010101" d="M84.898,22.217v2.368h-6.742h-6.741v-2.368v-2.369h6.741h6.742V22.217z
				 M84.534,24.221v-2.004v-2.005h-6.378h-6.377v2.005v2.004h6.377H84.534z"/>
			<polygon clip-path="url(#SVGID_4_)" fill="#010101" points="84.534,35.335 84.534,37.34 78.156,37.34 71.779,37.34 
				71.779,35.335 71.779,33.332 78.156,33.332 84.534,33.332 			"/>
			<polygon clip-path="url(#SVGID_4_)" fill="#010101" points="84.534,28.776 84.534,30.78 78.156,30.78 71.779,30.78 
				71.779,28.776 71.779,26.772 78.156,26.772 84.534,26.772 			"/>
			<polygon clip-path="url(#SVGID_4_)" fill="#010101" points="84.534,22.216 84.534,24.22 78.156,24.22 71.779,24.22 
				71.779,22.216 71.779,20.212 78.156,20.212 84.534,20.212 			"/>
			<path clip-path="url(#SVGID_4_)" fill="#010101" d="M82.069,6.446c0.502,0.813,0.552,1.031,0.552,2.469
				c0,1.438-0.05,1.656-0.552,2.469c-0.835,1.35-1.976,1.981-3.716,2.052c-1.204,0.051-1.505-0.006-2.354-0.434
				c-1.693-0.855-2.485-2.345-2.367-4.444c0.089-1.586,0.769-2.761,2.055-3.555C76.5,4.5,76.719,4.451,78.156,4.451
				c1.438,0,1.657,0.049,2.469,0.552C81.179,5.343,81.729,5.892,82.069,6.446 M82.156,9.866c0.357-1.492,0.015-2.609-1.163-3.788
				c-0.734-0.733-1.14-0.984-1.885-1.163c-3.277-0.785-6.174,2.812-4.638,5.756c0.691,1.325,2.183,2.336,3.561,2.417
				c0.18,0.009,0.712-0.079,1.182-0.197C80.46,12.577,81.848,11.151,82.156,9.866"/>
		</g>
	</g>
</g>
</svg>
