<?xml version="1.0" encoding="utf-8"?>
<!-- Generator: Adobe Illustrator 16.0.0, SVG Export Plug-In . SVG Version: 6.00 Build 0)  -->
<!DOCTYPE svg PUBLIC "-//W3C//DTD SVG 1.1//EN" "http://www.w3.org/Graphics/SVG/1.1/DTD/svg11.dtd">
<svg version="1.1" id="Vrstva_1" xmlns="http://www.w3.org/2000/svg" xmlns:xlink="http://www.w3.org/1999/xlink" x="0px" y="0px"
	 width="1347.5px" height="315px" viewBox="0 0 1347.5 315" enable-background="new 0 0 1347.5 315" xml:space="preserve">
<path fill="#404040" d="M123.589,184.18l9.406-16.193c1.697-2.773,2.776-6.168,2.776-9.715c0-3.545-0.925-6.786-2.776-9.714
	L81.024,58.8H51.105L123.589,184.18z M68.224,163.206l-53.668,92.993H44.32l38.863-67.084L68.224,163.206z M105.853,214.715
	l13.727-23.596L43.24,58.8H15.944L105.853,214.715z M87.192,196.055L52.339,256.2h29.61l20.048-34.546L87.192,196.055z"/>
<g enable-background="new    ">
	<path fill="#404040" d="M322.628,158.323c0,19.188-5.693,34.476-17.077,45.859c-12.793,13.56-29.615,20.339-50.464,20.339
		c-19.956,0-36.84-6.908-50.656-20.723c-13.815-13.815-20.723-30.827-20.723-51.04c0-20.21,6.907-37.224,20.723-51.039
		s30.7-20.723,50.656-20.723c10.104,0,19.634,1.792,28.59,5.372c8.952,3.583,16.31,8.635,22.066,15.158l-12.664,12.664
		c-4.221-5.114-9.69-9.114-16.405-11.992c-6.716-2.878-13.911-4.317-21.586-4.317c-14.966,0-27.63,5.181-37.992,15.542
		c-10.236,10.49-15.351,23.602-15.351,39.335c0,15.734,5.115,28.848,15.351,39.335c10.361,10.361,23.025,15.542,37.992,15.542
		c13.686,0,25.07-3.837,34.154-11.513c9.081-7.675,14.325-18.229,15.734-31.659h-49.888v-16.502h66.582
		C322.307,151.545,322.628,154.998,322.628,158.323z"/>
	<path fill="#404040" d="M344.117,221.451V84.066h42.021c20.979,0,37.83,6.332,50.561,18.996
		c12.727,12.664,19.092,29.231,19.092,49.696c0,20.597-6.365,37.194-19.092,49.792c-12.73,12.602-29.582,18.9-50.561,18.9H344.117z
		 M361.77,100.952v103.614h24.369c15.988,0,28.59-4.572,37.801-13.72c9.209-9.145,13.814-21.841,13.814-38.088
		c0-16.117-4.605-28.781-13.814-37.991c-9.211-9.211-21.813-13.815-37.801-13.815H361.77z"/>
	<path fill="#404040" d="M608.907,158.323c0,19.188-5.693,34.476-17.077,45.859c-12.792,13.56-29.614,20.339-50.464,20.339
		c-19.955,0-36.84-6.908-50.655-20.723c-13.815-13.815-20.723-30.827-20.723-51.04c0-20.21,6.907-37.224,20.723-51.039
		s30.7-20.723,50.655-20.723c10.104,0,19.635,1.792,28.59,5.372c8.953,3.583,16.31,8.635,22.066,15.158l-12.664,12.664
		c-4.222-5.114-9.689-9.114-16.405-11.992s-13.911-4.317-21.587-4.317c-14.966,0-27.63,5.181-37.991,15.542
		c-10.235,10.49-15.351,23.602-15.351,39.335c0,15.734,5.115,28.848,15.351,39.335c10.361,10.361,23.025,15.542,37.991,15.542
		c13.687,0,25.07-3.837,34.154-11.513c9.082-7.675,14.325-18.229,15.734-31.659h-49.889v-16.502h66.582
		C608.586,151.545,608.907,154.998,608.907,158.323z"/>
</g>
<g enable-background="new    ">
	<path fill="#404040" d="M769.716,84.066h22.833v0.768L741.51,143.74l54.494,76.943v0.768h-21.683l-44.708-64.087l-21.106,24.368
		v39.719h-17.652V84.066h17.652v70.803h0.768L769.716,84.066z"/>
	<path fill="#404040" d="M797.923,174.441c0-14.454,4.539-26.413,13.624-35.882c9.209-9.465,20.785-14.198,34.729-14.198
		c13.941,0,25.455,4.733,34.539,14.198c9.209,9.469,13.814,21.428,13.814,35.882c0,14.582-4.605,26.545-13.814,35.881
		c-9.084,9.468-20.598,14.199-34.539,14.199c-13.943,0-25.52-4.731-34.729-14.199C802.462,200.857,797.923,188.897,797.923,174.441z
		 M815.576,174.441c0,10.106,2.94,18.294,8.826,24.561c5.882,6.269,13.174,9.401,21.873,9.401c8.698,0,15.989-3.133,21.875-9.401
		c5.882-6.267,8.826-14.454,8.826-24.561c0-9.978-2.944-18.1-8.826-24.369c-6.015-6.395-13.306-9.594-21.875-9.594
		c-8.57,0-15.862,3.199-21.873,9.594C818.517,156.342,815.576,164.464,815.576,174.441z"/>
	<path fill="#404040" d="M981.743,195.355c0,8.188-3.583,15.096-10.745,20.723c-7.165,5.628-16.184,8.443-27.055,8.443
		c-9.468,0-17.781-2.465-24.944-7.388c-7.165-4.923-12.28-11.417-15.35-19.476l15.733-6.716c2.303,5.631,5.66,10.011,10.074,13.144
		c4.413,3.137,9.239,4.701,14.486,4.701c5.627,0,10.328-1.214,14.103-3.646c3.772-2.429,5.661-5.307,5.661-8.635
		c0-6.011-4.605-10.424-13.815-13.239l-16.118-4.029c-18.294-4.605-27.438-13.432-27.438-26.479c0-8.568,3.484-15.446,10.458-20.627
		c6.971-5.181,15.893-7.771,26.767-7.771c8.313,0,15.83,1.984,22.546,5.948c6.716,3.966,11.416,9.275,14.103,15.926l-15.733,6.523
		c-1.793-3.963-4.701-7.066-8.73-9.306c-4.029-2.236-8.539-3.358-13.527-3.358c-4.605,0-8.73,1.151-12.377,3.454
		c-3.646,2.303-5.468,5.118-5.468,8.442c0,5.373,5.052,9.21,15.158,11.513l14.199,3.646
		C972.404,171.755,981.743,181.157,981.743,195.355z"/>
	<path fill="#404040" d="M1018.967,95.004c0,3.454-1.217,6.397-3.646,8.826c-2.431,2.432-5.372,3.646-8.826,3.646
		s-6.397-1.214-8.826-3.646c-2.432-2.429-3.646-5.372-3.646-8.826s1.214-6.396,3.646-8.826c2.429-2.429,5.372-3.646,8.826-3.646
		s6.396,1.218,8.826,3.646C1017.75,88.608,1018.967,91.55,1018.967,95.004z M1015.321,127.431v94.021h-17.652v-94.021H1015.321z"/>
	<path fill="#404040" d="M1080.367,224.521c-13.944,0-25.52-4.731-34.729-14.199c-9.084-9.72-13.623-21.683-13.623-35.881
		c0-14.454,4.539-26.413,13.623-35.882c9.21-9.465,20.785-14.198,34.729-14.198c9.594,0,17.971,2.398,25.136,7.195
		c7.163,4.797,12.535,11.417,16.118,19.859l-16.118,6.716c-4.988-11.768-13.752-17.653-26.287-17.653
		c-8.059,0-15.032,3.262-20.914,9.786c-5.757,6.523-8.635,14.583-8.635,24.177s2.878,17.652,8.635,24.177
		c5.882,6.523,12.855,9.785,20.914,9.785c12.919,0,22-5.882,27.247-17.652l15.733,6.716c-3.453,8.442-8.859,15.063-16.213,19.859
		C1098.626,222.123,1090.087,224.521,1080.367,224.521z"/>
	<path fill="#404040" d="M1178.8,224.521c-13.815,0-25.202-4.731-34.154-14.199c-8.955-9.465-13.431-21.425-13.431-35.881
		c0-14.325,4.347-26.255,13.047-35.785c8.698-9.528,19.827-14.295,33.387-14.295c13.941,0,25.04,4.509,33.291,13.527
		c8.251,9.018,12.376,21.652,12.376,37.896l-0.191,1.919h-73.873c0.255,9.21,3.325,16.63,9.21,22.258
		c5.882,5.63,12.919,8.442,21.106,8.442c11.255,0,20.081-5.627,26.479-16.885l15.733,7.675
		c-4.221,7.933-10.073,14.136-17.557,18.612C1196.74,222.281,1188.265,224.521,1178.8,224.521z M1150.594,163.12h53.918
		c-0.513-6.523-3.166-11.926-7.963-16.214c-4.797-4.284-11.225-6.428-19.284-6.428c-6.652,0-12.376,2.048-17.173,6.141
		C1155.295,150.714,1152.129,156.213,1150.594,163.12z"/>
</g>
<g enable-background="new    ">
	<path fill="#404040" d="M938.598,105.963l-18.42-27.439h13.048l11.321,18.229h0.383l11.321-18.229h12.664l-18.036,27.439H938.598z"
		/>
</g>
</svg>
