<?xml version="1.0" encoding="utf-8"?>
<!-- Generator: Adobe Illustrator 16.0.0, SVG Export Plug-In . SVG Version: 6.00 Build 0)  -->
<!DOCTYPE svg PUBLIC "-//W3C//DTD SVG 1.1//EN" "http://www.w3.org/Graphics/SVG/1.1/DTD/svg11.dtd">
<svg version="1.1" id="Vrstva_1" xmlns="http://www.w3.org/2000/svg" xmlns:xlink="http://www.w3.org/1999/xlink" x="0px" y="0px"
	 width="1347.5px" height="315px" viewBox="0 0 1347.5 315" enable-background="new 0 0 1347.5 315" xml:space="preserve">
<path fill="#404040" d="M123.589,184.18l9.406-16.193c1.697-2.774,2.776-6.168,2.776-9.715c0-3.546-0.925-6.786-2.776-9.715
	L81.024,58.8H51.105L123.589,184.18z M68.224,163.206l-53.668,92.993H44.32l38.863-67.084L68.224,163.206z M105.853,214.715
	l13.727-23.596L43.24,58.8H15.944L105.853,214.715z M87.192,196.055L52.339,256.2h29.61l20.048-34.546L87.192,196.055z"/>
<text transform="matrix(1 0 0 1 176.6089 221.4512)" fill="#404040" font-family="'ProductSans-Regular'" font-size="191.8777">GDG </text>
<text transform="matrix(1 0 0 1 677.0391 221.4512)" fill="#404040" font-family="'ProductSans-Regular'" font-size="191.8777">Kosice </text>
<text transform="matrix(1 0 0 1 915.7646 211.4961)" fill="#404040" font-family="'MyriadPro-Regular'" font-size="191.8777">ˇ</text>
</svg>
