<?xml version="1.0" encoding="utf-8"?>
<!-- Generator: Adobe Illustrator 21.1.0, SVG Export Plug-In . SVG Version: 6.00 Build 0)  -->
<svg version="1.1" xmlns="http://www.w3.org/2000/svg" xmlns:xlink="http://www.w3.org/1999/xlink" x="0px" y="0px"
	 viewBox="0 0 279.3 84.6" style="enable-background:new 0 0 279.3 84.6;" xml:space="preserve">
<style type="text/css">
	.st0{display:none;}
	.st1{display:inline;}
	.st2{fill:#FFFFFF;}
	.st3{display:inline;fill:#FFFFFF;}
	.st4{display:inline;fill:none;stroke:#F37139;stroke-width:0.582;}
	.st5{display:inline;fill:none;stroke:#F37139;stroke-width:0.591;}
	.st6{display:inline;fill:none;stroke:#F37139;stroke-width:0.57;}
	.st7{fill:#424142;}
	.st8{fill:#F37139;}
	.st9{fill:#424143;}
	.st10{fill:#010101;}
</style>
<g id="Layer_1" class="st0">
	<g class="st1">
		<path class="st2" d="M43.2,45.1h10.2c-1.3,4.7-5.6,8.1-10.7,8.1c-6.1,0-11.2-5-11.2-11.2c0-6.1,5-11.2,11.2-11.2
			c4.6,0,8.6,2.9,10.3,6.9h3c-1.8-5.7-7.1-9.8-13.3-9.8c-7.7,0-14,6.3-14,14s6.3,14,14,14c4.4,0,8.5-2.2,10.9-5.4v4.8h2.6V42.3h-13
			V45.1z"/>
	</g>
	<rect x="60.9" y="29" class="st3" width="2.8" height="26.5"/>
	<rect x="143.4" y="29" class="st3" width="2.8" height="26.5"/>
	<g class="st1">
		<path class="st2" d="M78.2,53.6c-4.3,0-7.8-3.7-7.8-8c0-4.3,3.5-7.9,7.8-7.9c4.3,0,7.8,3.7,7.8,7.9C86,49.9,82.5,53.6,78.2,53.6
			 M78.2,35c-5.8,0-10.6,4.8-10.6,10.6c0,5.8,4.8,10.6,10.6,10.6c5.8,0,10.6-4.8,10.6-10.6C88.8,39.8,84.1,35,78.2,35"/>
		<path class="st2" d="M102.7,53.6c-4.3,0-7.8-3.7-7.8-8c0-4.3,3.5-7.9,7.8-7.9c4.3,0,7.8,3.7,7.8,7.9
			C110.5,49.9,107,53.6,102.7,53.6 M102.8,34.8c-3.1,0-5.9,1.4-7.9,3.6V29h-2.8v26.5h2.8v-2.7c2,2.2,4.8,3.6,7.9,3.6
			c5.9,0,10.7-4.8,10.7-10.8C113.5,39.7,108.7,34.8,102.8,34.8"/>
		<path class="st2" d="M127.9,53.6c-4.3,0-7.8-3.7-7.8-8c0-4.3,3.5-7.9,7.8-7.9c4.3,0,7.8,3.7,7.8,7.9
			C135.7,49.9,132.2,53.6,127.9,53.6 M135.7,38.4c-2-2.2-4.8-3.6-8-3.6c-6,0-10.8,4.8-10.8,10.8c0,6,4.8,10.8,10.8,10.8
			c3.2,0,6.1-1.4,8-3.6v2.7h2.8V36.1h-2.8V38.4z"/>
	</g>
	<rect x="219.7" y="26.3" class="st3" width="5" height="4.7"/>
	<polygon class="st3" points="156.1,29 151.6,29 151.6,51.2 151.6,55.5 166.5,55.5 166.5,51.2 156.1,51.2 	"/>
	<rect x="219.7" y="34.6" class="st3" width="5" height="20.8"/>
	<g class="st1">
		<path class="st2" d="M179,51.9c-3.3,0-6-2.9-6-6.4c0-3.5,2.7-6.4,6-6.4c3.3,0,6,2.9,6,6.4C185,49,182.3,51.9,179,51.9 M179,34.6
			c-6,0-10.9,4.9-10.9,10.9c0,6,4.9,10.9,10.9,10.9c6,0,10.9-4.9,10.9-10.9C189.9,39.4,185,34.6,179,34.6"/>
		<path class="st2" d="M245.3,48.4c-1,2.1-3,3.6-5.4,3.6c-3.3,0-6-2.9-6-6.4c0-3.9,2.7-6.4,6-6.4c2.2,0,4.2,1.3,5.2,3.2h5.2
			c-1.4-4.5-5.5-7.7-10.4-7.7c-6,0-10.9,4.9-10.9,10.9c0,6,4.9,10.9,10.9,10.9c5,0,9.2-3.4,10.5-8H245.3z"/>
		<path class="st2" d="M203.2,62.7c-2.2,0-4.3-1.2-5.6-2.9l-4.4,2.1c2.1,3.3,5.5,5.4,10,5.4c5.8,0,10.5-4.6,11-10.1h-5
			C208.8,60.3,206.3,62.7,203.2,62.7"/>
		<path class="st2" d="M203.4,52c-3.3,0-6-2.9-6-6.4c0-3.5,2.7-6.4,6-6.4c3.3,0,6,2.9,6,6.4C209.4,49.1,206.8,52,203.4,52
			 M209.8,36.8c-1.8-1.3-4-2.1-6.4-2.1c-6,0-10.8,4.8-10.8,10.8c0,6,4.9,10.8,10.8,10.8c6,0,10.8-4.8,10.8-10.8v-11h-4.5V36.8z"/>
	</g>
	<rect x="28.2" y="28.2" class="st4" width="222.9" height="28.2"/>
	<rect y="0" class="st5" width="28.2" height="28.2"/>
	<line class="st6" x1="28" y1="0.1" x2="-0.1" y2="28.3"/>
	<rect y="56.4" class="st5" width="28.2" height="28.2"/>
	<line class="st6" x1="28" y1="56.6" x2="-0.1" y2="84.7"/>
	<rect x="251.1" y="0" class="st5" width="28.2" height="28.2"/>
	<line class="st6" x1="279.2" y1="0.1" x2="251" y2="28.3"/>
	<rect x="251.1" y="56.4" class="st5" width="28.2" height="28.2"/>
	<line class="st6" x1="279.2" y1="56.6" x2="251" y2="84.7"/>
	<rect x="0.2" class="st4" width="279.4" height="84.6"/>
</g>
<g id="Layer_1_copy">
	<g>
		<g>
			<path class="st7" d="M43.2,45.1h10.2c-1.3,4.7-5.6,8.1-10.7,8.1c-6.1,0-11.2-5-11.2-11.2c0-6.1,5-11.2,11.2-11.2
				c4.6,0,8.6,2.9,10.3,6.9h3c-1.8-5.7-7.1-9.8-13.3-9.8c-7.7,0-14,6.3-14,14s6.3,14,14,14c4.4,0,8.5-2.2,10.9-5.4v4.8h2.6V42.3h-13
				V45.1z"/>
		</g>
		<rect x="60.9" y="29" class="st7" width="2.8" height="26.5"/>
		<rect x="143.4" y="29" class="st7" width="2.8" height="26.5"/>
		<g>
			<path class="st7" d="M78.2,53.6c-4.3,0-7.8-3.7-7.8-8c0-4.3,3.5-7.9,7.8-7.9c4.3,0,7.8,3.7,7.8,7.9C86,49.9,82.5,53.6,78.2,53.6
				 M78.2,35c-5.8,0-10.6,4.8-10.6,10.6c0,5.8,4.8,10.6,10.6,10.6c5.8,0,10.6-4.8,10.6-10.6C88.8,39.8,84.1,35,78.2,35"/>
			<path class="st7" d="M102.7,53.6c-4.3,0-7.8-3.7-7.8-8c0-4.3,3.5-7.9,7.8-7.9c4.3,0,7.8,3.7,7.8,7.9
				C110.5,49.9,107,53.6,102.7,53.6 M102.8,34.8c-3.1,0-5.9,1.4-7.9,3.6V29h-2.8v26.5h2.8v-2.7c2,2.2,4.8,3.6,7.9,3.6
				c5.9,0,10.7-4.8,10.7-10.8C113.5,39.7,108.7,34.8,102.8,34.8"/>
			<path class="st7" d="M127.9,53.6c-4.3,0-7.8-3.7-7.8-8c0-4.3,3.5-7.9,7.8-7.9c4.3,0,7.8,3.7,7.8,7.9
				C135.7,49.9,132.2,53.6,127.9,53.6 M135.7,38.4c-2-2.2-4.8-3.6-8-3.6c-6,0-10.8,4.8-10.8,10.8c0,6,4.8,10.8,10.8,10.8
				c3.2,0,6.1-1.4,8-3.6v2.7h2.8V36.1h-2.8V38.4z"/>
		</g>
		<rect x="219.7" y="26.3" class="st7" width="5" height="4.7"/>
		<polygon class="st7" points="156.1,29 151.6,29 151.6,51.2 151.6,55.5 166.5,55.5 166.5,51.2 156.1,51.2 		"/>
		<rect x="219.7" y="34.6" class="st7" width="5" height="20.8"/>
		<g>
			<path class="st7" d="M179,51.9c-3.3,0-6-2.9-6-6.4c0-3.5,2.7-6.4,6-6.4c3.3,0,6,2.9,6,6.4C185,49,182.3,51.9,179,51.9 M179,34.6
				c-6,0-10.9,4.9-10.9,10.9c0,6,4.9,10.9,10.9,10.9c6,0,10.9-4.9,10.9-10.9C189.9,39.4,185,34.6,179,34.6"/>
			<path class="st7" d="M245.3,48.4c-1,2.1-3,3.6-5.4,3.6c-3.3,0-6-2.9-6-6.4c0-3.9,2.7-6.4,6-6.4c2.2,0,4.2,1.3,5.2,3.2h5.2
				c-1.4-4.5-5.5-7.7-10.4-7.7c-6,0-10.9,4.9-10.9,10.9c0,6,4.9,10.9,10.9,10.9c5,0,9.2-3.4,10.5-8H245.3z"/>
			<path class="st7" d="M203.2,62.7c-2.2,0-4.3-1.2-5.6-2.9l-4.4,2.1c2.1,3.3,5.5,5.4,10,5.4c5.8,0,10.5-4.6,11-10.1h-5
				C208.8,60.3,206.3,62.7,203.2,62.7"/>
			<path class="st7" d="M203.4,52c-3.3,0-6-2.9-6-6.4c0-3.5,2.7-6.4,6-6.4c3.3,0,6,2.9,6,6.4C209.4,49.1,206.8,52,203.4,52
				 M209.8,36.8c-1.8-1.3-4-2.1-6.4-2.1c-6,0-10.8,4.8-10.8,10.8c0,6,4.9,10.8,10.8,10.8c6,0,10.8-4.8,10.8-10.8v-11h-4.5V36.8z"/>
		</g>
	</g>
</g>
</svg>
