<?xml version="1.0" encoding="UTF-8" standalone="no"?>
<svg
   xmlns:dc="http://purl.org/dc/elements/1.1/"
   xmlns:cc="http://creativecommons.org/ns#"
   xmlns:rdf="http://www.w3.org/1999/02/22-rdf-syntax-ns#"
   xmlns:svg="http://www.w3.org/2000/svg"
   xmlns="http://www.w3.org/2000/svg"
   version="1.1"
   id="svg5923"
   viewBox="0 0 224.97267 31.640909"
   height="8.9297676mm"
   width="63.492287mm">
  <defs
     id="defs5925" />
  <metadata
     id="metadata5928">
    <rdf:RDF>
      <cc:Work
         rdf:about="">
        <dc:format>image/svg+xml</dc:format>
        <dc:type
           rdf:resource="http://purl.org/dc/dcmitype/StillImage" />
        <dc:title></dc:title>
      </cc:Work>
    </rdf:RDF>
  </metadata>
  <g
     transform="translate(-58.942238,-202.25589)"
     id="layer1">
    <path
       id="path2444"
       style="fill:#003b90;fill-opacity:1;fill-rule:nonzero;stroke:none"
       d="m 102.18474,202.25619 c -1.10625,0 -2.851252,0.10625 -3.636252,0.2725 -1.65625,0.35375 -2.69875,0.95875 -3.67,2.0125 -0.30625,0.33625 -0.91625,1.09375 -1.62375,2.25875 l -9.9575,16.47875 -2.58,-16.8825 c -0.14,-0.8725 -0.325,-1.47375 -0.59875,-2.01 -0.48625,-0.95125 -1.20375,-1.61875 -2.64125,-1.92375 -0.465,-0.1 -1.365,-0.20375 -2.4025,-0.20375 l -9.55625,0 -6.57625,30.9425 10,0 4.04625,-19.04125 0.255,0 3.11125,19.04125 4.895,-0.001 c 0.68,0 1.25375,-0.0225 1.645,-0.0863 1.3,-0.2125 2.03125,-0.73875 3.18,-2.66875 l 9.775,-16.285 0.2975,0 -4.0475,19.04125 9.955002,0 6.57,-30.9425 -6.44,-0.003 z m 18.97375,5.44 0.64,-2.9975 c 0.0987,-0.505 0.14125,-0.84375 0.1125,-1.09375 -0.0812,-0.67125 -0.50375,-1.12625 -1.18625,-1.2825 -0.1875,-0.0437 -0.51,-0.0662 -0.9175,-0.0662 l -7.265,0 -1.155,5.44 9.77125,0 z m -0.99625,4.72875 -4.4275,20.77625 -9.7625,0 4.93625,-23.2175 7.265,0 c 0.40625,0 0.72875,0.0225 0.9175,0.065 0.685,0.1575 1.105,0.60875 1.185,1.2825 0.03,0.25 -0.015,0.59 -0.11375,1.09375 m 30.29,-1.39125 c -1.7825,-1.225 -3.89375,-1.49625 -6.22875,-1.49625 -2.97375,0 -6.77125,0.91 -10.31625,3.3825 l 0.095,-0.47625 c 0.0925,-0.4875 0.12,-0.7575 0.1125,-0.97875 -0.0225,-0.6325 -0.27875,-1.07625 -0.89375,-1.29625 -0.2775,-0.0962 -0.67125,-0.185 -1.74125,-0.185 l -6.87875,0 -4.9325,23.2175 9.925,0 2.165,-10.195 c 0.40625,-1.82 0.80125,-2.92 1.16875,-3.66 1.03,-2.07625 2.89625,-3.3275 5.4325,-3.43 3.3375,-0.13625 4.6725,1.725 3.9675,5.05375 l -2.6325,12.23125 9.88625,0 2.5875,-12.1775 c 0.90375,-4.2475 1.67125,-7.66875 -1.71625,-9.99 m 57.6325,10.315 c -0.8875,4.1875 -3.61625,7.0125 -6.7225,7.0125 -3.01875,0 -4.62,-2.8875 -3.76875,-6.90125 0.83,-3.9 3.545,-6.66875 6.485,-6.66875 3.15,0 4.95875,2.0925 4.00625,6.5575 m 0.73375,-12.07375 c -3.4175,0 -5.95,0.705 -9.1375,2.7625 l 1.535,-7.24 c 0.1075,-0.52125 0.15375,-0.85625 0.13625,-1.085 -0.0425,-0.60375 -0.34125,-1.085 -0.92375,-1.31 -0.235,-0.0925 -0.60375,-0.1425 -1.32125,-0.1425 l -7.19625,0 -6.57625,30.9425 9.88375,0 0.44375,-2.05875 c 2.23125,1.6675 4.10375,2.45625 7.2375,2.45625 7.1325,0 13.29,-4.43 14.94125,-12.1875 1.56375,-7.35875 -2.0525,-12.1375 -9.0225,-12.1375 m 60.75625,4.7675 c 2.0775,-0.0575 5.33125,0.185 4.27375,4.4625 -4.24,0.1025 -13.9425,0.0825 -18.1625,2.63625 -2.12875,1.2875 -3.5375,2.9375 -4.0325,5.2675 -1.19625,5.60375 3.28,7.5275 8.16875,7.4875 3.8825,-0.0312 7.70875,-1.30875 11.555,-2.93125 -0.11375,0.74875 -0.13875,1.5075 -0.1,2.2325 l 10.225,0 c -0.7425,-1.24125 -0.81,-1.98125 -0.425,-3.7275 l 2.51,-11.7825 c 0.4025,-1.88875 0.5725,-3.68125 -0.31625,-5.17375 -1.9375,-3.24375 -8.805,-3.33125 -12.51625,-3.33125 -3.425,0 -9.38375,0.34625 -12.56625,2.76375 -1.89375,1.44125 -2.88,3.1525 -3.66125,5.26 l 9.47375,0 c 1.165,-2.66375 3.495,-3.1075 5.57375,-3.16375 m 3.315,8.325 c -0.2525,0.7525 -0.7975,1.98625 -1.55125,2.775 -1.68625,1.8375 -4.84375,2.765 -6.92625,2.765 -1.37625,0 -3.27875,-0.665 -2.89375,-2.50875 0.54625,-2.53875 4.5825,-2.68 6.265,-2.77 1.69,-0.0913 5.10625,-0.26125 5.10625,-0.26125 m -21.87875,0.6725 c 0.2225,-1.4475 0.46875,-2.8075 0.44375,-4.25 -0.009,-1.7125 -0.64625,-3.42125 -1.46375,-4.69375 -2.52875,-3.9825 -7.66125,-4.77375 -12.42,-4.77375 -3.83625,0 -8.11375,0.48625 -11.84,2.89 -3.4375,2.23625 -5.70125,5.4375 -6.51,9.25 -1.97625,9.2925 5.6625,12.4175 13.21625,12.40375 6.87,-0.0162 13.41125,-1.97375 17.4525,-7.56 0.1375,-0.20875 0.0625,-0.425 -0.24875,-0.425 l -10.08125,0 c -1.52875,1.77125 -3.05125,2.655 -5.53125,2.655 -3.2775,0 -5.49125,-2.0125 -4.9625,-5.49625 l 21.945,0 z m -13.9775,-9.02 c 2.63125,-0.10375 5.425,1.66625 4.485,4.99375 l -11.26125,0 c 0,0 1.00375,-4.76375 6.77625,-4.99375 m -51.38625,9.02 c 0.22125,-1.4475 0.46875,-2.8075 0.4425,-4.25 -0.007,-1.7125 -0.64375,-3.42125 -1.4625,-4.69375 -2.52875,-3.9825 -7.6625,-4.77375 -12.42125,-4.77375 -3.835,0 -8.11125,0.48625 -11.83875,2.89 -3.43875,2.23625 -5.69875,5.4375 -6.51125,9.25 -1.97625,9.2925 5.6675,12.4175 13.2175,12.40375 6.86875,-0.0162 13.4125,-1.97375 17.45375,-7.56 0.13625,-0.20875 0.0613,-0.425 -0.25,-0.425 l -10.08125,0 c -1.53,1.77125 -3.05,2.655 -5.53,2.655 -3.27875,0 -5.4925,-2.0125 -4.965,-5.49625 l 21.94625,0 z m -13.97625,-9.02 c 2.63,-0.10375 5.425,1.66625 4.485,4.99375 l -11.2625,0 c 0,0 1.0025,-4.76375 6.7775,-4.99375" />
  </g>
</svg>
