<?xml version="1.0" encoding="utf-8"?>
<!-- Generator: Adobe Illustrator 16.0.0, SVG Export Plug-In . SVG Version: 6.00 Build 0)  -->
<!DOCTYPE svg PUBLIC "-//W3C//DTD SVG 1.1//EN" "http://www.w3.org/Graphics/SVG/1.1/DTD/svg11.dtd">
<svg version="1.1"
	 id="svg2" xmlns:rdf="http://www.w3.org/1999/02/22-rdf-syntax-ns#" xmlns:dc="http://purl.org/dc/elements/1.1/" xmlns:cc="http://creativecommons.org/ns#"
	 xmlns="http://www.w3.org/2000/svg" xmlns:xlink="http://www.w3.org/1999/xlink" x="0px" y="0px" width="1000px"
	 height="328.561px" viewBox="0 0 1000 328.561" enable-background="new 0 0 1000 328.561" xml:space="preserve">
<g>
	<path fill-rule="evenodd" clip-rule="evenodd" d="M849.519,122.123c0,20.786-0.003,41.573,0,62.36
		c0.002,4.904,1.218,5.852,6.203,5.406c6.852-0.61,12.366-3.668,16.925-8.696c5.142-5.664,10.364-11.258,15.456-16.967
		c1.3-1.462,2.3-3.217,3.327-4.901c1.337-2.187,0.465-3.71-1.807-4.235c-3.116-0.721-6.305-1.101-9.451-1.694
		c-2.696-0.509-3.778-2.431-3.464-6.032c0.219-2.487,1.312-3.949,4.095-4.008c10.008-0.221,20.029-0.333,30.02-0.925
		c10.073-0.594,20.128-1.591,30.166-2.645c5.276-0.551,7.884,2.248,6.101,7.291c-0.35,0.985-1.584,2.051-2.614,2.337
		c-4.346,1.196-8.862,1.825-13.145,3.195c-9.615,3.074-17.328,9.444-25.259,15.355c-3.7,2.759-7.191,5.818-10.627,8.916
		c-2.874,2.591-3.098,4.224-0.995,7.434c11.711,17.847,24.21,35.114,37.933,51.487c5.042,6.019,11.889,7.971,19.123,9.299
		c1.76,0.321,3.521,0.638,5.268,1.018c2.665,0.582,3.702,2.474,3.233,5.791c-0.446,3.149-1.713,4.182-4.52,4.187
		c-24.459,0.032-48.915,0.107-73.374,0.201c-2.316,0.01-3.806-1.271-4.23-3.951c-0.512-3.2,0.452-5.519,2.611-6.084
		c1.729-0.453,3.484-0.803,5.232-1.176c2.386-0.511,2.991-1.82,1.614-3.839c-3.454-5.063-6.91-10.131-10.47-15.12
		c-5.097-7.143-10.303-14.21-15.43-21.333c-1.9-2.638-4.132-4.646-7.601-4.764c-1.976-0.065-3.247,0.766-3.749,2.698
		c-0.141,0.55-0.361,1.11-0.35,1.659c0.218,11.033,0.11,22.087,0.847,33.084c0.376,5.65,3.104,7.485,8.762,8.171
		c1.87,0.228,3.749,0.405,5.622,0.626c2.602,0.306,3.724,2.201,3.421,5.759c-0.284,3.346-1.361,4.411-4.249,4.274
		c-22.948-1.093-45.894-1.061-68.842-0.007c-1.654,0.075-3.646,0.96-4.828-1.199c-1.272-2.322-1.505-4.814-0.169-7.013
		c0.579-0.955,2.257-1.477,3.528-1.729c2.673-0.525,5.416-0.676,8.109-1.107c3.979-0.639,6.221-3.229,6.669-7.04
		c0.549-4.674,0.896-9.404,0.894-14.106c-0.023-43.652-0.162-87.303-0.211-130.953c-0.007-5.345-1.917-9.306-7.035-11.446
		c-1.297-0.54-2.508-1.304-3.724-2.027c-2.215-1.309-2.476-3.449-2.173-5.688c0.274-2.058,1.5-2.961,3.63-3.651
		c14.407-4.658,28.718-9.61,43.097-14.354c1.502-0.495,3.273-0.446,4.881-0.284c1.767,0.178,2.327,1.382,2.29,3.231
		c-0.408,21.063-0.732,42.126-1.075,63.19C849.295,122.12,849.405,122.12,849.519,122.123z"/>
	<path fill-rule="evenodd" clip-rule="evenodd" d="M152.387,192.625c-5.101,9.968-10.062,19.593-14.956,29.248
		c-5.707,11.263-11.525,22.472-16.943,33.875c-2.133,4.486-5.615,4.665-9.602,4.67c-3.707,0-5.92-1.563-7.59-5.05
		C89.278,226.15,74.96,197.074,60.99,167.833c-3.658-7.658-8.806-12.701-17.42-13.926c-2.914-0.415-4.003-2.621-3.606-6.149
		c0.354-3.145,1.525-4.135,4.813-4.121c39.858,0.179,79.722,0.404,119.582,0.493c9.536,0.023,19.074-0.399,28.615-0.605
		c3.167-0.07,3.946,0.694,4.333,4.148c0.383,3.449-0.633,5.256-3.269,5.885c-3.93,0.934-7.858,1.872-11.779,2.844
		c-2.17,0.537-2.875,2.027-2.283,4.066c0.626,2.166,1.251,4.359,2.189,6.398c6.692,14.539,13.463,29.044,20.219,43.557
		c0.155,0.331,0.382,0.622,0.716,1.152c0.371-0.587,0.729-1,0.917-1.479c5.842-14.787,11.676-29.579,17.483-44.385
		c0.443-1.131,0.73-2.332,1.004-3.52c1.128-4.928,0.708-5.716-4.071-7.072c-2.079-0.589-4.23-0.92-6.345-1.398
		c-2.527-0.572-3.632-2.769-3.165-6.225c0.411-3.029,1.488-3.949,4.346-3.949c15.293-0.005,30.585-0.07,45.875,0.005
		c0.995,0.005,2.393,0.746,2.905,1.579c2.403,3.899,0.483,8.093-3.979,8.651c-8.109,1.009-13.525,5.152-16.965,12.661
		c-13.642,29.795-27.596,59.448-41.214,89.257c-1.851,4.055-4.789,4.618-8.384,4.642c-3.613,0.023-6.506-0.592-8.4-4.608
		c-9.569-20.273-19.471-40.387-29.265-60.547C153.48,194.436,153.023,193.735,152.387,192.625z M125.425,212.382
		c0.917-1.037,1.143-1.208,1.26-1.436c4.918-9.855,10.102-19.588,14.581-29.638c1.542-3.456,1.797-7.694,1.792-11.575
		c-0.009-5.955-6.054-13.29-11.863-13.844c-7.661-0.729-15.453-0.999-23.119-0.46c-7.178,0.505-8.309,2.497-5.38,8.936
		C109.945,180.29,117.642,196.013,125.425,212.382z"/>
	<path fill-rule="evenodd" clip-rule="evenodd" d="M474.178,192.179c-3.574,6.898-6.955,13.29-10.216,19.737
		c-7.398,14.618-14.787,29.241-22.065,43.921c-1.347,2.722-3.283,3.986-6.19,4.026c-1.321,0.019-2.642,0.014-3.965,0.009
		c-3.027-0.014-4.958-1.323-6.34-4.19c-14.102-29.273-28.326-58.491-42.517-87.721c-0.164-0.34-0.373-0.659-0.519-1.002
		c-3.142-7.382-8.252-12.309-16.551-13.2c-3.079-0.329-4.029-2.321-4.188-5.036c-0.242-4.04,1.438-5.537,5.448-5.457
		c15.956,0.33,31.914,0.728,47.872,0.736c26.258,0.015,52.517-0.225,78.773-0.422c6.985-0.052,13.971-0.361,20.958-0.51
		c3.069-0.063,4.052,0.875,4.292,3.874c0.323,4.116-0.726,5.716-3.755,6.335c-3.681,0.747-7.315,1.713-10.964,2.609
		c-2.686,0.662-3.496,2.286-2.438,4.853c2.762,6.697,5.314,13.482,8.313,20.071c4.329,9.513,8.977,18.879,13.504,28.303
		c0.316,0.661,0.734,1.276,1.384,2.393c2.638-6.26,5.268-12.046,7.53-17.978c3.957-10.366,7.839-20.771,11.459-31.257
		c1.809-5.239,1.004-6.276-4.369-7.745c-1.813-0.498-3.662-0.868-5.502-1.253c-2.98-0.629-3.777-1.995-3.396-5.923
		c0.338-3.449,1.263-4.341,4.552-4.284c10.667,0.178,21.334,0.45,32.006,0.525c4.43,0.033,8.873-0.234,13.295-0.582
		c3.125-0.244,3.563,1.94,4.019,4.05c0.579,2.683-0.628,5.322-2.562,5.876c-1.354,0.385-2.748,0.654-4.143,0.868
		c-6.555,1.002-11.246,4.428-14.132,10.448c-4.644,9.684-9.563,19.238-14.062,28.987c-9.583,20.772-19.016,41.618-28.373,62.492
		c-1.234,2.75-3.123,3.853-5.833,4.068c-1.312,0.104-2.642,0.045-3.964,0.023c-3.078-0.052-5.121-1.258-6.564-4.279
		c-9.806-20.573-19.802-41.053-29.739-61.556C475.032,193.568,474.765,193.178,474.178,192.179z M447.434,211.378
		c0.314-0.015,0.633-0.023,0.948-0.035c4.639-9.459,9.439-18.84,13.828-28.413c1.455-3.182,2.191-6.8,2.667-10.301
		c0.927-6.818-4.8-15.796-10.913-17.019c-8.569-1.715-17.258-1.787-25.893-0.48c-4.956,0.751-5.805,2.44-4.271,7.25
		c0.427,1.34,0.925,2.671,1.525,3.942c4.167,8.848,8.297,17.715,12.588,26.505C440.967,199.068,444.252,205.197,447.434,211.378z"/>
	<path fill-rule="evenodd" clip-rule="evenodd" d="M567.553,200.861c0.463-22.671,10.693-40.154,30.896-50.959
		c25.548-13.656,51.968-13.837,78.024-1.479c17.657,8.377,28.087,22.858,30.604,42.381c4.018,31.157-11.441,55.323-41.555,64.61
		c-21.99,6.776-44.025,6.41-65.209-3.106C578.527,242.514,567.825,225.118,567.553,200.861z M663.615,205.296
		c-0.772-7.208-1.229-14.466-2.396-21.608c-1.438-8.808-4.162-17.248-10.209-24.151c-7.912-9.036-20.289-9.272-28.675-0.638
		c-3.849,3.96-6.097,8.817-7.527,14.048c-3.651,13.344-3.567,26.856-1.383,40.397c1.453,9.011,4.063,17.631,9.886,24.924
		c4.078,5.11,9.301,8.255,15.946,8.508c9.674,0.366,16.604-4.848,20.317-15.219C662.608,223.082,663.19,214.259,663.615,205.296z"/>
	<path fill-rule="evenodd" clip-rule="evenodd" d="M319.937,189.995c-10.766,0-21.531-0.073-32.293,0.035
		c-3.933,0.04-4.512,0.85-4.536,4.763c-0.131,22.953,16.892,40.495,39.971,41.297c7.743,0.272,15.407,0,22.052-4.477
		c3.153-2.124,5.889-4.96,8.51-7.762c2.145-2.29,3.855-2.854,6.497-1.226c2.844,1.751,3.726,4.521,2.201,7.209
		c-6.755,11.915-16.256,21.014-29.182,25.575c-24.696,8.705-48.172,6.19-69.109-10.284c-10.747-8.456-16.486-20.205-18.312-33.713
		c-4.803-35.551,19.597-64.93,53.5-70.155c13.227-2.041,26.23-1.565,38.488,4.177c14.878,6.969,23.135,18.64,23.208,35.426
		c0.026,5.828-2.564,8.578-8.417,8.668c-10.859,0.166-21.721,0.047-32.58,0.047C319.937,189.716,319.937,189.854,319.937,189.995z
		 M303.181,177.72c0.005-0.065,0.005-0.129,0.009-0.192c2.647,0,5.313,0.216,7.929-0.052c3.635-0.378,7.302-0.87,10.812-1.835
		c1.363-0.37,3.055-1.999,3.367-3.341c1.645-7.049-0.504-14.846-8.475-17.922c-11.875-4.58-28.035,3.928-31.005,16.324
		c-1.002,4.177,0.307,6.063,4.641,6.375C294.694,177.378,298.941,177.511,303.181,177.72z"/>
	<path fill-rule="evenodd" clip-rule="evenodd" d="M736.394,256.084c-11.592,0.293-23.863,0.612-36.135,0.908
		c-3.034,0.07-4.085-1.065-4.332-4.501c-0.228-3.219,0.888-4.96,3.563-5.345c1.959-0.279,3.958-0.301,5.908-0.624
		c6.628-1.104,8.729-3.379,9.153-10.066c0.274-4.331,0.455-8.677,0.472-13.018c0.059-14.642,0.049-29.283,0.005-43.925
		c-0.01-2.736-0.217-5.477-0.475-8.198c-0.293-3.093-1.792-5.533-4.453-7.18c-1.523-0.943-3.088-1.816-4.646-2.703
		c-2.407-1.371-2.407-3.651-2.196-5.958c0.19-2.061,1.472-2.912,3.457-3.479c14.491-4.158,28.762-8.902,42.296-15.697
		c1.239-0.622,3.499-0.005,4.888,0.76c0.786,0.427,1.089,2.335,1.056,3.562c-0.084,3.201-0.607,6.388-0.704,9.588
		c-0.087,2.938,1.979,4.055,4.449,2.469c3.811-2.445,7.485-5.102,11.316-7.507c5.177-3.249,10.709-5.525,16.97-5.539
		c8.956-0.02,16.253,5.765,17.164,13.646c1.206,10.418-3.792,18.076-13.265,20.343c-6.544,1.563-12.417,0.507-17.788-3.843
		c-2.675-2.168-5.761-3.976-8.914-5.374c-4.043-1.792-6.676-0.549-7.675,3.792c-0.941,4.093-1.455,8.377-1.462,12.577
		c-0.03,17.663,0.176,35.327,0.361,52.988c0.019,1.873,0.293,3.775,0.709,5.602c1.027,4.53,3.512,6.415,8.787,6.855
		c3.195,0.271,6.403,0.428,9.597,0.746c2.971,0.296,3.897,1.835,3.648,5.764c-0.209,3.331-1.152,4.313-4.237,4.244
		C761.634,256.694,749.359,256.391,736.394,256.084z"/>
</g>
</svg>
