<?xml version="1.0" encoding="utf-8"?>
<!-- Generator: Adobe Illustrator 16.0.0, SVG Export Plug-In . SVG Version: 6.00 Build 0)  -->
<!DOCTYPE svg PUBLIC "-//W3C//DTD SVG 1.1//EN" "http://www.w3.org/Graphics/SVG/1.1/DTD/svg11.dtd">
<svg version="1.1"
	 id="svg2" xmlns:rdf="http://www.w3.org/1999/02/22-rdf-syntax-ns#" xmlns:dc="http://purl.org/dc/elements/1.1/" xmlns:cc="http://creativecommons.org/ns#"
	 xmlns="http://www.w3.org/2000/svg" xmlns:xlink="http://www.w3.org/1999/xlink" x="0px" y="0px" width="1000px"
	 height="328.561px" viewBox="0 0 1000 328.561" enable-background="new 0 0 1000 328.561" xml:space="preserve">
<g>
	<path fill-rule="evenodd" clip-rule="evenodd" fill="#537CBC" d="M26.121,169.044c0-32.855-0.009-65.707,0.004-98.56
		c0.004-10.477,3.375-13.803,13.957-13.81c17.69-0.013,35.381,0.105,53.069-0.089c3.858-0.042,5.53,0.656,5.212,4.964
		c-0.412,5.565-0.357,11.2-0.015,16.775c0.248,4.024-0.965,5.329-5.08,5.242c-11.905-0.251-23.828,0.06-35.736-0.173
		c-3.777-0.074-4.818,1.006-4.812,4.801c0.12,54.874,0.113,109.748,0.008,164.625c-0.006,3.462,0.813,4.606,4.436,4.537
		c12.09-0.229,24.189,0.046,36.28-0.166c3.619-0.064,5.145,0.664,4.908,4.66c-0.351,5.938-0.216,11.914-0.037,17.864
		c0.083,2.78-0.723,3.773-3.623,3.756c-19.134-0.113-38.268-0.005-57.402-0.104c-6.011-0.03-9.898-3.588-10.832-9.842
		c-0.448-3.007-0.324-6.111-0.324-9.17C26.114,232.581,26.121,200.812,26.121,169.044z"/>
	<path fill-rule="evenodd" clip-rule="evenodd" fill="#25B9A1" d="M292.628,170.089c0,33.029,0.008,66.057-0.004,99.086
		c-0.004,10.779-3.436,14.185-14.222,14.189c-17.327,0.004-34.656-0.166-51.98,0.111c-4.607,0.073-5.87-1.342-5.552-5.762
		c0.387-5.387,0.283-10.832,0.021-16.233c-0.161-3.329,0.877-4.333,4.237-4.278c12.088,0.191,24.185-0.048,36.273,0.147
		c3.514,0.057,4.977-0.482,4.968-4.559c-0.148-55.046-0.135-110.097-0.021-165.144c0.009-3.567-0.967-4.619-4.518-4.562
		c-12.088,0.195-24.185-0.031-36.275,0.141c-3.44,0.049-4.851-0.81-4.672-4.512c0.292-5.942,0.187-11.911,0.03-17.864
		c-0.072-2.819,0.446-4.221,3.775-4.195c19.129,0.143,38.264-0.004,57.393,0.12c7.07,0.045,10.529,4.162,10.536,12.06
		C292.644,102.586,292.628,136.337,292.628,170.089z"/>
	<path fill-rule="evenodd" clip-rule="evenodd" fill="#58C0EE" d="M159.891,161.813c-9.401,15.082-17.125,31.094-25.799,46.58
		c-5.267,9.402-10.368,18.897-15.545,28.347c-11.915,0-23.833-0.118-35.747,0.061c-4.309,0.063-5.618-0.64-3.203-5.003
		c13.454-24.303,26.715-48.715,40.042-73.087c5.905-11.024,11.833-22.034,17.692-33.082c1.019-1.921,2.21-2.795,4.568-2.758
		c12.563,0.199,25.13,0.181,37.695,0.237c-0.242,2.605-1.827,4.642-2.957,6.856C171.18,140.645,164.709,150.794,159.891,161.813z"/>
	<path fill-rule="evenodd" clip-rule="evenodd" fill="#537BBC" d="M119.639,158.711c-13.327,24.372-26.589,48.784-40.042,73.087
		c-2.415,4.363-1.106,5.066,3.203,5.003c11.914-0.179,23.832-0.061,35.747-0.061c-0.998,1.567-2.587,0.979-3.939,0.986
		c-11.185,0.043-22.369-0.055-33.552,0.076c-3.029,0.037-4.47-0.425-4.459-4.052c0.133-42.211,0.137-84.424-0.007-126.634
		c-0.013-3.861,1.5-4.469,4.76-4.432c10.821,0.127,21.648,0.219,32.465-0.041c4.039-0.097,4.762,1.536,4.727,5.083
		c-0.146,15.151-0.094,30.306-0.02,45.457C118.533,155.042,117.667,157.199,119.639,158.711z"/>
	<path fill-rule="evenodd" clip-rule="evenodd" fill="#26B69F" d="M199.201,158.399c2.149-1.435,1.093-3.63,1.106-5.437
		c0.096-15.147,0.166-30.298-0.026-45.443c-0.048-3.568,1.012-4.635,4.533-4.574c11,0.19,22.003,0.196,32.999-0.002
		c3.571-0.064,4.511,1.092,4.5,4.605c-0.115,42.018-0.085,84.035-0.039,126.053c0.002,2.373,0.118,4.167-3.194,4.13
		c-12.262-0.144-24.527-0.059-36.787-0.124c-0.592,0-1.185-0.623-1.774-0.956c12.06,0,24.12-0.08,36.178,0.046
		c3.854,0.041,4.975-0.925,2.941-4.603c-5.13-9.279-10.033-18.686-15.139-27.982C216.114,188.848,207.638,173.634,199.201,158.399z"
		/>
	<path fill-rule="evenodd" clip-rule="evenodd" fill="#62C2A5" d="M199.201,158.399c8.437,15.234,16.913,30.449,25.298,45.712
		c5.106,9.297,10.009,18.703,15.139,27.982c2.034,3.678,0.912,4.644-2.941,4.603c-12.058-0.126-24.118-0.046-36.178-0.046
		c-13.541-24.945-27.083-49.89-40.628-74.837c4.818-11.02,11.289-21.168,16.748-31.85c1.13-2.214,2.715-4.251,2.957-6.856
		c4.505,4.907,6.669,11.195,9.883,16.858C192.905,146.004,195.977,152.246,199.201,158.399z"/>
	<path fill-rule="evenodd" clip-rule="evenodd" fill="#646465" d="M447.376,142.788c2.447-9.834,4.847-19.559,7.292-29.271
		c2.506-9.957,5.062-19.903,7.594-29.853c0.222-0.871,0.34-1.783,0.677-2.606c0.971-2.38,3.133-2.309,5.062-1.986
		c2.835,0.473,1.243,2.594,0.925,3.847c-5.833,23.052-11.762,46.08-17.667,69.111c-0.529,2.069-1.326,3.432-3.954,3.476
		c-2.966,0.05-3.621-1.737-4.244-3.887c-5.515-19.036-11.026-38.072-16.558-57.103c-0.34-1.168-0.847-2.286-1.553-4.161
		c-4.278,14.538-8.345,28.337-12.401,42.138c-1.881,6.395-3.765,12.789-5.613,19.192c-0.636,2.192-1.354,3.85-4.283,3.821
		c-3.022-0.028-3.558-1.936-4.1-4.045c-5.829-22.683-11.66-45.364-17.373-68.076c-0.335-1.34-2.382-3.621,0.827-4.312
		c2.456-0.53,4.668-0.185,5.428,2.898c1.857,7.519,3.832,15.008,5.711,22.521c3.177,12.689,6.314,25.387,9.798,39.416
		c3.05-10.432,5.739-19.618,8.426-28.803c3.083-10.546,6.164-21.094,9.253-31.638c0.653-2.236,1.004-4.522,4.3-4.583
		c3.632-0.068,3.93,2.546,4.614,4.91c5.408,18.687,10.764,37.388,16.19,56.069C445.996,140.778,445.741,142.022,447.376,142.788z"/>
	<path fill-rule="evenodd" clip-rule="evenodd" fill="#646465" d="M620.794,213.647c13.646-12.582,29.063-8.8,34.637,3.277
		c1.461-1.673,2.814-3.207,4.151-4.758c5.691-6.597,13.12-7.271,20.798-5.36c7.289,1.816,10.797,7.473,11.912,14.592
		c2.049,13.093,0.472,26.289,0.938,39.429c0.087,2.474-1.28,2.952-3.405,2.977c-2.38,0.028-3.14-1.043-3.127-3.274
		c0.052-9.023,0.016-18.046,0.009-27.068c-0.002-2.164,0.052-4.333-0.042-6.495c-0.411-9.621-5.151-15.112-13.191-15.356
		c-9.095-0.273-15.39,5.052-16.143,14.597c-0.597,7.533-0.253,15.144-0.305,22.718c-0.026,3.61-0.057,7.22,0.004,10.828
		c0.044,2.453-0.354,4.119-3.49,4.104c-3.094-0.015-3.512-1.604-3.507-4.098c0.017-11.367,0.202-22.743-0.166-34.101
		c-0.326-10.144-6.306-14.96-16.384-13.943c-7.475,0.756-12.913,6.78-13.001,14.758c-0.117,10.825-0.015,21.651-0.052,32.479
		c-0.007,2.254,0.605,4.854-3.214,4.862c-3.88,0.009-3.148-2.659-3.152-4.869c-0.035-15.52-0.07-31.037,0.043-46.554
		c0.014-2.004-1.419-5.073,2.415-5.505c3.83-0.431,2.885,2.801,3.562,4.775C620.257,212.163,620.439,212.659,620.794,213.647z"/>
	<path fill-rule="evenodd" clip-rule="evenodd" fill="#666666" d="M545.957,105.487c11.698-11.444,27.475-10.603,34.972,3.081
		c4.592-6.501,10.037-11.167,18.637-10.858c9.695,0.348,15.544,4.668,17.775,14.101c0.496,2.099,1.015,4.255,1.036,6.391
		c0.111,11.185,0.037,22.372,0.101,33.557c0.016,2.341-0.499,3.697-3.269,3.699c-2.756,0-3.292-1.335-3.283-3.687
		c0.048-11.185,0.14-22.374-0.052-33.556c-0.103-5.859-1.938-11.279-7.747-13.823c-5.231-2.291-10.799-2.008-15.394,1.609
		c-5.169,4.068-6.811,10.044-6.884,16.393c-0.111,9.382,0,18.764-0.057,28.146c-0.014,2.192,0.749,5.041-3.157,4.836
		c-3.561-0.189-2.559-2.892-2.615-4.825c-0.324-11.165,0.46-22.341-0.804-33.502c-1.088-9.593-5.874-14.193-15.099-13.808
		c-8.537,0.356-14.216,6.319-14.251,15.082c-0.041,10.825-0.013,21.65-0.009,32.475c0,2.362,0.375,4.725-3.374,4.668
		c-3.85-0.059-3.184-2.625-3.188-4.859c-0.026-15.334-0.072-30.671,0.054-46.006c0.018-1.99-1.486-5.144,2.277-5.603
		c4.283-0.521,2.879,3.092,3.519,5.206C545.242,104.518,545.506,104.783,545.957,105.487z"/>
	<path fill-rule="evenodd" clip-rule="evenodd" fill="#646464" d="M743.534,256.178c-6.358,5.792-12.872,9.182-21.011,8.727
		c-8.404-0.466-13.924-4.657-15.681-12.269c-1.742-7.545,1.339-14.124,8.589-18.007c4.198-2.247,8.792-3.15,13.519-3.359
		c1.978-0.089,4.007,0.229,5.939-0.078c3.001-0.475,6.833,1.849,8.896-1.572c2.145-3.558-0.422-12.047-3.901-14.942
		c-7.372-6.138-21.023-3.395-24.995,5.311c-1.224,2.682-2.904,3.227-5.029,2.421c-2.606-0.993-1.496-3.271-0.839-5.038
		c2.65-7.129,12.714-12.348,22.059-11.535c13.667,1.188,19.269,7.52,19.451,21.411c0.152,11.337-0.89,22.709,0.823,34.003
		c0.244,1.6-0.168,2.506-1.82,2.471c-1.688-0.032-3.793,0.753-4.542-1.707C744.483,260.333,744.135,258.604,743.534,256.178z
		 M732.604,236.513c-4.951-0.276-10.847,0.026-15.737,4.252c-3.08,2.663-4.729,6.042-3.854,10.07
		c0.862,3.962,3.531,6.531,7.473,7.777c6.784,2.145,16.355-1.124,21.346-7.155c3.428-4.141,2.977-9.118,1.725-13.353
		c-0.997-3.36-5.426-0.965-8.252-1.574C734.785,236.418,734.226,236.513,732.604,236.513z"/>
	<path fill-rule="evenodd" clip-rule="evenodd" fill="#666666" d="M561.028,215.413c5.355-5.854,10.307-9.281,17.215-9.322
		c11.94-0.07,18.912,5.564,19.479,17.558c0.579,12.233,0.156,24.516,0.213,36.776c0.009,2.131-0.563,3.34-3.028,3.383
		c-2.715,0.051-3.386-1.261-3.372-3.643c0.052-8.654,0.027-17.31,0.004-25.964c-0.009-2.883-0.021-5.771-0.181-8.65
		c-0.538-9.632-5.105-14.111-14.14-13.954c-9.116,0.157-16.116,6.734-16.17,15.358c-0.07,10.821-0.014,21.641-0.024,32.459
		c0,2.155,0.359,4.328-3.072,4.418c-3.703,0.094-3.446-2.184-3.446-4.601c0.011-24.164,0.007-48.327,0.011-72.488
		c0-2.175-0.305-4.368,3.079-4.461c3.684-0.101,3.439,2.238,3.438,4.65C561.021,195.925,561.028,204.917,561.028,215.413z"/>
	<path fill-rule="evenodd" clip-rule="evenodd" fill="#666666" d="M808.038,207.929c-6.6,7.425-12.572,14.401-18.852,21.088
		c-2.636,2.809-2.708,4.741-0.156,7.714c7.244,8.452,14.154,17.188,21.682,26.401c-4.438,1.025-7.29,1.021-9.994-2.554
		c-5.332-7.041-11.195-13.68-16.871-20.458c-1.039-1.238-2.054-2.619-3.373-3.481c-3.738-2.437-6.993-0.651-7.035,3.777
		c-0.061,6.5-0.041,13.001-0.011,19.5c0.011,2.153-0.106,3.839-3.057,3.91c-3.131,0.076-3.492-1.541-3.488-4.038
		c0.042-24.373,0.026-48.748,0.022-73.122c0-2.234-0.17-4.333,3.167-4.383c3.743-0.055,3.343,2.401,3.345,4.744
		c0.007,12.642-0.041,25.278,0.055,37.915c0.013,1.79-1.093,4.394,1.537,5.143c2.632,0.754,5.223,0.505,7.335-1.981
		c5.023-5.911,10.384-11.537,15.354-17.489C800.363,207.423,803.331,206.449,808.038,207.929z"/>
	<path fill-rule="evenodd" clip-rule="evenodd" fill="#656565" d="M841.048,235.616c-5.417,0.005-10.834,0.055-16.249-0.018
		c-2.491-0.03-3.453,0.676-3.223,3.484c1.443,17.651,16.604,25.709,31.901,16.88c1.472-0.847,3.035-3.388,4.942-0.609
		c1.842,2.687-0.356,4.017-2.173,5.114c-8.596,5.19-17.784,6.445-26.839,1.927c-8.673-4.326-13.397-11.855-13.83-21.718
		c-0.368-8.324-0.63-16.608,4.433-24.007c6.538-9.561,17.664-13.338,28.048-9.279c9.465,3.699,14.925,14.273,13.379,25.321
		c-0.404,2.898-2.077,2.902-4.141,2.9C851.88,235.603,846.465,235.61,841.048,235.616z M838.872,230.173
		c4.315,0,8.631-0.064,12.944,0.024c2.693,0.057,3.856-0.579,3.388-3.734c-1.404-9.469-7.135-14.964-16.038-14.873
		c-8.203,0.085-15.805,7.179-16.78,15.47c-0.296,2.528,0.802,3.153,3.003,3.125C829.885,230.128,834.379,230.167,838.872,230.173z"
		/>
	<path fill-rule="evenodd" clip-rule="evenodd" fill="#656565" d="M657.427,127.251c-5.238,0.007-10.481,0.14-15.711-0.043
		c-3.175-0.111-3.963,1.239-3.943,4.187c0.103,15.633,16.005,24.549,30.366,16.926c0.793-0.42,1.555-0.923,2.278-1.459
		c1.438-1.073,2.734-1.692,4.098,0.203c1.552,2.162,0.156,3.159-1.359,4.365c-9.867,7.855-26.357,6.536-35.011-2.848
		c-11.064-12.001-9.127-36.6,3.66-46.45c7.198-5.545,18.185-6.049,25.956-1.191c7.045,4.403,11.221,15.326,9.41,23.89
		c-0.561,2.638-2.275,2.387-4.033,2.4C667.899,127.268,662.663,127.244,657.427,127.251z M654.34,121.811
		c4.313,0,8.63-0.14,12.937,0.045c3.46,0.149,4.377-1.169,3.793-4.505c-1.435-8.194-6.595-13.525-13.995-14.061
		c-9.06-0.654-15.232,4.096-18.126,13.502c-1.112,3.62-0.841,5.379,3.534,5.078C646.416,121.599,650.386,121.812,654.34,121.811z"/>
	<path fill-rule="evenodd" clip-rule="evenodd" fill="#656565" d="M466.575,235.61c-5.417,0.006-10.836,0.102-16.251-0.031
		c-3.07-0.076-4.011,0.813-3.597,4.115c2.225,17.858,16.604,25.021,32.28,15.914c1.426-0.827,2.861-2.741,4.494-0.218
		c1.563,2.417-0.054,3.701-1.792,4.799c-8.511,5.387-17.655,6.68-26.804,2.417c-8.618-4.02-13.503-11.331-14.17-20.906
		c-0.414-5.907-0.864-11.903,0.943-17.741c3.978-12.856,14.729-19.841,27.845-17.505c13.172,2.347,18.102,14.278,16.858,26.861
		c-0.23,2.323-1.909,2.274-3.555,2.281C477.41,235.612,471.993,235.603,466.575,235.61z M463.503,230.173
		c4.496,0,8.992-0.078,13.486,0.026c2.846,0.067,3.712-0.834,3.247-3.845c-1.472-9.509-7.152-14.871-16.134-14.767
		c-8.119,0.096-15.853,7.416-16.693,15.596c-0.272,2.654,1.08,3.014,3.148,2.996C454.873,230.142,459.188,230.169,463.503,230.173z"
		/>
	<path fill-rule="evenodd" clip-rule="evenodd" fill="#646464" d="M526.333,126.467c0.392,4.666-0.152,8.938-1.535,13.079
		c-3.947,11.812-14.416,18.354-26.909,16.878c-11.335-1.342-20.421-11.255-21.337-23.744c-0.586-7.931-0.56-15.879,3.662-23.105
		c5.628-9.634,15.936-13.943,27.373-11.433c9.906,2.173,17.847,11.98,18.727,23.221
		C526.455,123.153,526.333,124.964,526.333,126.467z M482.779,126.981c0.091,1.816,0.081,3.806,0.3,5.77
		c1.174,10.401,8.3,17.855,17.395,18.278c9.589,0.444,17.239-6.231,19.101-16.935c0.806-4.631,0.789-9.379,0.04-14.005
		c-1.546-9.578-8.664-16.472-16.979-16.834c-9.542-0.416-16.024,4.769-18.972,14.996
		C482.844,121.087,483.022,123.953,482.779,126.981z"/>
	<path fill-rule="evenodd" clip-rule="evenodd" fill="#646465" d="M929.086,206.127c11.112,0.103,17.57,3.761,20.14,11.011
		c0.682,1.927,2.084,4.365-0.889,5.437c-2.492,0.897-3.94-0.189-5.116-3.039c-3.4-8.243-16.804-10.976-23.68-5.195
		c-5.487,4.614-4.838,11.124,1.443,14.556c3.207,1.75,6.734,2.536,10.244,3.344c4.411,1.015,8.739,2.271,12.604,4.684
		c8.933,5.576,9.43,17.351,1.054,23.683c-8.25,6.233-24.223,5.685-31.952-1.087c-2.377-2.084-4.015-4.64-4.751-7.703
		c-0.361-1.505-1.097-3.466,1.307-3.917c1.864-0.349,3.671-0.64,4.849,1.981c4.318,9.6,17.462,12.835,25.956,6.614
		c5.325-3.901,5.419-10.611,0.091-14.62c-2.926-2.199-6.401-3.205-9.924-4.08c-3.318-0.823-6.647-1.675-9.854-2.831
		c-8.652-3.113-11.65-7.607-10.779-15.746c0.659-6.172,6.839-11.803,14.215-12.824C926.003,206.125,928.006,206.179,929.086,206.127
		z"/>
	<path fill-rule="evenodd" clip-rule="evenodd" fill="#656565" d="M696.209,107.157c5.421-6.967,11.608-9.835,19.46-9.415
		c8.87,0.475,14.496,4.814,16.587,13.458c2.029,8.377,0.779,16.902,1.045,25.356c0.161,5.049-0.026,10.109,0.046,15.165
		c0.032,2.308-0.432,3.736-3.233,3.738c-2.724,0.002-3.34-1.265-3.325-3.651c0.063-9.388,0.02-18.777,0.016-28.163
		c0-1.807,0.041-3.613-0.02-5.417c-0.344-10.009-4.944-14.971-13.878-15c-9.389-0.028-16.469,6.491-16.576,15.527
		c-0.124,10.289,0.04,20.581-0.087,30.871c-0.03,2.348,1.406,5.865-3.305,5.787c-4.381-0.074-2.961-3.361-2.979-5.519
		c-0.106-15.165-0.109-30.332,0.004-45.496c0.018-2.004-1.371-5.144,2.489-5.436c3.899-0.296,2.771,2.854,3.159,4.932
		C695.736,104.567,695.858,105.239,696.209,107.157z"/>
	<path fill-rule="evenodd" clip-rule="evenodd" fill="#646464" d="M495.982,235.346c-0.314-4.185,0.083-8.296,1.297-12.317
		c5.146-17.059,25.958-23.101,38.657-11.224c3.151,2.948,5.056,6.563,5.522,10.848c0.169,1.554,0.466,3.448-1.947,3.723
		c-1.911,0.218-3.315-0.043-4.139-2.352c-3.51-9.823-7.795-12.856-16.878-12.399c-7.882,0.398-13.216,5.105-15.237,14.338
		c-1.635,7.468-1.727,15.056,1.039,22.393c2.804,7.444,7.877,10.984,15.64,11.05c7.638,0.065,12.632-3.344,15.358-10.993
		c0.919-2.575,2.497-2.876,4.576-2.408c2.336,0.527,1.681,2.472,1.441,3.984c-1.197,7.56-9.996,14.342-19.188,14.876
		c-14.703,0.855-25.128-8.526-26.125-23.561C495.869,239.324,495.982,237.332,495.982,235.346z"/>
	<path fill-rule="evenodd" clip-rule="evenodd" fill="#676767" d="M411.68,228.579c-0.004,10.288,0.02,20.575-0.026,30.863
		c-0.008,1.866,0.549,4.147-2.615,4.309c-3.418,0.175-3.17-2.116-3.172-4.315c-0.006-20.214-0.15-40.432,0.098-60.642
		c0.061-4.968-1.376-6.779-6.415-6.427c-5.567,0.392-11.182,0.098-16.778,0.069c-1.644-0.009-3.44,0.039-3.436-2.352
		c0.004-2.391,1.807-2.341,3.444-2.343c17.329-0.013,34.656-0.013,51.982,0c1.642,0.002,3.442-0.043,3.442,2.35
		c-0.002,2.391-1.803,2.336-3.444,2.345c-6.136,0.028-12.276,0.152-18.407-0.026c-3.536-0.1-4.769,1.276-4.721,4.765
		C411.775,207.64,411.684,218.111,411.68,228.579z"/>
	<path fill-rule="evenodd" clip-rule="evenodd" fill="#646464" d="M880.866,214.834c4.056-5.332,8.722-8.907,15.155-8.876
		c1.723,0.006,4.823-0.989,4.655,2.713c-0.124,2.743-1.245,3.854-4.376,3.862c-10.495,0.039-15.74,5.621-15.769,16.194
		c-0.028,10.101,0.005,20.201-0.018,30.304c-0.004,2.301,0.481,4.824-3.296,4.785c-3.91-0.043-3.07-2.773-3.079-4.938
		c-0.045-15.694-0.057-31.388,0.014-47.08c0.009-1.927-1.02-4.644,2.486-4.938c3.475-0.292,2.878,2.341,3.214,4.369
		C880.023,212.259,880.411,213.249,880.866,214.834z"/>
</g>
</svg>
