<?xml version="1.0" encoding="utf-8"?>
<!-- Generator: Adobe Illustrator 19.2.0, SVG Export Plug-In . SVG Version: 6.00 Build 0)  -->
<svg version="1.1" id="Layer_1" xmlns="http://www.w3.org/2000/svg" xmlns:xlink="http://www.w3.org/1999/xlink" x="0px" y="0px"
	 viewBox="0 0 464.8 297" style="enable-background:new 0 0 464.8 297;" xml:space="preserve">
<style type="text/css">
	.st0{fill:#EAF1F5;}
	.st1{fill:#011D1F;}
	.st2{fill:#C4B39C;}
	.st3{fill:#564D41;}
	.st4{fill:#E7E1D7;}
	.st5{fill:#938675;}
	.st6{fill:#644841;}
	.st7{fill:#2B2721;}
	.st8{fill:#413A31;}
	.st9{fill:#FDD77A;}
	.st10{fill:#F3F0EB;}
	.st11{fill:#CCCCCC;}
	.st12{fill:none;stroke:#FDD77A;stroke-miterlimit:10;}
	.st13{fill:#856057;}
	.st14{fill:#FBBC05;}
	.st15{fill:#4285F4;}
	.st16{fill:#34A853;}
	.st17{opacity:0.6;fill:#FFFFFF;enable-background:new    ;}
	.st18{opacity:0.8;fill:#FFFFFF;enable-background:new    ;}
	.st19{fill:#FFFFFF;}
	.st20{fill:none;}
</style>
<path class="st0" d="M74.3,39c0-0.2,0-0.4,0-0.5c0-0.3,0-0.5-0.1-0.8v-0.1l0,0c-0.4-4.7-4.3-8.4-9.1-8.4s-8.7,3.7-9.1,8.4l0,0v0.1
	c0,0.3-0.1,0.5-0.1,0.8c0,0.2,0,0.4,0,0.5c0.2,8.6,7.6,14,7.6,14l0,0c0.4,0.4,1,0.6,1.6,0.6s1.2-0.3,1.7-0.7
	C67.9,52.1,74.1,46.9,74.3,39z M67.9,59.1h-5.4v-3.8h5.4V59.1z"/>
<polygon class="st1" points="21.6,276.1 21.6,238 44,219.1 64.1,219.1 73.1,204.1 150.3,204.1 150.3,182.9 161.5,169.1 238.7,169.1 
	356.2,169.1 356.2,209.1 411.1,209.1 420,216.1 455.8,216.1 464.8,227.4 464.8,276.1 "/>
<rect x="227.5" y="159.1" class="st2" width="108.6" height="128"/>
<polygon class="st3" points="311.5,163.1 312.6,163.1 312.6,162.1 311.5,162.1 311.5,161.1 311.5,160.1 310.4,160.1 310.4,159.1 
	310.4,158.1 309.2,158.1 309.2,157.1 309.2,156.1 308.1,156.1 308.1,155.1 308.1,154.1 307,154.1 307,153.1 307,152.1 305.9,152.1 
	305.9,151.1 305.9,150.1 304.8,150.1 304.8,149.1 304.8,148.1 303.6,148.1 303.6,147.1 303.6,146.1 302.5,146.1 302.5,145.1 
	302.5,144.1 301.4,144.1 301.4,143.1 301.4,142.1 300.3,142.1 300.3,141.1 300.3,140.1 299.2,140.1 299.2,139.1 299.2,138.1 
	298,138.1 298,137.1 298,136.1 296.9,136.1 296.9,135.1 296.9,134.1 295.8,134.1 295.8,133.1 295.8,132.1 294.7,132.1 294.7,131.1 
	294.7,130.1 293.6,130.1 293.6,129.1 293.6,128.1 292.4,128.1 292.4,127.1 292.4,126.1 291.3,126.1 291.3,125.1 291.3,124.1 
	290.2,124.1 290.2,123.1 290.2,122.1 289.1,122.1 289.1,121.1 289.1,120.1 288,120.1 288,119.1 288,118.1 286.8,118.1 286.8,117.1 
	286.8,116.1 285.7,116.1 285.7,115.1 285.7,114.1 284.6,114.1 284.6,113.1 284.6,112.1 283.5,112.1 283.5,111.1 283.5,110.1 
	282.4,110.1 282.4,109.1 281.3,109.1 281.3,110.1 280.1,110.1 280.1,111.1 280.1,112.1 279,112.1 279,113.1 279,114.1 277.9,114.1 
	277.9,115.1 277.9,116.1 276.8,116.1 276.8,117.1 276.8,118.1 275.7,118.1 275.7,119.1 275.7,120.1 274.5,120.1 274.5,121.1 
	274.5,122.1 273.4,122.1 273.4,123.1 273.4,124.1 272.3,124.1 272.3,125.1 272.3,126.1 271.2,126.1 271.2,127.1 271.2,128.1 
	270.1,128.1 270.1,129.1 270.1,130.1 268.9,130.1 268.9,131.1 268.9,132.1 267.8,132.1 267.8,133.1 267.8,134.1 266.7,134.1 
	266.7,135.1 266.7,136.1 265.6,136.1 265.6,137.1 265.6,138.1 264.5,138.1 264.5,139.1 264.5,140.1 263.3,140.1 263.3,141.1 
	263.3,142.1 262.2,142.1 262.2,143.1 262.2,144.1 261.1,144.1 261.1,145.1 261.1,146.1 260,146.1 260,147.1 260,148.1 258.9,148.1 
	258.9,149.1 258.9,150.1 257.7,150.1 257.7,151.1 257.7,152.1 256.6,152.1 256.6,153.1 256.6,154.1 255.5,154.1 255.5,155.1 
	255.5,156.1 254.4,156.1 254.4,157.1 254.4,158.1 253.3,158.1 253.3,159.1 253.3,160.1 252.2,160.1 252.2,161.1 252.2,162.1 
	251,162.1 251,163.1 252.2,163.1 "/>
<rect x="78.7" y="252.1" class="st4" width="61.6" height="35"/>
<rect x="80.9" y="149.1" class="st2" width="57.1" height="103"/>
<rect x="78.7" y="250.1" class="st5" width="61.6" height="2"/>
<rect x="47.3" y="265.1" class="st4" width="47" height="22"/>
<rect x="330.5" y="156.1" class="st2" width="36.9" height="127"/>
<polygon class="st6" points="363,142.1 349.5,117.1 348.4,117.1 335,142.1 329.4,148.1 341.7,148.1 346.2,148.1 351.8,148.1 
	352.9,148.1 368.5,148.1 "/>
<rect x="330.5" y="149.1" class="st2" width="36.9" height="6"/>
<rect x="338.3" y="149.1" class="st5" width="1.1" height="6"/>
<rect x="170.5" y="74.1" class="st7" width="57.1" height="16"/>
<path class="st3" d="M217.5,55.2L217.5,55.2c0,0-0.4-6-6.7-12.1h-23.5c-6.3,6.1-6.7,12.1-6.7,12.1l0,0c-1.1,5-2.7,12-11.2,16.9h12.3
	h3.4h0.8h2.6h5.6h10.1h5.6h2.6h0.8h3.4h12.3C220.1,67.2,218.6,60.2,217.5,55.2z"/>
<path class="st8" d="M214.1,72.1c0-0.2,1.7-19-5.6-29l0,0l0,0h-19l0,0l0,0c-7.3,10-5.6,28.8-5.6,29c1.1,0,0,0,0,0l0,0H214.1
	L214.1,72.1C214.1,72.1,212.8,72.1,214.1,72.1z"/>
<circle class="st9" cx="199" cy="58.9" r="11.5"/>
<circle class="st3" cx="199" cy="58.9" r="10"/>
<circle class="st10" cx="199" cy="58.9" r="8.7"/>
<polygon class="st7" points="303.6,166.1 303.6,165.1 301.4,165.1 301.4,166.1 300.3,166.1 300.3,168.1 301.4,168.1 301.4,169.1 
	303.6,169.1 303.6,168.1 304.8,168.1 304.8,166.1 "/>
<polygon class="st7" points="309.2,166.1 309.2,165.1 307,165.1 307,166.1 305.9,166.1 305.9,168.1 307,168.1 307,169.1 
	309.2,169.1 309.2,168.1 310.4,168.1 310.4,166.1 "/>
<rect x="248.8" y="159.1" class="st2" width="3.4" height="3"/>
<rect x="311.5" y="159.1" class="st2" width="3.4" height="3"/>
<rect x="319.3" y="176.1" class="st5" width="11.2" height="12"/>
<ellipse class="st5" cx="324.9" cy="176.1" rx="5.6" ry="5"/>
<rect x="320.4" y="176.1" class="st7" width="9" height="12"/>
<ellipse class="st7" cx="324.9" cy="176.1" rx="4.5" ry="4"/>
<rect x="319.3" y="201.4" class="st5" width="11.2" height="14.7"/>
<ellipse class="st5" cx="324.9" cy="201.1" rx="5.6" ry="5"/>
<rect x="313.7" y="260.1" class="st5" width="16.8" height="27"/>
<path class="st5" d="M322.6,251.1h-0.9c-4.8,3-7.9,6-7.9,9h7.9h0.9h7.9C330.5,257.1,327.4,254.1,322.6,251.1z"/>
<rect x="276.8" y="230.1" class="st7" width="10.1" height="10"/>
<path class="st7" d="M282,225.1h-0.6c-2.9,1.3-4.8,4-4.8,5h4.8h0.6h4.8C286.8,229.1,284.9,226.4,282,225.1z"/>
<rect x="233.1" y="216.1" class="st5" width="98.5" height="1"/>
<rect x="313.7" y="165.1" class="st5" width="5.6" height="58"/>
<rect x="228.7" y="163.1" class="st5" width="133.2" height="1"/>
<ellipse class="st5" cx="273.4" cy="258.1" rx="4.5" ry="4"/>
<ellipse class="st5" cx="290.2" cy="258.1" rx="4.5" ry="4"/>
<rect x="273.4" y="254.1" class="st5" width="16.8" height="2"/>
<rect x="268.9" y="258.1" class="st5" width="2.2" height="31"/>
<rect x="292.4" y="258.1" class="st5" width="2.2" height="31"/>
<rect x="255.5" y="190.1" class="st5" width="52.6" height="1"/>
<rect x="302.5" y="174.9" class="st7" width="5.6" height="15.3"/>
<ellipse class="st7" cx="305.3" cy="174.9" rx="2.8" ry="2.5"/>
<rect x="295.8" y="174.9" class="st7" width="5.6" height="15.3"/>
<ellipse class="st7" cx="298.6" cy="174.9" rx="2.8" ry="2.5"/>
<rect x="289.1" y="174.9" class="st7" width="5.6" height="15.3"/>
<ellipse class="st7" cx="291.9" cy="174.9" rx="2.8" ry="2.5"/>
<rect x="282.4" y="174.9" class="st7" width="5.6" height="15.3"/>
<ellipse class="st7" cx="285.2" cy="174.9" rx="2.8" ry="2.5"/>
<rect x="275.7" y="174.9" class="st7" width="5.6" height="15.3"/>
<ellipse class="st7" cx="278.5" cy="174.9" rx="2.8" ry="2.5"/>
<rect x="268.9" y="174.9" class="st7" width="5.6" height="15.3"/>
<ellipse class="st7" cx="271.7" cy="174.9" rx="2.8" ry="2.5"/>
<rect x="262.2" y="174.9" class="st7" width="5.6" height="15.3"/>
<ellipse class="st7" cx="265" cy="174.9" rx="2.8" ry="2.5"/>
<rect x="255.5" y="174.9" class="st7" width="5.6" height="15.3"/>
<ellipse class="st7" cx="258.3" cy="174.9" rx="2.8" ry="2.5"/>
<rect x="255.5" y="210.1" class="st5" width="52.6" height="1"/>
<rect x="270.2" y="190.1" class="st5" width="23.3" height="20"/>
<rect x="271.2" y="191.1" class="st7" width="21.3" height="19"/>
<rect x="255.5" y="212.1" class="st5" width="52.6" height="1"/>
<rect x="255.5" y="222.1" class="st5" width="52.6" height="1"/>
<rect x="263.3" y="211.1" class="st5" width="1.1" height="1"/>
<rect x="261.1" y="211.1" class="st5" width="1.1" height="1"/>
<rect x="258.9" y="211.1" class="st5" width="1.1" height="1"/>
<rect x="256.6" y="211.1" class="st5" width="1.1" height="1"/>
<rect x="265.6" y="211.1" class="st5" width="1.1" height="1"/>
<rect x="267.8" y="211.1" class="st5" width="1.1" height="1"/>
<rect x="270.1" y="211.1" class="st5" width="1.1" height="1"/>
<rect x="272.3" y="211.1" class="st5" width="1.1" height="1"/>
<rect x="274.5" y="211.1" class="st5" width="1.1" height="1"/>
<rect x="276.8" y="211.1" class="st5" width="1.1" height="1"/>
<rect x="279" y="211.1" class="st5" width="1.1" height="1"/>
<rect x="281.3" y="211.1" class="st5" width="1.1" height="1"/>
<rect x="283.5" y="211.1" class="st5" width="1.1" height="1"/>
<rect x="285.7" y="211.1" class="st5" width="1.1" height="1"/>
<rect x="288" y="211.1" class="st5" width="1.1" height="1"/>
<rect x="290.2" y="211.1" class="st5" width="1.1" height="1"/>
<rect x="292.4" y="211.1" class="st5" width="1.1" height="1"/>
<rect x="294.7" y="211.1" class="st5" width="1.1" height="1"/>
<rect x="296.9" y="211.1" class="st5" width="1.1" height="1"/>
<rect x="299.2" y="211.1" class="st5" width="1.1" height="1"/>
<rect x="301.4" y="211.1" class="st5" width="1.1" height="1"/>
<rect x="303.6" y="211.1" class="st5" width="1.1" height="1"/>
<rect x="305.9" y="211.1" class="st5" width="1.1" height="1"/>
<rect x="275.7" y="191.1" class="st5" width="1.1" height="19"/>
<rect x="286.8" y="191.1" class="st5" width="1.1" height="19"/>
<rect x="281.3" y="191.1" class="st5" width="1.1" height="19"/>
<rect x="263.3" y="213.1" class="st5" width="1.1" height="11"/>
<rect x="249.9" y="184.1" class="st5" width="5.6" height="103"/>
<rect x="272.3" y="213.1" class="st5" width="1.1" height="11"/>
<rect x="281.3" y="213.1" class="st5" width="1.1" height="11"/>
<rect x="290.2" y="213.1" class="st5" width="1.1" height="11"/>
<rect x="299.2" y="213.1" class="st5" width="1.1" height="11"/>
<path class="st7" d="M259.4,213.1c-2.1,0-3.9,1.3-3.9,3h7.8C263.3,214.4,261.6,213.1,259.4,213.1z"/>
<path class="st7" d="M268.4,213.1c-2.1,0-3.9,1.3-3.9,3h7.8C272.3,214.4,270.5,213.1,268.4,213.1z"/>
<path class="st7" d="M277.3,213.1c-2.1,0-3.9,1.3-3.9,3h7.8C281.3,214.4,279.5,213.1,277.3,213.1z"/>
<path class="st7" d="M286.3,213.1c-2.1,0-3.9,1.3-3.9,3h7.8C290.2,214.4,288.4,213.1,286.3,213.1z"/>
<path class="st7" d="M295.2,213.1c-2.1,0-3.9,1.3-3.9,3h7.8C299.2,214.4,297.4,213.1,295.2,213.1z"/>
<path class="st7" d="M304.2,213.1c-2.1,0-3.9,1.3-3.9,3h7.8C308.1,214.4,306.3,213.1,304.2,213.1z"/>
<rect x="271.2" y="190.1" class="st5" width="21.3" height="1"/>
<ellipse class="st5" cx="252.7" cy="184.6" rx="2.8" ry="2.5"/>
<polygon class="st5" points="253.3,165.1 252.2,165.1 249.9,184.1 255.5,184.1 "/>
<rect x="251" y="186.7" class="st2" width="1.1" height="55.4"/>
<rect x="253.3" y="186.7" class="st2" width="1.1" height="55.4"/>
<rect x="249.9" y="210.1" class="st5" width="5.6" height="1"/>
<rect x="249.9" y="197.1" class="st5" width="5.6" height="1"/>
<rect x="249.9" y="184.1" class="st5" width="5.6" height="1"/>
<path class="st5" d="M282.5,177.1h-1.2c-6.6,2.8-11,7.6-11,13h11h1.2h11C293.5,184.7,289.1,179.9,282.5,177.1z"/>
<path class="st7" d="M282.4,178.1h-1.1c-6,2.6-10.1,7-10.1,12h10.1h1.1h10.1C292.4,185.1,288.4,180.7,282.4,178.1z"/>
<rect x="276.8" y="239.1" class="st5" width="10.1" height="10"/>
<rect x="277.9" y="239.1" class="st2" width="7.8" height="10"/>
<path class="st5" d="M282,234.1h-0.6c-2.9,1.3-4.8,4-4.8,5h4.8h0.6h4.8C286.8,238.1,284.9,235.4,282,234.1z"/>
<path class="st2" d="M282,235.1h-0.4c-2.2,1-3.7,3-3.7,4h3.7h0.4h3.7C285.7,238.1,284.3,236.1,282,235.1z"/>
<rect x="273.4" y="258.1" class="st7" width="16.8" height="31"/>
<rect x="275.7" y="249.1" class="st5" width="12.3" height="1"/>
<rect x="277.9" y="250.1" class="st5" width="1.1" height="2"/>
<rect x="280.1" y="250.1" class="st5" width="1.1" height="2"/>
<rect x="282.4" y="250.1" class="st5" width="1.1" height="2"/>
<rect x="284.6" y="250.1" class="st5" width="1.1" height="2"/>
<rect x="279" y="253.1" class="st5" width="5.6" height="5"/>
<rect x="273.4" y="256.1" class="st2" width="16.8" height="2"/>
<rect x="271.2" y="258.1" class="st2" width="2.2" height="31"/>
<rect x="290.2" y="258.1" class="st2" width="2.2" height="31"/>
<rect x="294.7" y="248.1" class="st7" width="3.4" height="41"/>
<polygon class="st7" points="298,248.1 294.7,248.1 295.8,239.1 296.9,239.1 "/>
<rect x="274.5" y="248.1" class="st5" width="2.2" height="1"/>
<rect x="274.5" y="249.1" class="st5" width="1.1" height="5"/>
<rect x="286.8" y="248.1" class="st5" width="2.2" height="1"/>
<rect x="288" y="249.1" class="st5" width="1.1" height="5"/>
<rect x="275.7" y="250.1" class="st7" width="1.1" height="2"/>
<rect x="275.7" y="250.1" class="st5" width="1.1" height="2"/>
<rect x="286.8" y="250.1" class="st5" width="1.1" height="2"/>
<rect x="281.3" y="253.1" class="st7" width="1.1" height="1"/>
<path class="st2" d="M273.4,256.1c-1.2,0-2.2,0.9-2.2,2h2.2V256.1z"/>
<path class="st2" d="M290.2,256.1c1.2,0,2.2,0.9,2.2,2h-2.2V256.1z"/>
<rect x="265.6" y="248.1" class="st7" width="3.4" height="41"/>
<polygon class="st7" points="268.9,248.1 265.6,248.1 266.7,239.1 267.8,239.1 "/>
<rect x="275.7" y="252.1" class="st5" width="12.3" height="1"/>
<rect x="249.9" y="242.1" class="st7" width="5.6" height="1"/>
<rect x="308.1" y="184.1" class="st5" width="5.6" height="103"/>
<ellipse class="st5" cx="310.9" cy="184.6" rx="2.8" ry="2.5"/>
<polygon class="st5" points="311.5,165.1 310.4,165.1 308.1,184.1 313.7,184.1 "/>
<rect x="309.2" y="186.7" class="st2" width="1.1" height="55.4"/>
<rect x="311.5" y="186.7" class="st2" width="1.1" height="55.4"/>
<rect x="308.1" y="210.1" class="st5" width="5.6" height="1"/>
<rect x="308.1" y="197.1" class="st5" width="5.6" height="1"/>
<rect x="308.1" y="184.1" class="st5" width="5.6" height="1"/>
<ellipse class="st5" cx="316.5" cy="165.6" rx="2.8" ry="2.5"/>
<polygon class="st5" points="317.1,146.1 315.9,146.1 313.7,165.1 319.3,165.1 "/>
<rect x="314.8" y="167.7" class="st2" width="1.1" height="55.4"/>
<rect x="317.1" y="167.7" class="st2" width="1.1" height="55.4"/>
<rect x="313.7" y="210.1" class="st5" width="5.6" height="1"/>
<rect x="313.7" y="197.1" class="st5" width="5.6" height="1"/>
<rect x="313.7" y="165.1" class="st5" width="5.6" height="1"/>
<rect x="308.1" y="242.1" class="st7" width="5.6" height="1"/>
<rect x="249.9" y="268.1" class="st5" width="5.6" height="19"/>
<rect x="308.1" y="268.1" class="st5" width="5.6" height="19"/>
<rect x="251" y="243.1" class="st2" width="3.4" height="25"/>
<rect x="309.2" y="243.1" class="st2" width="3.4" height="25"/>
<ellipse class="st7" cx="281.8" cy="123.1" rx="5" ry="4.5"/>
<rect x="262.2" y="137.1" class="st5" width="39.2" height="1"/>
<rect x="313.7" y="222.1" class="st5" width="17.9" height="1"/>
<rect x="330.5" y="213.1" class="st5" width="1.1" height="11"/>
<rect x="321.5" y="215.1" class="st5" width="1.1" height="9"/>
<rect x="281.3" y="108.1" class="st2" width="1.1" height="3"/>
<rect x="277.9" y="108.1" class="st2" width="7.8" height="1"/>
<rect x="277.9" y="106.1" class="st2" width="7.8" height="1"/>
<rect x="279" y="104.1" class="st2" width="5.6" height="8"/>
<polygon class="st5" points="336.1,283.1 330.5,287.1 330.5,163.1 336.1,163.1 "/>
<rect x="331.6" y="186.7" class="st2" width="1.1" height="55.4"/>
<rect x="333.9" y="186.7" class="st2" width="1.1" height="55.4"/>
<rect x="330.5" y="210.1" class="st5" width="5.6" height="1"/>
<rect x="330.5" y="197.1" class="st5" width="5.6" height="1"/>
<rect x="330.5" y="184.1" class="st5" width="5.6" height="1"/>
<rect x="330.5" y="242.1" class="st7" width="5.6" height="1"/>
<rect x="330.5" y="268.1" class="st5" width="5.6" height="19"/>
<rect x="331.6" y="243.1" class="st2" width="3.4" height="25"/>
<rect x="320.4" y="201.1" class="st7" width="9" height="15"/>
<ellipse class="st7" cx="324.9" cy="201.1" rx="4.5" ry="4"/>
<rect x="319.3" y="190.1" class="st7" width="11.2" height="1"/>
<rect x="320.4" y="191.1" class="st7" width="1.1" height="3"/>
<rect x="321.5" y="191.1" class="st7" width="1.1" height="3"/>
<rect x="323.8" y="191.1" class="st7" width="1.1" height="3"/>
<rect x="319.3" y="194.1" class="st7" width="11.2" height="1"/>
<rect x="324.9" y="191.1" class="st7" width="1.1" height="3"/>
<rect x="327.1" y="191.1" class="st7" width="1.1" height="3"/>
<rect x="328.3" y="191.1" class="st7" width="1.1" height="3"/>
<rect x="319.3" y="188.1" class="st7" width="11.2" height="1"/>
<rect x="320.4" y="187.1" class="st7" width="1.1" height="1"/>
<rect x="322.7" y="187.1" class="st7" width="1.1" height="1"/>
<rect x="324.9" y="187.1" class="st7" width="1.1" height="1"/>
<rect x="327.1" y="187.1" class="st7" width="1.1" height="1"/>
<rect x="331.6" y="158.1" class="st5" width="3.4" height="7"/>
<rect x="331.6" y="164.1" class="st2" width="3.4" height="19"/>
<rect x="361.8" y="163.1" class="st5" width="5.6" height="120"/>
<rect x="363" y="186.7" class="st2" width="1.1" height="55.4"/>
<rect x="365.2" y="186.7" class="st2" width="1.1" height="55.4"/>
<rect x="361.8" y="210.1" class="st5" width="5.6" height="1"/>
<rect x="361.8" y="197.1" class="st5" width="5.6" height="1"/>
<rect x="361.8" y="184.1" class="st5" width="5.6" height="1"/>
<rect x="361.8" y="242.1" class="st7" width="5.6" height="1"/>
<rect x="361.8" y="268.1" class="st5" width="5.6" height="15"/>
<rect x="363" y="243.1" class="st2" width="3.4" height="25"/>
<rect x="363" y="158.1" class="st5" width="3.4" height="7"/>
<rect x="363" y="164.1" class="st2" width="3.4" height="19"/>
<rect x="233.1" y="176.1" class="st5" width="11.2" height="12"/>
<ellipse class="st5" cx="238.7" cy="176.1" rx="5.6" ry="5"/>
<rect x="234.2" y="176.1" class="st7" width="9" height="12"/>
<ellipse class="st7" cx="238.7" cy="176.1" rx="4.5" ry="4"/>
<rect x="233.1" y="201.4" class="st5" width="11.2" height="14.7"/>
<ellipse class="st5" cx="238.7" cy="201.1" rx="5.6" ry="5"/>
<rect x="233.1" y="260.1" class="st5" width="16.8" height="27"/>
<path class="st5" d="M241.1,251.1h0.9c4.8,3,7.9,6,7.9,9H242h-0.9h-7.9C233.1,257.1,236.3,254.1,241.1,251.1z"/>
<rect x="244.3" y="165.1" class="st5" width="5.6" height="58"/>
<ellipse class="st5" cx="247.1" cy="165.6" rx="2.8" ry="2.5"/>
<polygon class="st5" points="246.6,146.1 247.7,146.1 249.9,165.1 244.3,165.1 "/>
<rect x="247.7" y="167.7" class="st2" width="1.1" height="55.4"/>
<rect x="245.4" y="167.7" class="st2" width="1.1" height="55.4"/>
<rect x="244.3" y="210.1" class="st5" width="5.6" height="1"/>
<rect x="244.3" y="197.1" class="st5" width="5.6" height="1"/>
<rect x="244.3" y="165.1" class="st5" width="5.6" height="1"/>
<rect x="232" y="222.1" class="st5" width="17.9" height="1"/>
<rect x="232" y="213.1" class="st5" width="1.1" height="11"/>
<rect x="241" y="215.1" class="st5" width="1.1" height="9"/>
<rect x="236.5" y="234.1" class="st5" width="10.1" height="14"/>
<path class="st5" d="M241.3,229.1h0.6c2.9,1.3,4.8,4,4.8,5h-4.8h-0.6h-4.8C236.5,233.1,238.4,230.4,241.3,229.1z"/>
<rect x="317.1" y="234.1" class="st5" width="10.1" height="14"/>
<path class="st5" d="M322.3,229.1h-0.6c-2.9,1.3-4.8,4-4.8,5h4.8h0.6h4.8C327.1,233.1,325.2,230.4,322.3,229.1z"/>
<rect x="318.2" y="234.1" class="st7" width="7.8" height="13"/>
<path class="st7" d="M322.3,230.1h-0.4c-2.2,1.2-3.7,4-3.7,4h3.7h0.4h3.7C326,234.1,324.6,231.2,322.3,230.1z"/>
<rect x="236.5" y="235.1" class="st5" width="10.1" height="13"/>
<path class="st7" d="M322.4,252.1h-0.8c-4.1,3-6.9,6-6.9,9v26h14.5v-26C329.4,258.1,326.7,255.1,322.4,252.1z"/>
<path class="st7" d="M241.9,252.1h-0.8c-4.1,3-6.9,6-6.9,9v26h14.5v-26C248.8,258.1,246.1,255.1,241.9,252.1z"/>
<rect x="227.5" y="163.1" class="st5" width="5.6" height="124"/>
<rect x="230.9" y="186.7" class="st2" width="1.1" height="55.4"/>
<rect x="228.7" y="186.7" class="st2" width="1.1" height="55.4"/>
<rect x="227.5" y="210.1" class="st5" width="5.6" height="1"/>
<rect x="227.5" y="197.1" class="st5" width="5.6" height="1"/>
<rect x="227.5" y="184.1" class="st5" width="5.6" height="1"/>
<rect x="227.5" y="242.1" class="st7" width="5.6" height="1"/>
<rect x="227.5" y="268.1" class="st5" width="5.6" height="19"/>
<rect x="228.7" y="243.1" class="st2" width="3.4" height="25"/>
<rect x="234.2" y="201.1" class="st7" width="9" height="15"/>
<ellipse class="st7" cx="238.7" cy="201.1" rx="4.5" ry="4"/>
<rect x="233.1" y="190.1" class="st7" width="11.2" height="1"/>
<rect x="242.1" y="191.1" class="st7" width="1.1" height="3"/>
<rect x="241" y="191.1" class="st7" width="1.1" height="3"/>
<rect x="238.7" y="191.1" class="st7" width="1.1" height="3"/>
<rect x="233.1" y="194.1" class="st7" width="11.2" height="1"/>
<rect x="237.6" y="191.1" class="st7" width="1.1" height="3"/>
<rect x="235.4" y="191.1" class="st7" width="1.1" height="3"/>
<rect x="234.2" y="191.1" class="st7" width="1.1" height="3"/>
<rect x="233.1" y="188.1" class="st7" width="11.2" height="1"/>
<rect x="242.1" y="187.1" class="st7" width="1.1" height="1"/>
<rect x="239.8" y="187.1" class="st7" width="1.1" height="1"/>
<rect x="237.6" y="187.1" class="st7" width="1.1" height="1"/>
<rect x="235.4" y="187.1" class="st7" width="1.1" height="1"/>
<rect x="228.7" y="158.1" class="st5" width="3.4" height="7"/>
<rect x="228.7" y="164.1" class="st2" width="3.4" height="19"/>
<rect x="225.3" y="104.1" class="st11" width="1.1" height="1"/>
<ellipse class="st7" cx="276.2" cy="132.1" rx="5" ry="4.5"/>
<ellipse class="st7" cx="287.4" cy="132.1" rx="5" ry="4.5"/>
<rect x="275.7" y="111.1" class="st2" width="3.4" height="3"/>
<rect x="273.4" y="115.1" class="st2" width="3.4" height="3"/>
<rect x="271.2" y="119.1" class="st2" width="3.4" height="3"/>
<rect x="268.9" y="123.1" class="st2" width="3.4" height="3"/>
<rect x="266.7" y="127.1" class="st2" width="3.4" height="3"/>
<rect x="264.5" y="131.1" class="st2" width="3.4" height="3"/>
<rect x="262.2" y="135.1" class="st2" width="3.4" height="3"/>
<rect x="260" y="139.1" class="st2" width="3.4" height="3"/>
<rect x="257.7" y="143.1" class="st2" width="3.4" height="3"/>
<rect x="255.5" y="147.1" class="st2" width="3.4" height="3"/>
<rect x="253.3" y="151.1" class="st2" width="3.4" height="3"/>
<rect x="251" y="155.1" class="st2" width="3.4" height="3"/>
<rect x="284.6" y="111.1" class="st2" width="3.4" height="3"/>
<rect x="286.8" y="115.1" class="st2" width="3.4" height="3"/>
<rect x="289.1" y="119.1" class="st2" width="3.4" height="3"/>
<rect x="291.3" y="123.1" class="st2" width="3.4" height="3"/>
<rect x="293.6" y="127.1" class="st2" width="3.4" height="3"/>
<rect x="295.8" y="131.1" class="st2" width="3.4" height="3"/>
<rect x="298" y="135.1" class="st2" width="3.4" height="3"/>
<rect x="300.3" y="139.1" class="st2" width="3.4" height="3"/>
<rect x="302.5" y="143.1" class="st2" width="3.4" height="3"/>
<rect x="304.8" y="147.1" class="st2" width="3.4" height="3"/>
<rect x="307" y="151.1" class="st2" width="3.4" height="3"/>
<rect x="309.2" y="155.1" class="st2" width="3.4" height="3"/>
<rect x="227.5" y="170.1" class="st5" width="134.3" height="1"/>
<polygon class="st7" points="272.3,166.1 272.3,165.1 270.1,165.1 270.1,166.1 268.9,166.1 268.9,168.1 270.1,168.1 270.1,169.1 
	272.3,169.1 272.3,168.1 273.4,168.1 273.4,166.1 "/>
<polygon class="st7" points="277.9,166.1 277.9,165.1 275.7,165.1 275.7,166.1 274.5,166.1 274.5,168.1 275.7,168.1 275.7,169.1 
	277.9,169.1 277.9,168.1 279,168.1 279,166.1 "/>
<polygon class="st7" points="288,166.1 288,165.1 285.7,165.1 285.7,166.1 284.6,166.1 284.6,168.1 285.7,168.1 285.7,169.1 
	288,169.1 288,168.1 289.1,168.1 289.1,166.1 "/>
<polygon class="st7" points="293.6,166.1 293.6,165.1 291.3,165.1 291.3,166.1 290.2,166.1 290.2,168.1 291.3,168.1 291.3,169.1 
	293.6,169.1 293.6,168.1 294.7,168.1 294.7,166.1 "/>
<polygon class="st7" points="257.7,166.1 257.7,165.1 255.5,165.1 255.5,166.1 254.4,166.1 254.4,168.1 255.5,168.1 255.5,169.1 
	257.7,169.1 257.7,168.1 258.9,168.1 258.9,166.1 "/>
<polygon class="st7" points="263.3,166.1 263.3,165.1 261.1,165.1 261.1,166.1 260,166.1 260,168.1 261.1,168.1 261.1,169.1 
	263.3,169.1 263.3,168.1 264.5,168.1 264.5,166.1 "/>
<polygon class="st7" points="322.7,166.1 322.7,165.1 320.4,165.1 320.4,166.1 319.3,166.1 319.3,168.1 320.4,168.1 320.4,169.1 
	322.7,169.1 322.7,168.1 323.8,168.1 323.8,166.1 "/>
<polygon class="st7" points="328.3,166.1 328.3,165.1 326,165.1 326,166.1 324.9,166.1 324.9,168.1 326,168.1 326,169.1 
	328.3,169.1 328.3,168.1 329.4,168.1 329.4,166.1 "/>
<polygon class="st7" points="237.6,166.1 237.6,165.1 235.4,165.1 235.4,166.1 234.2,166.1 234.2,168.1 235.4,168.1 235.4,169.1 
	237.6,169.1 237.6,168.1 238.7,168.1 238.7,166.1 "/>
<polygon class="st7" points="243.2,166.1 243.2,165.1 241,165.1 241,166.1 239.8,166.1 239.8,168.1 241,168.1 241,169.1 
	243.2,169.1 243.2,168.1 244.3,168.1 244.3,166.1 "/>
<polygon class="st7" points="260,219.1 260,218.1 258.9,218.1 258.9,219.1 257.7,219.1 257.7,220.1 258.9,220.1 258.9,221.1 
	260,221.1 260,220.1 261.1,220.1 261.1,219.1 "/>
<polygon class="st7" points="268.9,219.1 268.9,218.1 267.8,218.1 267.8,219.1 266.7,219.1 266.7,220.1 267.8,220.1 267.8,221.1 
	268.9,221.1 268.9,220.1 270.1,220.1 270.1,219.1 "/>
<polygon class="st7" points="277.9,219.1 277.9,218.1 276.8,218.1 276.8,219.1 275.7,219.1 275.7,220.1 276.8,220.1 276.8,221.1 
	277.9,221.1 277.9,220.1 279,220.1 279,219.1 "/>
<polygon class="st7" points="286.8,219.1 286.8,218.1 285.7,218.1 285.7,219.1 284.6,219.1 284.6,220.1 285.7,220.1 285.7,221.1 
	286.8,221.1 286.8,220.1 288,220.1 288,219.1 "/>
<polygon class="st7" points="295.8,219.1 295.8,218.1 294.7,218.1 294.7,219.1 293.6,219.1 293.6,220.1 294.7,220.1 294.7,221.1 
	295.8,221.1 295.8,220.1 296.9,220.1 296.9,219.1 "/>
<polygon class="st7" points="304.8,219.1 304.8,218.1 303.6,218.1 303.6,219.1 302.5,219.1 302.5,220.1 303.6,220.1 303.6,221.1 
	304.8,221.1 304.8,220.1 305.9,220.1 305.9,219.1 "/>
<rect x="237.6" y="234.1" class="st7" width="7.8" height="13"/>
<path class="st7" d="M241.7,230.1h-0.4c-2.2,1.2-3.7,4-3.7,4h3.7h0.4h3.7C245.4,234.1,244,231.2,241.7,230.1z"/>
<polygon class="st7" points="327.1,219.1 327.1,218.1 326,218.1 326,219.1 324.9,219.1 324.9,220.1 326,220.1 326,221.1 
	327.1,221.1 327.1,220.1 328.3,220.1 328.3,219.1 "/>
<polygon class="st7" points="237.6,219.1 237.6,218.1 236.5,218.1 236.5,219.1 235.4,219.1 235.4,220.1 236.5,220.1 236.5,221.1 
	237.6,221.1 237.6,220.1 238.7,220.1 238.7,219.1 "/>
<rect x="216.3" y="90.1" class="st2" width="11.2" height="193"/>
<rect x="183.9" y="90.1" class="st2" width="30.2" height="193"/>
<rect x="194" y="196.1" class="st5" width="10.1" height="14"/>
<path class="st5" d="M198.8,191.1h0.6c2.9,1.3,4.8,4,4.8,5h-4.8h-0.6H194C194,195.1,195.9,192.4,198.8,191.1z"/>
<rect x="195.1" y="196.1" class="st7" width="7.8" height="13"/>
<path class="st7" d="M199.2,192.1h-0.4c-2.2,1.2-3.7,4-3.7,4h3.7h0.4h3.7C202.9,196.1,201.5,193.2,199.2,192.1z"/>
<rect x="208.5" y="215.1" class="st5" width="5.6" height="68"/>
<rect x="209.6" y="216.1" class="st2" width="3.4" height="52"/>
<polygon class="st5" points="211.9,196.1 210.7,196.1 208.5,215.1 214.1,215.1 "/>
<rect x="208.5" y="216.1" class="st5" width="5.6" height="1"/>
<rect x="208.5" y="215.1" class="st5" width="5.6" height="1"/>
<rect x="208.5" y="242.1" class="st7" width="5.6" height="1"/>
<rect x="208.5" y="268.1" class="st5" width="5.6" height="15"/>
<rect x="183.9" y="215.1" class="st5" width="5.6" height="68"/>
<rect x="185" y="216.1" class="st2" width="3.4" height="52"/>
<polygon class="st5" points="187.2,196.1 186.1,196.1 183.9,215.1 189.5,215.1 "/>
<rect x="183.9" y="216.1" class="st5" width="5.6" height="1"/>
<rect x="183.9" y="215.1" class="st5" width="5.6" height="1"/>
<rect x="183.9" y="242.1" class="st7" width="5.6" height="1"/>
<rect x="183.9" y="268.1" class="st5" width="5.6" height="15"/>
<rect x="170.5" y="90.1" class="st2" width="11.2" height="193"/>
<rect x="181.6" y="92.1" class="st5" width="2.2" height="191"/>
<rect x="214.1" y="92.1" class="st5" width="2.2" height="191"/>
<path class="st5" d="M199.4,233.1h-0.9c-4.8,3-7.9,6-7.9,9v41h16.8v-41C207.4,239.1,204.3,236.1,199.4,233.1z"/>
<rect x="188.4" y="240.1" class="st3" width="11.2" height="43"/>
<polygon class="st3" points="199.6,240.1 188.4,240.1 193.3,234.1 "/>
<rect x="186.1" y="240.1" class="st5" width="2.2" height="43"/>
<polygon class="st5" points="188.4,240.1 186.1,240.1 193.3,234.1 "/>
<rect x="190.6" y="261.1" class="st7" width="6.7" height="22"/>
<rect x="194" y="168.1" class="st5" width="10.1" height="14"/>
<path class="st5" d="M198.8,163.1h0.6c2.9,1.3,4.8,4,4.8,5h-4.8h-0.6H194C194,167.1,195.9,164.4,198.8,163.1z"/>
<rect x="195.1" y="168.1" class="st7" width="7.8" height="13"/>
<path class="st7" d="M199.2,164.1h-0.4c-2.2,1.2-3.7,4-3.7,4h3.7h0.4h3.7C202.9,168.1,201.5,165.2,199.2,164.1z"/>
<rect x="171.6" y="196.1" class="st5" width="7.8" height="14"/>
<path class="st5" d="M175.7,191.1h-0.4c-2.2,1.3-3.7,4-3.7,5h3.7h0.4h3.7C179.4,195.1,178,192.4,175.7,191.1z"/>
<rect x="172.7" y="196.1" class="st7" width="5.6" height="13"/>
<path class="st7" d="M175.4,192.1h0.3c1.6,1,2.7,4,2.7,4h-2.7h-0.3h-2.7C172.7,196.1,173.7,193.1,175.4,192.1z"/>
<rect x="171.6" y="168.1" class="st5" width="7.8" height="14"/>
<path class="st5" d="M175.7,163.1h-0.4c-2.2,1.3-3.7,4-3.7,5h3.7h0.4h3.7C179.4,167.1,178,164.4,175.7,163.1z"/>
<rect x="172.7" y="168.1" class="st7" width="5.6" height="13"/>
<path class="st7" d="M175.4,164.1h0.3c1.6,1,2.7,4,2.7,4h-2.7h-0.3h-2.7C172.7,168.1,173.7,165.1,175.4,164.1z"/>
<rect x="218.6" y="196.1" class="st5" width="7.8" height="14"/>
<path class="st5" d="M222.3,191.1h0.4c2.2,1.3,3.7,4,3.7,5h-3.7h-0.4h-3.7C218.6,195.1,220,192.4,222.3,191.1z"/>
<rect x="219.7" y="196.1" class="st7" width="5.6" height="13"/>
<path class="st7" d="M222.6,192.1h-0.3c-1.6,1-2.7,4-2.7,4h2.7h0.3h2.7C225.3,196.1,224.3,193.1,222.6,192.1z"/>
<rect x="218.6" y="168.1" class="st5" width="7.8" height="14"/>
<path class="st5" d="M222.3,163.1h0.4c2.2,1.3,3.7,4,3.7,5h-3.7h-0.4h-3.7C218.6,167.1,220,164.4,222.3,163.1z"/>
<rect x="219.7" y="168.1" class="st7" width="5.6" height="13"/>
<path class="st7" d="M222.6,164.1h-0.3c-1.6,1-2.7,4-2.7,4h2.7h0.3h2.7C225.3,168.1,224.3,165.1,222.6,164.1z"/>
<rect x="194" y="138.1" class="st5" width="10.1" height="14"/>
<path class="st5" d="M198.8,133.1h0.6c2.9,1.3,4.8,4,4.8,5h-4.8h-0.6H194C194,137.1,195.9,134.4,198.8,133.1z"/>
<rect x="195.1" y="138.1" class="st7" width="7.8" height="13"/>
<path class="st7" d="M199.2,134.1h-0.4c-2.2,1.2-3.7,4-3.7,4h3.7h0.4h3.7C202.9,138.1,201.5,135.2,199.2,134.1z"/>
<rect x="194" y="110.1" class="st5" width="10.1" height="14"/>
<path class="st5" d="M198.8,105.1h0.6c2.9,1.3,4.8,4,4.8,5h-4.8h-0.6H194C194,109.1,195.9,106.4,198.8,105.1z"/>
<rect x="195.1" y="110.1" class="st7" width="7.8" height="13"/>
<path class="st7" d="M199.2,106.1h-0.4c-2.2,1.2-3.7,4-3.7,4h3.7h0.4h3.7C202.9,110.1,201.5,107.2,199.2,106.1z"/>
<rect x="171.6" y="138.1" class="st5" width="7.8" height="14"/>
<path class="st5" d="M175.7,133.1h-0.4c-2.2,1.3-3.7,4-3.7,5h3.7h0.4h3.7C179.4,137.1,178,134.4,175.7,133.1z"/>
<rect x="172.7" y="138.1" class="st7" width="5.6" height="13"/>
<path class="st7" d="M175.4,134.1h0.3c1.6,1,2.7,4,2.7,4h-2.7h-0.3h-2.7C172.7,138.1,173.7,135.1,175.4,134.1z"/>
<rect x="171.6" y="110.1" class="st5" width="7.8" height="14"/>
<path class="st5" d="M175.7,105.1h-0.4c-2.2,1.3-3.7,4-3.7,5h3.7h0.4h3.7C179.4,109.1,178,106.4,175.7,105.1z"/>
<rect x="172.7" y="110.1" class="st7" width="5.6" height="13"/>
<path class="st7" d="M175.4,106.1h0.3c1.6,1,2.7,4,2.7,4h-2.7h-0.3h-2.7C172.7,110.1,173.7,107.1,175.4,106.1z"/>
<rect x="218.6" y="138.1" class="st5" width="7.8" height="14"/>
<path class="st5" d="M222.3,133.1h0.4c2.2,1.3,3.7,4,3.7,5h-3.7h-0.4h-3.7C218.6,137.1,220,134.4,222.3,133.1z"/>
<rect x="219.7" y="138.1" class="st7" width="5.6" height="13"/>
<path class="st7" d="M222.6,134.1h-0.3c-1.6,1-2.7,4-2.7,4h2.7h0.3h2.7C225.3,138.1,224.3,135.1,222.6,134.1z"/>
<rect x="218.6" y="110.1" class="st5" width="7.8" height="14"/>
<path class="st5" d="M222.3,105.1h0.4c2.2,1.3,3.7,4,3.7,5h-3.7h-0.4h-3.7C218.6,109.1,220,106.4,222.3,105.1z"/>
<rect x="219.7" y="110.1" class="st7" width="5.6" height="13"/>
<path class="st7" d="M222.6,106.1h-0.3c-1.6,1-2.7,4-2.7,4h2.7h0.3h2.7C225.3,110.1,224.3,107.1,222.6,106.1z"/>
<path class="st3" d="M191.7,75.1c-3.7,0-6.7,2.7-6.7,6v3h13.4v-3C198.4,77.8,195.4,75.1,191.7,75.1z"/>
<path class="st3" d="M206.3,75.1c-3.7,0-6.7,2.7-6.7,6v3H213v-3C213,77.8,210,75.1,206.3,75.1z"/>
<rect x="169.3" y="185.1" class="st5" width="58.2" height="1"/>
<rect x="170.5" y="186.1" class="st5" width="1.1" height="2"/>
<rect x="172.7" y="186.1" class="st5" width="1.1" height="2"/>
<rect x="174.9" y="186.1" class="st5" width="1.1" height="2"/>
<rect x="177.2" y="186.1" class="st5" width="1.1" height="2"/>
<rect x="179.4" y="186.1" class="st5" width="1.1" height="2"/>
<rect x="217.5" y="186.1" class="st5" width="1.1" height="2"/>
<rect x="219.7" y="186.1" class="st5" width="1.1" height="2"/>
<rect x="221.9" y="186.1" class="st5" width="1.1" height="2"/>
<rect x="224.2" y="186.1" class="st5" width="1.1" height="2"/>
<rect x="226.4" y="186.1" class="st5" width="1.1" height="2"/>
<rect x="185" y="186.1" class="st5" width="1.1" height="2"/>
<rect x="187.2" y="186.1" class="st5" width="1.1" height="2"/>
<rect x="189.5" y="186.1" class="st5" width="1.1" height="2"/>
<rect x="191.7" y="186.1" class="st5" width="1.1" height="2"/>
<rect x="194" y="186.1" class="st5" width="1.1" height="2"/>
<rect x="196.2" y="186.1" class="st5" width="1.1" height="2"/>
<rect x="198.4" y="186.1" class="st5" width="1.1" height="2"/>
<rect x="200.7" y="186.1" class="st5" width="1.1" height="2"/>
<rect x="202.9" y="186.1" class="st5" width="1.1" height="2"/>
<rect x="205.1" y="186.1" class="st5" width="1.1" height="2"/>
<rect x="207.4" y="186.1" class="st5" width="1.1" height="2"/>
<rect x="209.6" y="186.1" class="st5" width="1.1" height="2"/>
<rect x="211.9" y="186.1" class="st5" width="1.1" height="2"/>
<rect x="169.3" y="155.1" class="st5" width="59.3" height="1"/>
<rect x="170.5" y="156.1" class="st5" width="1.1" height="2"/>
<rect x="172.7" y="156.1" class="st5" width="1.1" height="2"/>
<rect x="174.9" y="156.1" class="st5" width="1.1" height="2"/>
<rect x="177.2" y="156.1" class="st5" width="1.1" height="2"/>
<rect x="179.4" y="156.1" class="st5" width="1.1" height="2"/>
<rect x="217.5" y="156.1" class="st5" width="1.1" height="2"/>
<rect x="219.7" y="156.1" class="st5" width="1.1" height="2"/>
<rect x="221.9" y="156.1" class="st5" width="1.1" height="2"/>
<rect x="224.2" y="156.1" class="st5" width="1.1" height="2"/>
<rect x="226.4" y="156.1" class="st5" width="1.1" height="2"/>
<rect x="185" y="156.1" class="st5" width="1.1" height="2"/>
<rect x="187.2" y="156.1" class="st5" width="1.1" height="2"/>
<rect x="189.5" y="156.1" class="st5" width="1.1" height="2"/>
<rect x="191.7" y="156.1" class="st5" width="1.1" height="2"/>
<rect x="194" y="156.1" class="st5" width="1.1" height="2"/>
<rect x="196.2" y="156.1" class="st5" width="1.1" height="2"/>
<rect x="198.4" y="156.1" class="st5" width="1.1" height="2"/>
<rect x="200.7" y="156.1" class="st5" width="1.1" height="2"/>
<rect x="202.9" y="156.1" class="st5" width="1.1" height="2"/>
<rect x="205.1" y="156.1" class="st5" width="1.1" height="2"/>
<rect x="207.4" y="156.1" class="st5" width="1.1" height="2"/>
<rect x="209.6" y="156.1" class="st5" width="1.1" height="2"/>
<rect x="211.9" y="156.1" class="st5" width="1.1" height="2"/>
<rect x="169.3" y="127.1" class="st5" width="59.3" height="1"/>
<rect x="170.5" y="128.1" class="st5" width="1.1" height="2"/>
<rect x="172.7" y="128.1" class="st5" width="1.1" height="2"/>
<rect x="174.9" y="128.1" class="st5" width="1.1" height="2"/>
<rect x="177.2" y="128.1" class="st5" width="1.1" height="2"/>
<rect x="179.4" y="128.1" class="st5" width="1.1" height="2"/>
<rect x="217.5" y="128.1" class="st5" width="1.1" height="2"/>
<rect x="219.7" y="128.1" class="st5" width="1.1" height="2"/>
<rect x="221.9" y="128.1" class="st5" width="1.1" height="2"/>
<rect x="224.2" y="128.1" class="st5" width="1.1" height="2"/>
<rect x="226.4" y="128.1" class="st5" width="1.1" height="2"/>
<rect x="185" y="128.1" class="st5" width="1.1" height="2"/>
<rect x="187.2" y="128.1" class="st5" width="1.1" height="2"/>
<rect x="189.5" y="128.1" class="st5" width="1.1" height="2"/>
<rect x="191.7" y="128.1" class="st5" width="1.1" height="2"/>
<rect x="194" y="128.1" class="st5" width="1.1" height="2"/>
<rect x="196.2" y="128.1" class="st5" width="1.1" height="2"/>
<rect x="198.4" y="128.1" class="st5" width="1.1" height="2"/>
<rect x="200.7" y="128.1" class="st5" width="1.1" height="2"/>
<rect x="202.9" y="128.1" class="st5" width="1.1" height="2"/>
<rect x="205.1" y="128.1" class="st5" width="1.1" height="2"/>
<rect x="207.4" y="128.1" class="st5" width="1.1" height="2"/>
<rect x="209.6" y="128.1" class="st5" width="1.1" height="2"/>
<rect x="211.9" y="128.1" class="st5" width="1.1" height="2"/>
<rect x="169.3" y="99.1" class="st5" width="59.3" height="1"/>
<rect x="170.5" y="100.1" class="st5" width="1.1" height="2"/>
<rect x="172.7" y="100.1" class="st5" width="1.1" height="2"/>
<rect x="174.9" y="100.1" class="st5" width="1.1" height="2"/>
<rect x="177.2" y="100.1" class="st5" width="1.1" height="2"/>
<rect x="179.4" y="100.1" class="st5" width="1.1" height="2"/>
<rect x="217.5" y="100.1" class="st5" width="1.1" height="2"/>
<rect x="219.7" y="100.1" class="st5" width="1.1" height="2"/>
<rect x="221.9" y="100.1" class="st5" width="1.1" height="2"/>
<rect x="224.2" y="100.1" class="st5" width="1.1" height="2"/>
<rect x="226.4" y="100.1" class="st5" width="1.1" height="2"/>
<rect x="185" y="100.1" class="st5" width="1.1" height="2"/>
<rect x="187.2" y="100.1" class="st5" width="1.1" height="2"/>
<rect x="189.5" y="100.1" class="st5" width="1.1" height="2"/>
<rect x="191.7" y="100.1" class="st5" width="1.1" height="2"/>
<rect x="194" y="100.1" class="st5" width="1.1" height="2"/>
<rect x="196.2" y="100.1" class="st5" width="1.1" height="2"/>
<rect x="198.4" y="100.1" class="st5" width="1.1" height="2"/>
<rect x="200.7" y="100.1" class="st5" width="1.1" height="2"/>
<rect x="202.9" y="100.1" class="st5" width="1.1" height="2"/>
<rect x="205.1" y="100.1" class="st5" width="1.1" height="2"/>
<rect x="207.4" y="100.1" class="st5" width="1.1" height="2"/>
<rect x="209.6" y="100.1" class="st5" width="1.1" height="2"/>
<rect x="211.9" y="100.1" class="st5" width="1.1" height="2"/>
<rect x="169.3" y="90.1" class="st5" width="59.3" height="2"/>
<rect x="169.3" y="84.1" class="st3" width="59.3" height="1"/>
<path class="st3" d="M220.3,75.1c-0.9,0-1.7,2.7-1.7,6v3h3.4v-3C221.9,77.8,221.2,75.1,220.3,75.1z"/>
<path class="st3" d="M224.7,75.1c-0.9,0-1.7,2.7-1.7,6v3h3.4v-3C226.4,77.8,225.6,75.1,224.7,75.1z"/>
<path class="st3" d="M173.3,75.1c-0.9,0-1.7,2.7-1.7,6v3h3.4v-3C174.9,77.8,174.1,75.1,173.3,75.1z"/>
<path class="st3" d="M177.7,75.1c-0.9,0-1.7,2.7-1.7,6v3h3.4v-3C179.4,77.8,178.6,75.1,177.7,75.1z"/>
<rect x="169.3" y="72.1" class="st3" width="59.3" height="2"/>
<rect x="185" y="41.1" class="st3" width="28" height="2"/>
<rect x="185" y="23.1" class="st3" width="28" height="2"/>
<rect x="188.4" y="25.1" class="st7" width="21.3" height="16"/>
<path class="st3" d="M199,27.1c-2.2,0-3.9,1.8-3.9,4v4h7.8v-4C202.9,28.9,201.2,27.1,199,27.1z"/>
<path class="st3" d="M206.8,27.1c-0.9,0-1.7,1.8-1.7,4v4h3.4v-4C208.5,28.9,207.7,27.1,206.8,27.1z"/>
<path class="st3" d="M191.2,27.1c-0.9,0-1.7,1.8-1.7,4v4h3.4v-4C192.8,28.9,192.1,27.1,191.2,27.1z"/>
<rect x="198.4" y="36.1" class="st9" width="1.1" height="3"/>
<rect x="197.3" y="37.1" class="st9" width="3.4" height="1"/>
<rect x="206.3" y="36.1" class="st9" width="1.1" height="3"/>
<rect x="205.1" y="37.1" class="st9" width="3.4" height="1"/>
<rect x="190.6" y="36.1" class="st9" width="1.1" height="3"/>
<rect x="189.5" y="37.1" class="st9" width="3.4" height="1"/>
<path class="st7" d="M199,13.1c-6.2,0-11.2,4.5-11.2,10h22.4C210.2,17.6,205.1,13.1,199,13.1z"/>
<rect x="198.4" y="0.1" class="st7" width="1.1" height="14"/>
<ellipse class="st3" cx="199" cy="4.6" rx="3.9" ry="3.5"/>
<rect x="194" y="4.1" class="st7" width="10.1" height="1"/>
<rect x="188.4" y="25.1" class="st9" width="21.3" height="1"/>
<circle class="st12" cx="199" cy="18.6" r="2.5"/>
<rect x="181.6" y="72.1" class="st3" width="2.2" height="22"/>
<rect x="214.1" y="72.1" class="st3" width="2.2" height="22"/>
<rect x="186.1" y="87.1" class="st9" width="11.2" height="1"/>
<rect x="187.2" y="86.1" class="st9" width="9" height="3"/>
<rect x="200.7" y="87.1" class="st9" width="11.2" height="1"/>
<rect x="201.8" y="86.1" class="st9" width="9" height="3"/>
<rect x="186.1" y="87.1" class="st9" width="11.2" height="1"/>
<rect x="187.2" y="86.1" class="st9" width="9" height="3"/>
<rect x="218.6" y="86.1" class="st9" width="3.4" height="3"/>
<rect x="223.1" y="86.1" class="st9" width="3.4" height="3"/>
<rect x="171.6" y="86.1" class="st9" width="3.4" height="3"/>
<rect x="176" y="86.1" class="st9" width="3.4" height="3"/>
<rect x="339.5" y="234.1" class="st5" width="10.1" height="14"/>
<path class="st5" d="M344.7,229.1h-0.6c-2.9,1.3-4.8,4-4.8,5h4.8h0.6h4.8C349.5,233.1,347.6,230.4,344.7,229.1z"/>
<rect x="340.6" y="234.1" class="st7" width="7.8" height="13"/>
<path class="st7" d="M344.7,230.1h-0.4c-2.2,1.2-3.7,4-3.7,4h3.7h0.4h3.7C348.4,234.1,346.9,231.2,344.7,230.1z"/>
<rect x="336.1" y="224.1" class="st5" width="26.3" height="1"/>
<rect x="337.2" y="225.1" class="st5" width="1.1" height="2"/>
<rect x="339.5" y="225.1" class="st5" width="1.1" height="2"/>
<rect x="341.7" y="225.1" class="st5" width="1.1" height="2"/>
<rect x="343.9" y="225.1" class="st5" width="1.1" height="2"/>
<rect x="346.2" y="225.1" class="st5" width="1.1" height="2"/>
<rect x="348.4" y="225.1" class="st5" width="1.1" height="2"/>
<rect x="350.6" y="225.1" class="st5" width="1.1" height="2"/>
<rect x="352.9" y="225.1" class="st5" width="1.1" height="2"/>
<rect x="355.1" y="225.1" class="st5" width="1.1" height="2"/>
<rect x="357.4" y="225.1" class="st5" width="1.1" height="2"/>
<rect x="359.6" y="225.1" class="st5" width="1.1" height="2"/>
<rect x="335.5" y="222.1" class="st5" width="26.3" height="1"/>
<rect x="339.5" y="184.1" class="st5" width="10.1" height="36"/>
<path class="st5" d="M344.7,179.1h-0.6c-2.9,1.3-4.8,4-4.8,5h4.8h0.6h4.8C349.5,183.1,347.6,180.4,344.7,179.1z"/>
<path class="st7" d="M342.4,183.1h-0.2c-1,0.6-1.6,2.1-1.6,2.1v33.9h3.4v-33.9C343.9,185.2,343.3,183.7,342.4,183.1z"/>
<path class="st7" d="M346.8,183.1h-0.2c-1,0.6-1.6,2.1-1.6,2.1v33.9h3.4v-33.9C348.4,185.2,347.7,183.7,346.8,183.1z"/>
<polygon class="st7" points="347.3,166.1 347.3,165.1 345,165.1 345,166.1 343.9,166.1 343.9,168.1 345,168.1 345,169.1 
	347.3,169.1 347.3,168.1 348.4,168.1 348.4,166.1 "/>
<polygon class="st7" points="352.9,166.1 352.9,165.1 350.6,165.1 350.6,166.1 349.5,166.1 349.5,168.1 350.6,168.1 350.6,169.1 
	352.9,169.1 352.9,168.1 354,168.1 354,166.1 "/>
<rect x="339.5" y="164.1" class="st5" width="1.1" height="6"/>
<rect x="357.4" y="164.1" class="st5" width="1.1" height="6"/>
<path class="st7" d="M349.5,157.1c-3.1,0-5.6,2.2-5.6,5h11.2C355.1,159.2,352.7,157.1,349.5,157.1z"/>
<rect x="329.4" y="155.1" class="st7" width="39.2" height="1"/>
<rect x="337.2" y="154.1" class="st7" width="1.1" height="1"/>
<rect x="335" y="154.1" class="st7" width="1.1" height="1"/>
<rect x="332.7" y="154.1" class="st7" width="1.1" height="1"/>
<rect x="339.5" y="154.1" class="st7" width="1.1" height="1"/>
<rect x="341.7" y="154.1" class="st7" width="1.1" height="1"/>
<rect x="343.9" y="154.1" class="st7" width="1.1" height="1"/>
<rect x="346.2" y="154.1" class="st7" width="1.1" height="1"/>
<rect x="348.4" y="154.1" class="st7" width="1.1" height="1"/>
<rect x="350.6" y="154.1" class="st7" width="1.1" height="1"/>
<rect x="352.9" y="154.1" class="st7" width="1.1" height="1"/>
<rect x="355.1" y="154.1" class="st7" width="1.1" height="1"/>
<rect x="357.4" y="154.1" class="st7" width="1.1" height="1"/>
<rect x="359.6" y="154.1" class="st7" width="1.1" height="1"/>
<rect x="361.8" y="154.1" class="st7" width="1.1" height="1"/>
<rect x="364.1" y="154.1" class="st7" width="1.1" height="1"/>
<rect x="366.3" y="154.1" class="st7" width="1.1" height="1"/>
<rect x="330.5" y="154.1" class="st7" width="1.1" height="1"/>
<rect x="343.9" y="150.1" class="st7" width="1.1" height="2"/>
<rect x="348.4" y="150.1" class="st7" width="1.1" height="2"/>
<rect x="352.9" y="150.1" class="st7" width="1.1" height="2"/>
<rect x="358.5" y="149.1" class="st5" width="1.1" height="6"/>
<rect x="329.4" y="148.1" class="st13" width="39.2" height="1"/>
<polygon class="st13" points="359.6,148.1 338.3,148.1 341.7,142.1 349.5,117.1 349.5,117.1 356.2,142.1 "/>
<polygon class="st13" points="356.2,142.1 349.5,117.1 348.4,117.1 341.7,142.1 338.3,148.1 359.6,148.1 "/>
<rect x="348.4" y="106.1" class="st13" width="1.1" height="11"/>
<rect x="347.3" y="108.1" class="st13" width="3.4" height="1"/>
<polygon class="st5" points="367.4,190.1 373,196.9 373,235.6 376.4,240.4 376.4,280.1 367.4,280.1 "/>
<polygon class="st13" points="137.5,138.1 111.1,93.1 109.1,93.1 82.9,138.1 72,150.1 89.4,150.1 96,150.1 104.8,150.1 115.6,150.1 
	117.9,150.1 130.9,150.1 148.4,150.1 "/>
<rect x="74.2" y="151.1" class="st5" width="71.6" height="2"/>
<rect x="101" y="174.2" class="st5" width="18.1" height="19.4"/>
<ellipse class="st5" cx="110" cy="174.2" rx="9.1" ry="8.1"/>
<path class="st7" d="M110,167.7c-4,0-7.3,2.9-7.3,6.5v17.9h14.4v-17.9C117.3,170.6,114,167.7,110,167.7z"/>
<rect x="78.7" y="161.1" class="st5" width="61.6" height="2"/>
<path class="st5" d="M88.8,155.1c-2.5,0-4.5,1.8-4.5,4v2h9v-2C93.2,156.9,91.2,155.1,88.8,155.1z"/>
<path class="st5" d="M103.3,155.1c-2.5,0-4.5,1.8-4.5,4v2h9v-2C107.8,156.9,105.8,155.1,103.3,155.1z"/>
<path class="st5" d="M116.7,155.1c-2.5,0-4.5,1.8-4.5,4v2h9v-2C121.2,156.9,119.2,155.1,116.7,155.1z"/>
<path class="st5" d="M130.2,155.1c-2.5,0-4.5,1.8-4.5,4v2h9v-2C134.6,156.9,132.6,155.1,130.2,155.1z"/>
<rect x="80.9" y="167.1" class="st5" width="7.8" height="5"/>
<rect x="80.9" y="175.1" class="st5" width="7.8" height="5"/>
<rect x="80.9" y="183.1" class="st5" width="7.8" height="5"/>
<rect x="80.9" y="191.1" class="st5" width="7.8" height="5"/>
<rect x="130.2" y="167.1" class="st5" width="7.8" height="5"/>
<rect x="130.2" y="175.1" class="st5" width="7.8" height="5"/>
<rect x="130.2" y="183.1" class="st5" width="7.8" height="5"/>
<rect x="130.2" y="191.1" class="st5" width="7.8" height="5"/>
<rect x="78.7" y="199.1" class="st7" width="61.6" height="2"/>
<rect x="78.7" y="222.1" class="st7" width="61.6" height="2"/>
<rect x="105.1" y="205.1" class="st5" width="9.8" height="13"/>
<rect x="106.2" y="209.4" class="st7" width="7.6" height="7.7"/>
<ellipse class="st7" cx="110" cy="209.4" rx="3.8" ry="3.4"/>
<rect x="107.3" y="231.4" class="st5" width="6" height="8"/>
<rect x="108" y="234" class="st7" width="4.7" height="4.7"/>
<ellipse class="st7" cx="110.4" cy="234" rx="2.4" ry="2.1"/>
<rect x="125.7" y="265.1" class="st4" width="35.8" height="22"/>
<path class="st7" d="M83.7,267.7c-4,0-7.2,2.8-7.3,6.4l0,0v13h14.5v-13l0,0C90.9,270.6,87.7,267.7,83.7,267.7z"/>
<path class="st7" d="M66.9,267.7c-4,0-7.2,2.8-7.3,6.4l0,0v7h14.5v-7l0,0C74.1,270.6,71,267.7,66.9,267.7z"/>
<path class="st7" d="M53.5,267.7c-2.8,0-5,2.8-5,6.4l0,0v7h10.1v-7C58.5,270.6,56.3,267.7,53.5,267.7z"/>
<path class="st7" d="M160.4,274.1c0-3.5-3.2-6.4-7.3-6.4s-7.2,2.8-7.3,6.4l0,0v7h14.5v-7H160.4z"/>
<path class="st7" d="M136.3,267.7c-4,0-7.2,2.8-7.3,6.4l0,0v13h14.5v-13l0,0C143.5,270.6,140.3,267.7,136.3,267.7z"/>
<polygon class="st6" points="45.1,263.1 45.1,265.1 96.6,265.1 96.6,263.1 76.4,251.1 "/>
<polygon class="st6" points="143.6,251.1 123.4,263.1 123.4,265.1 163.7,265.1 163.7,263.1 "/>
<ellipse class="st13" cx="110" cy="92.1" rx="2.2" ry="2"/>
<rect x="108.9" y="83.1" class="st13" width="2.2" height="8"/>
<rect x="105.5" y="88.1" class="st13" width="9" height="1"/>
<rect x="106.7" y="85.1" class="st13" width="6.7" height="1"/>
<path class="st3" d="M134.6,268.8L134.6,268.8c0,0,0.2-7.7-5.4-13.7h-20.6c-5.6,6-5.4,13.6-5.4,13.6v0.1
	c-2.2,5.7-3.5,14.3-11.1,19.3h11.1h3h0.7h2.4h5h9.1h5h2.4h0.7h3h11.1C138.1,283.1,136.9,274.5,134.6,268.8z"/>
<polygon class="st3" points="121,249.2 117,249.2 108.7,252.9 129.3,252.9 "/>
<rect x="108.7" y="253" class="st7" width="20.6" height="2.1"/>
<rect x="92.2" y="287.9" class="st7" width="53.5" height="1.8"/>
<rect x="88.1" y="289.7" class="st3" width="61.8" height="7.4"/>
<path class="st3" d="M119,242.9c1.7,0,3,1.2,3,2.7s-1.3,2.7-3,2.7s-3-1.2-3-2.7S117.3,242.9,119,242.9 M119,240.1
	c-3.4,0-6.2,2.5-6.2,5.5s2.8,5.5,6.2,5.5c3.4,0,6.2-2.5,6.2-5.5S122.3,240.1,119,240.1L119,240.1z"/>
<rect x="198.5" y="51.1" class="st3" width="1" height="2"/>
<rect x="204.5" y="58.1" class="st3" width="2" height="1"/>
<rect x="201.5" y="63.1" class="st3" width="1" height="1"/>
<rect x="203.5" y="55.1" class="st3" width="1" height="1"/>
<rect x="198.5" y="64.1" class="st3" width="1" height="2"/>
<rect x="201.5" y="53.1" class="st3" width="1" height="1"/>
<rect x="203.5" y="61.1" class="st3" width="1" height="1"/>
<rect x="191.5" y="58.1" class="st3" width="2" height="1"/>
<rect x="195.5" y="63.1" class="st3" width="1" height="1"/>
<rect x="193.5" y="55.1" class="st3" width="1" height="1"/>
<rect x="195.5" y="53.1" class="st3" width="1" height="1"/>
<rect x="193.5" y="61.1" class="st3" width="1" height="1"/>
<rect x="198.5" y="54.1" class="st3" width="1" height="5"/>
<rect x="199.5" y="58.1" class="st3" width="3" height="1"/>
<rect x="255.5" y="264.1" class="st5" width="3.4" height="2"/>
<rect x="256.6" y="267.1" class="st5" width="3.4" height="2"/>
<rect x="260" y="265.1" class="st5" width="3.4" height="1"/>
<rect x="261.1" y="267.1" class="st5" width="3.4" height="2"/>
<rect x="257.7" y="270.1" class="st5" width="4.5" height="2"/>
<rect x="255.5" y="270.1" class="st5" width="1.1" height="2"/>
<rect x="256.6" y="273.1" class="st5" width="4.5" height="2"/>
<rect x="262.2" y="273.1" class="st5" width="2.2" height="2"/>
<rect x="258.9" y="276.1" class="st5" width="4.5" height="2"/>
<rect x="255.5" y="276.1" class="st5" width="2.2" height="2"/>
<rect x="256.6" y="279.1" class="st5" width="3.4" height="2"/>
<rect x="261.1" y="279.1" class="st5" width="3.4" height="2"/>
<rect x="258.9" y="282.1" class="st5" width="4.5" height="2"/>
<rect x="255.5" y="282.1" class="st5" width="2.2" height="2"/>
<rect x="256.6" y="285.1" class="st5" width="3.4" height="2"/>
<rect x="261.1" y="285.1" class="st5" width="3.4" height="2"/>
<rect x="304.8" y="264.1" class="st5" width="3.4" height="2"/>
<rect x="303.6" y="267.1" class="st5" width="3.4" height="2"/>
<rect x="300.3" y="265.1" class="st5" width="3.4" height="1"/>
<rect x="299.2" y="267.1" class="st5" width="3.4" height="2"/>
<rect x="301.4" y="270.1" class="st5" width="4.5" height="2"/>
<rect x="307" y="270.1" class="st5" width="1.1" height="2"/>
<rect x="302.5" y="273.1" class="st5" width="4.5" height="2"/>
<rect x="299.2" y="273.1" class="st5" width="2.2" height="2"/>
<rect x="300.3" y="276.1" class="st5" width="4.5" height="2"/>
<rect x="305.9" y="276.1" class="st5" width="2.2" height="2"/>
<rect x="303.6" y="279.1" class="st5" width="3.4" height="2"/>
<rect x="299.2" y="279.1" class="st5" width="3.4" height="2"/>
<rect x="300.3" y="282.1" class="st5" width="4.5" height="2"/>
<rect x="305.9" y="282.1" class="st5" width="2.2" height="2"/>
<rect x="303.6" y="285.1" class="st5" width="3.4" height="2"/>
<rect x="299.2" y="285.1" class="st5" width="3.4" height="2"/>
<rect x="343.9" y="266.1" class="st5" width="17.9" height="3"/>
<rect x="340.6" y="267.1" class="st5" width="3.4" height="2"/>
<rect x="337.2" y="266.1" class="st5" width="2.2" height="2"/>
<rect x="339.5" y="270.1" class="st5" width="6.7" height="2"/>
<rect x="348.4" y="274.1" class="st5" width="12.3" height="3"/>
<rect x="358.5" y="272.1" class="st5" width="2.2" height="1"/>
<rect x="347.3" y="279.1" class="st5" width="14.5" height="2"/>
<rect x="340.6" y="276.1" class="st5" width="4.5" height="2"/>
<rect x="338.3" y="280.1" class="st5" width="4.5" height="2"/>
<rect x="345" y="273.1" class="st5" width="2.2" height="2"/>
<rect x="343.9" y="279.1" class="st5" width="2.2" height="3"/>
<rect x="346.2" y="277.1" class="st5" width="1.1" height="1"/>
<rect x="347.3" y="282.1" class="st5" width="2.2" height="1"/>
<rect x="352.9" y="282.1" class="st5" width="4.5" height="1"/>
<rect x="350.6" y="282.1" class="st5" width="1.1" height="1"/>
<rect x="358.5" y="282.1" class="st5" width="2.2" height="1"/>
<rect x="338.3" y="278.1" class="st5" width="1.1" height="1"/>
<rect x="338.3" y="276.1" class="st5" width="1.1" height="1"/>
<rect x="341.7" y="274.1" class="st5" width="1.1" height="1"/>
<rect x="170.5" y="252.1" class="st5" width="9" height="4"/>
<rect x="172.7" y="257.1" class="st5" width="7.8" height="3"/>
<rect x="170.5" y="262.1" class="st5" width="4.5" height="1"/>
<rect x="176" y="261.1" class="st5" width="5.6" height="2"/>
<rect x="170.5" y="257.1" class="st5" width="1.1" height="3"/>
<rect x="170.5" y="261.1" class="st5" width="1.1" height="1"/>
<rect x="170.5" y="264.1" class="st5" width="6.7" height="3"/>
<rect x="178.3" y="264.1" class="st5" width="2.2" height="3"/>
<rect x="176" y="268.1" class="st5" width="5.6" height="2"/>
<rect x="171.6" y="268.1" class="st5" width="3.4" height="2"/>
<rect x="170.5" y="271.1" class="st5" width="4.5" height="2"/>
<rect x="176" y="271.1" class="st5" width="2.2" height="2"/>
<rect x="179.4" y="271.1" class="st5" width="1.1" height="2"/>
<rect x="174.9" y="274.1" class="st5" width="6.7" height="2"/>
<rect x="172.7" y="274.1" class="st5" width="1.1" height="2"/>
<rect x="170.5" y="274.1" class="st5" width="1.1" height="2"/>
<rect x="170.5" y="277.1" class="st5" width="5.6" height="3"/>
<rect x="177.2" y="277.1" class="st5" width="1.1" height="1"/>
<rect x="177.2" y="279.1" class="st5" width="1.1" height="1"/>
<rect x="179.4" y="277.1" class="st5" width="1.1" height="3"/>
<rect x="178.3" y="281.1" class="st5" width="3.4" height="2"/>
<rect x="174.9" y="281.1" class="st5" width="2.2" height="2"/>
<rect x="171.6" y="281.1" class="st5" width="2.2" height="2"/>
<rect x="217.5" y="252.1" class="st5" width="4.5" height="3"/>
<rect x="223.1" y="252.1" class="st5" width="3.4" height="3"/>
<rect x="217.5" y="256.1" class="st5" width="10.1" height="3"/>
<rect x="221.9" y="261.1" class="st5" width="5.6" height="3"/>
<rect x="217.5" y="261.1" class="st5" width="2.2" height="3"/>
<rect x="216.3" y="266.1" class="st5" width="5.6" height="3"/>
<rect x="224.2" y="266.1" class="st5" width="3.4" height="3"/>
<rect x="219.7" y="271.1" class="st5" width="6.7" height="3"/>
<rect x="216.3" y="271.1" class="st5" width="1.1" height="3"/>
<rect x="216.3" y="276.1" class="st5" width="6.7" height="3"/>
<rect x="224.2" y="276.1" class="st5" width="3.4" height="3"/>
<rect x="216.3" y="281.1" class="st5" width="11.2" height="2"/>
<rect x="256.6" y="206.1" class="st5" width="4.5" height="3"/>
<rect x="263.3" y="206.1" class="st5" width="5.6" height="3"/>
<rect x="257.7" y="202.1" class="st5" width="5.6" height="3"/>
<rect x="265.6" y="202.1" class="st5" width="3.4" height="3"/>
<rect x="255.5" y="198.1" class="st5" width="9" height="3"/>
<rect x="265.6" y="198.1" class="st5" width="4.5" height="3"/>
<rect x="262.2" y="194.1" class="st5" width="4.5" height="3"/>
<rect x="255.5" y="194.1" class="st5" width="4.5" height="3"/>
<rect x="267.8" y="194.1" class="st5" width="2.2" height="3"/>
<rect x="293.6" y="194.1" class="st5" width="4.5" height="3"/>
<rect x="299.2" y="194.1" class="st5" width="3.4" height="3"/>
<rect x="304.8" y="194.1" class="st5" width="3.4" height="3"/>
<rect x="301.4" y="199.1" class="st5" width="6.7" height="2"/>
<rect x="294.7" y="199.1" class="st5" width="4.5" height="2"/>
<rect x="294.7" y="206.1" class="st5" width="5.6" height="3"/>
<rect x="301.4" y="206.1" class="st5" width="6.7" height="3"/>
<rect x="294.7" y="202.1" class="st5" width="3.4" height="3"/>
<rect x="299.2" y="202.1" class="st5" width="5.6" height="3"/>
<rect x="305.9" y="202.1" class="st5" width="2.2" height="3"/>
<rect x="171.6" y="232.1" class="st5" width="5.6" height="4"/>
<rect x="174.9" y="218.1" class="st5" width="5.6" height="4"/>
<rect x="191.3" y="220.1" class="st5" width="7.2" height="4"/>
<rect x="204" y="225.1" class="st5" width="3.4" height="3"/>
<rect x="218.6" y="222.1" class="st5" width="2.2" height="3"/>
<rect x="221.9" y="215.1" class="st5" width="5.6" height="4"/>
<rect x="199.6" y="215.1" class="st5" width="6.7" height="3"/>
<rect x="205.1" y="191.1" class="st5" width="5.6" height="4"/>
<rect x="185" y="190.1" class="st5" width="4.5" height="3"/>
<rect x="183.9" y="173.1" class="st5" width="6.7" height="3"/>
<rect x="185" y="162.1" class="st5" width="6.7" height="3"/>
<rect x="207.4" y="162.1" class="st5" width="4.5" height="3"/>
<rect x="207.4" y="176.1" class="st5" width="6.7" height="4"/>
<rect x="170.5" y="159.1" class="st5" width="3.4" height="3"/>
<rect x="170.5" y="190.1" class="st5" width="2.2" height="2"/>
<rect x="185" y="145.1" class="st5" width="3.4" height="3"/>
<rect x="188.4" y="134.1" class="st5" width="2.2" height="1"/>
<rect x="207.4" y="143.1" class="st5" width="3.4" height="2"/>
<rect x="206.3" y="117.1" class="st5" width="3.4" height="4"/>
<rect x="207.4" y="106.1" class="st5" width="4.5" height="3"/>
<rect x="211.9" y="114.1" class="st5" width="2.2" height="2"/>
<rect x="210.7" y="123.1" class="st5" width="3.4" height="3"/>
<rect x="183.9" y="111.1" class="st5" width="4.5" height="3"/>
<rect x="186.1" y="121.1" class="st5" width="4.5" height="3"/>
<rect x="187.2" y="104.1" class="st5" width="4.5" height="2"/>
<rect x="357.4" y="248.1" class="st5" width="4.5" height="3"/>
<rect x="358.5" y="237.1" class="st5" width="3.4" height="3"/>
<rect x="351.8" y="255.1" class="st5" width="3.4" height="3"/>
<rect x="358.5" y="259.1" class="st5" width="3.4" height="3"/>
<rect x="355.1" y="229.1" class="st5" width="5.6" height="3"/>
<rect x="351.8" y="212.1" class="st5" width="6.7" height="3"/>
<rect x="355.1" y="204.1" class="st5" width="6.7" height="3"/>
<rect x="355.1" y="195.1" class="st5" width="4.5" height="3"/>
<rect x="350.6" y="186.1" class="st5" width="5.6" height="3"/>
<rect x="357.4" y="181.1" class="st5" width="4.5" height="3"/>
<rect x="358.5" y="186.1" class="st5" width="3.4" height="3"/>
<rect x="356.2" y="174.1" class="st5" width="4.5" height="3"/>
<rect x="300.3" y="237.1" class="st5" width="5.6" height="3"/>
<rect x="304.8" y="229.1" class="st5" width="2.2" height="3"/>
<rect x="257.7" y="231.1" class="st5" width="5.6" height="4"/>
<rect x="255.5" y="238.1" class="st5" width="4.5" height="3"/>
<rect x="210.7" y="173.1" class="st5" width="3.4" height="2"/>
<rect x="213" y="162.1" class="st5" width="1.1" height="3"/>
<rect x="210.7" y="167.1" class="st5" width="3.4" height="2"/>
<rect x="183.9" y="168.1" class="st5" width="3.4" height="3"/>
<path class="st7" d="M266.7,163.1h1.1v-17c0-3,2.4-5.5,5.8-7h0.7c3.5,1.5,5.8,4,5.8,7l0,0v17h3.4v-17c0-3,2.4-5.5,5.8-7h0.7
	c3.5,1.5,5.8,4,5.8,7l0,0v17h1.1"/>
<rect x="187.2" y="134.1" class="st5" width="3.4" height="2"/>
<rect x="209.6" y="139.1" class="st5" width="3.4" height="2"/>
<rect x="211.9" y="143.1" class="st5" width="2.2" height="2"/>
<rect x="182.8" y="121.1" class="st5" width="2.2" height="3"/>
<rect x="179.4" y="133.1" class="st5" width="2.2" height="2"/>
<rect x="179.4" y="104.1" class="st5" width="2.2" height="2"/>
<rect x="215.2" y="131.1" class="st5" width="3.4" height="3"/>
<rect x="209.6" y="151.1" class="st5" width="3.4" height="2"/>
<rect x="265.6" y="137.1" class="st5" width="32.5" height="1"/>
<rect x="281.3" y="136.1" class="st5" width="1.1" height="36"/>
<rect x="83.2" y="225.1" class="st5" width="3.4" height="2.4"/>
<rect x="87.4" y="225.1" class="st5" width="2.5" height="2.4"/>
<rect x="83.2" y="228.1" class="st5" width="7.6" height="2.4"/>
<rect x="86.5" y="232.1" class="st5" width="4.3" height="2.2"/>
<rect x="83.2" y="232.1" class="st5" width="1.6" height="2.2"/>
<rect x="82.3" y="235.9" class="st5" width="4.3" height="2.4"/>
<rect x="88.3" y="235.9" class="st5" width="2.5" height="2.4"/>
<rect x="84.7" y="239.9" class="st5" width="5.1" height="2.2"/>
<rect x="82.3" y="243.7" class="st5" width="5.1" height="2.4"/>
<rect x="88.3" y="243.7" class="st5" width="2.5" height="2.4"/>
<rect x="82.3" y="247.5" class="st5" width="8.5" height="1.6"/>
<rect x="132.2" y="246.7" class="st5" width="3.6" height="2.4"/>
<rect x="128.8" y="246.7" class="st5" width="2.5" height="2.4"/>
<rect x="127.9" y="243.7" class="st5" width="7.8" height="2.4"/>
<rect x="127.9" y="239.9" class="st5" width="4.3" height="2.2"/>
<rect x="134" y="239.9" class="st5" width="1.8" height="2.2"/>
<rect x="132.2" y="235.9" class="st5" width="4.5" height="2.4"/>
<rect x="127.9" y="235.9" class="st5" width="2.7" height="2.4"/>
<rect x="128.8" y="232.1" class="st5" width="5.1" height="2.2"/>
<rect x="131.3" y="228.1" class="st5" width="5.4" height="2.4"/>
<rect x="127.9" y="228.1" class="st5" width="2.7" height="2.4"/>
<rect x="127.9" y="225.1" class="st5" width="8.7" height="1.6"/>
<rect x="86.5" y="203.1" class="st5" width="4.3" height="2.4"/>
<rect x="83.2" y="203.1" class="st5" width="1.6" height="2.4"/>
<rect x="82.3" y="206.9" class="st5" width="4.3" height="2.4"/>
<rect x="88.3" y="206.9" class="st5" width="2.5" height="2.4"/>
<rect x="82" y="210.9" class="st5" width="7.8" height="2.2"/>
<rect x="82.3" y="214.7" class="st5" width="5.1" height="2.4"/>
<rect x="88.3" y="214.7" class="st5" width="2.5" height="2.4"/>
<rect x="82.3" y="218.5" class="st5" width="4.3" height="1.6"/>
<rect x="132.2" y="216.7" class="st5" width="3.6" height="2.4"/>
<rect x="128.8" y="216.7" class="st5" width="2.5" height="2.4"/>
<rect x="127.9" y="213.7" class="st5" width="7.8" height="2.4"/>
<rect x="127.9" y="209.9" class="st5" width="4.3" height="2.2"/>
<rect x="134" y="209.9" class="st5" width="1.8" height="2.2"/>
<rect x="132.2" y="203.1" class="st5" width="4.5" height="5.2"/>
<rect x="127.9" y="205.9" class="st5" width="2.7" height="2.4"/>
<path class="st0" d="M453.7,51.1h-26c-2.2,0-4.3-1.8-4.3-4.2c0-2,1.4-3.6,3.2-4h14.6c0.2,0,0.4,0,0.6-0.2c1.8-0.4,3.2-2,3.2-4.1
	c0-2.2-1.8-4.1-3.9-4.3h-52.8c-2.2,0-4.3,1.9-4.3,4.3c0,2,1.4,3.5,3.2,4.1h-11.8c-2.2,0-4.3,1.8-4.3,4.2c0,2.2,1.8,4.2,4.3,4.2H400
	c2,0.2,3.7,2.1,3.7,4.3c0,2-1.6,3.9-3.7,4.1h-39c-2,0.4-3.7,2-3.7,4c0,2.2,1.8,4.2,4.3,4.2h15c-1.8,0.4-3.2,2.1-3.2,4.1
	c0,2.2,1.8,4.3,4.3,4.3h52.8c2.2-0.2,3.9-2,3.9-4.3c0-2-1.4-3.7-3-4.1c-0.2,0-0.6-0.2-0.8-0.2h-18.9c-1.8-0.4-3-2-3-4
	c0-2.2,1.8-4.2,4.3-4.2h41c2.2-0.2,3.9-2.1,3.9-4.3C457.5,53.2,455.7,51.2,453.7,51.1z M61,93.7H20.5c-1.8,0-3.3,1.5-3.3,3.3
	c0,1.7,1.2,2.9,2.8,3.1H3.3c-1.8,0-3.3,1.5-3.3,3.3s1.5,3.3,3.3,3.3h11.6c-1.5,0.4-2.5,1.6-2.5,3.1c0,1.8,1.5,3.3,3.3,3.3h40.5
	c1.7-0.2,3-1.4,3-3.1s-1.3-3.1-3-3.1H42.3c-1.5-0.4-2.6-1.7-2.6-3.2s1.2-2.8,2.6-3.2H61c1.7,0,3-1.4,3-3.1
	C64,95.1,62.7,93.9,61,93.7z"/>
<path class="st14" d="M325.9,36.2c0-0.5,0-0.9,0-1.4c0-0.7,0-1.3-0.1-1.9v-0.1l0,0c-1.1-12.3-11.3-21.9-23.9-21.9
	c-12.5,0-22.8,9.6-23.9,21.9l0,0v0.1c-0.1,0.6-0.1,1.3-0.1,1.9c0,0.5,0,0.9,0,1.4c0.6,22.6,19.7,36.6,19.7,36.6l0,0
	c1.1,1,2.6,1.6,4.2,1.6c1.7,0,3.3-0.7,4.5-1.9C309,70.7,325.4,57.2,325.9,36.2z M308,89.1h-12v-10h12V89.1z"/>
<path class="st15" d="M448.3,118.7c0-0.4,0-0.7,0-1.1c0-0.5,0-1-0.1-1.5V116l0,0c-0.8-9.3-8.6-16.6-18.1-16.6s-17.3,7.3-18.1,16.6
	l0,0v0.1c0,0.5-0.1,1-0.1,1.5c0,0.4,0,0.7,0,1.1c0.4,17.1,14.9,27.7,14.9,27.7l0,0c0.8,0.8,1.9,1.2,3.2,1.2c1.3,0,2.5-0.5,3.4-1.4
	C435.5,144.7,447.9,134.5,448.3,118.7z M435.2,158.7h-10v-8h10V158.7z"/>
<path class="st16" d="M52.5,152.8c0-0.3,0-0.7,0-1c0-0.5,0-0.9-0.1-1.4v-0.1l0,0c-0.7-8.7-8-15.5-16.9-15.5s-16.1,6.8-16.9,15.5l0,0
	v0.1c0,0.5-0.1,0.9-0.1,1.4c0,0.3,0,0.7,0,1c0.4,16,14,25.9,14,25.9l0,0c0.8,0.7,1.8,1.1,3,1.1s2.3-0.5,3.1-1.3
	C40.6,177.1,52.1,167.5,52.5,152.8z M40.6,190.1h-10v-7h10V190.1z"/>
<g>
	<path class="st17" d="M428.8,131.4c0-0.1,0-0.2-0.1-0.4c-0.1-0.3-0.3-0.5-0.4-0.8c-0.1-0.1-0.1-0.2-0.2-0.3c-0.3-0.6-0.7-1.1-1-1.7
		c-0.8-1.3-1.5-2.6-2.3-3.9c-0.3-0.6-0.7-1.1-1-1.7c-0.1-0.2-0.3-0.5-0.4-0.7l0,0l-0.1-0.1c-0.4-0.7-0.8-1.4-1.3-2.1
		c-0.6-0.9-1.1-1.9-1.7-2.8c-0.1-0.2-0.2-0.5-0.2-0.8c-0.2,0.4-0.5,0.8-0.7,1.2c-0.6,1-1.2,2-1.8,3.1c-0.4,0.7-0.4,1.3,0,1.9
		c0.6,1,1.3,2.1,1.9,3.1c0.3,0.5,0.6,0.9,0.8,1.4c0.2,0.4,0.4,0.7,0.6,1.1c0.5,0.9,1.1,2,1.7,2.9c0.3,0.5,0.8,0.9,1.4,0.9
		c0.8,0,1.6,0,2.3,0c0.8,0,1.5-0.1,2.1-0.1C428.6,131.7,428.8,131.4,428.8,131.4z"/>
	<path class="st18" d="M440.8,125.7c0.7-1.1,1.4-2.3,2.1-3.4c0.4-0.7,0.4-1.3,0-1.9c-0.6-1.1-1.3-2.1-1.9-3.2
		c-0.3-0.4-0.5-0.9-0.8-1.3c-0.2-0.4-0.5-0.8-0.7-1.1c-0.5-0.9-1.1-2.1-1.7-3c-0.3-0.5-0.8-1-1.4-1c-0.4,0-0.8,0-1.2,0
		c-0.2,0-0.5,0-0.7,0s-0.5,0-0.7,0l0,0c-0.2,0-0.3,0.2-0.5,0.2s-0.4,0.1-0.5,0.1c-0.3,0-0.5,0.1-0.8,0.1c-0.1,0-0.2,0.1-0.2,0.1
		c0,0.1-0.1,0.2,0,0.3c0,0.1,0.1,0.2,0.1,0.2c1.1,1.9,2,3.3,2.8,4.6c0.6,0.9,1.1,1.9,1.7,2.8c0.3,0.4,0.5,0.8,0.8,1.3
		c0.1,0.2,0.2,0.3,0.3,0.5c0.3,0.4,0.5,0.9,0.8,1.3c0.1,0.2,0.2,0.4,0.3,0.5c0,0.1,0.1,0.2,0.1,0.2c0.1,0.1,0.1,0.2,0.2,0.3
		c0.2,0.2,0.3,0.5,0.5,0.8s0.3,0.5,0.4,0.8c0.2,0.3,0.4,0.6,0.5,0.9c0.1,0.2,0.2,0.4,0.2,0.7C440.5,126.2,440.6,125.9,440.8,125.7z"
		/>
	<path class="st19" d="M428.8,111.7c0.1-0.1,0-0.2-0.1-0.3s0.5-0.4-0.5-0.4v-0.2h0.3c-0.6,0-1.2,0.2-2.1,0.2c-0.4,0-0.9,0.1-1.3,0.1
		s-0.8,0.1-1.1,0.1c-0.6,0-1.1,0.3-1.4,0.9c-0.2,0.3-0.4,0.7-0.6,1c0,0.1-0.1,0.2-0.1,0.2c-0.3,0.5-0.6,1-0.9,1.5
		c-0.1,0.2-0.2,0.4-0.4,0.6l0,0v0.1c0,0.4,0,0.8,0.2,1.1c0.6,0.9,1.1,1.9,1.7,2.8c0.3,0.5,0.6,1,0.9,1.6c0-0.3,0.1-0.5,0.3-0.7
		c1.2-2,2.3-3.9,3.4-5.7c0.5-0.9,1.1-1.8,1.6-2.6L428.8,111.7z"/>
	<path class="st17" d="M439.7,126c-0.2-0.3-0.4-0.6-0.5-0.9c-0.1-0.2-0.3-0.5-0.4-0.8c-0.1-0.2-0.3-0.5-0.5-0.7
		c-0.1-0.1-0.1-0.2-0.2-0.3l0,0l0,0c0-0.1-0.1-0.2-0.1-0.2c-0.1-0.2-0.2-0.4-0.3-0.5c-0.2-0.3-0.4-0.6-0.6-0.9
		c0,0.3-0.1,0.5-0.3,0.8c-1.2,2-2.4,4-3.4,5.6c-0.3,0.6-0.7,1.1-1,1.7c-0.2,0.4-0.5,0.8-0.7,1.1l0,0c-0.1,0.1-0.1,0.2-0.2,0.3
		c0,0.1,0,0.2,0,0.3s0.1,0.1,0.3,0.1h0.1c0,0,0,0.1,0.1,0.1c0,0,0,0.1,0.1,0.1l0,0c0.4,0,0.8,0,1.2,0c0.4,0,0.8,0,1.2,0
		c0.7,0,1.2-0.1,1.7-0.1v-0.1c0.7,0,1.2-0.3,1.6-0.9c0.3-0.6,0.7-1.1,1-1.8c0.2-0.3,0.4-0.7,0.6-1c0.1-0.1,0.2-0.3,0.3-0.4l0,0h0.2
		l0.3-0.2l0,0c0-0.1-0.2-0.2-0.2-0.2C440.1,126.5,439.9,126.2,439.7,126z"/>
</g>
<path class="st20" d="M125.8,51c-1-0.3-2.2-0.2-3.2,0.2c-0.2,0.1-0.4,0.1-0.5,0.3c-0.1,0.1-0.1,0.4,0,0.5c0.2,0.1,0.5,0,0.7,0.1
	c0.1,0.1,0.2,0.2,0.3,0.3c0.3,0.3,0.7,0.3,1.1,0.2c0.1,0,0.2,0,0.3-0.1c0.1-0.1,0.1-0.2,0.2-0.2c0.3-0.4,0.8-0.4,1.3-0.5
	c0.2,0,0.3-0.1,0.4-0.2s0.1-0.4-0.1-0.4"/>
<path class="st0" d="M155,67.7c0-0.3,0-0.6,0-0.9c0-0.4,0-0.8-0.1-1.2v-0.1l0,0c-0.6-7.6-7-13.5-14.7-13.5s-14,5.9-14.7,13.5l0,0
	v0.1c0,0.4-0.1,0.8-0.1,1.2c0,0.3,0,0.6,0,0.9c0.3,13.9,12.2,22.6,12.2,22.6l0,0c0.7,0.6,1.6,1,2.6,1s2-0.4,2.7-1.1
	C144.7,88.9,154.7,80.5,155,67.7z M144.7,100.2H136v-6.1h8.7V100.2z"/>
<path class="st0" d="M400.4,163.1c0-0.2,0-0.4,0-0.5c0-0.3,0-0.5-0.1-0.7v-0.1l0,0c-0.4-4.4-4.1-7.9-8.6-7.9s-8.2,3.5-8.6,7.9l0,0
	v0.1c0,0.3-0.1,0.5-0.1,0.7s0,0.4,0,0.5c0.2,8.2,7.1,13.2,7.1,13.2l0,0c0.4,0.4,0.9,0.6,1.5,0.6s1.2-0.3,1.6-0.7
	C394.3,175.5,400.2,170.6,400.4,163.1z M394.3,182.1h-5.1v-3.6h5.1V182.1z"/>
<g>
	<path class="st19" d="M43.9,143.7h-2H30.6h-3.2c-0.7,0-1.2,0.5-1.2,1.2v16.5c0,0.7,0.5,1.2,1.2,1.2h16.5c0.7,0,1.2-0.5,1.2-1.2v-2
		v-11.3v-3.2C45.2,144.2,44.6,143.7,43.9,143.7z M44.2,159.4v2c0,0.2-0.1,0.3-0.3,0.3H27.4c-0.2,0-0.3-0.1-0.3-0.3v-16.5
		c0-0.2,0.1-0.3,0.3-0.3h3.2h11.3h2c0.2,0,0.3,0.1,0.3,0.3v3.2V159.4z"/>
	<path class="st19" d="M35.4,148.2v1.7H33v2h2.2v1.8H33v2.2h2.5v1.9H31v-9.6L35.4,148.2L35.4,148.2z"/>
	<path class="st19" d="M39.2,151.7c0-0.3-0.2-0.5-0.4-0.5c-0.3,0-0.5,0.2-0.5,0.5v0.4h-1.7v-0.6c0-0.7,0.1-1.1,0.4-1.3
		c0.3-0.2,0.9-0.4,1.8-0.4c1.1,0,1.7,0.1,2,0.5c0.2,0.3,0.3,0.7,0.3,2v4.1c0,0.6-0.1,1.1-0.3,1.3s-0.9,0.4-1.8,0.4
		c-2,0-2.4-0.3-2.4-2.1v-1.7c0-1.1,0.4-1.6,1.6-1.6c0.3,0,0.6,0,1.1,0.1L39.2,151.7L39.2,151.7L39.2,151.7z M39.2,154.5
		c0-0.3-0.2-0.5-0.5-0.5c-0.4,0-0.5,0.1-0.5,0.6v1.3c0,0.5,0.1,0.6,0.5,0.6c0.3,0,0.5-0.2,0.5-0.5V154.5z"/>
	<path class="st19" d="M41,146v2.1h-0.4V146H41z"/>
	<path class="st19" d="M42.6,146v1.2h0.1v0.4h-0.1v0.5h-0.4v-0.5h-0.6v-0.4l0.7-1.2H42.6z M42.2,146.6L42.2,146.6l-0.2,0.6h0.3
		L42.2,146.6L42.2,146.6z"/>
</g>
<g>
	<path class="st19" d="M321.1,29.9c0,0.6-0.7,1.1-1.5,1.1l-0.4,0l0,0.6c0,0.8-0.5,1.5-1.1,1.5c-0.6,0-1.1-0.7-1.1-1.5l0-0.6l-0.6,0
		c-0.8,0-1.5-0.5-1.5-1.1c0-0.6,0.7-1.1,1.5-1.1l0.6,0l0-0.5c0-0.8,0.5-1.5,1.1-1.5v0c0.6,0,1.1,0.7,1.1,1.5l0,0.5l0.4,0
		C320.4,28.8,321.1,29.3,321.1,29.9z M293.1,32.7c-0.3-0.2-0.7-0.3-1.1-0.3c-0.4,0-0.7,0-1.1,0.2c-0.3,0.1-0.6,0.4-0.9,0.6l-5.8,5.8
		c-0.2,0.2-0.4,0.5-0.5,0.8c-0.1,0.3-0.2,0.6-0.2,0.9c0,0.3,0.1,0.6,0.2,0.9c0.1,0.3,0.3,0.6,0.5,0.8c0.2,0.2,0.5,0.4,0.8,0.5
		c0.3,0.1,0.6,0.2,0.9,0.2c0.3,0,0.6-0.1,0.9-0.2c0.3-0.1,0.6-0.3,0.8-0.5l2.6-2.5c0,0,0.1,0,0.1,0c0,0,0,0.1,0,0.1l-0.9,1.4
		c0.1,0.3,0.2,0.6,0.4,0.9c0.2,0.3,0.5,0.5,0.8,0.6c0.3,0.2,0.7,0.2,1.1,0.2c0.3,0,0.6-0.1,0.9-0.2c0.3-0.1,0.5-0.3,0.8-0.5
		c0.2-0.2,0.4-0.5,0.5-0.8c0.1-0.3,0.2-0.6,0.2-0.9l0-6c0-0.5-0.1-0.9-0.3-1.2C293.8,33.2,293.5,32.9,293.1,32.7z M305,40.6
		c0,0.3-0.1,0.6-0.2,0.9c-0.1,0.3-0.3,0.5-0.5,0.8c-0.2,0.2-0.5,0.4-0.8,0.6c-0.3,0.1-0.6,0.2-0.9,0.2l-5,0c-0.5,0-0.9-0.1-1.2-0.3
		c-0.4-0.2-0.7-0.5-0.9-0.9c-0.2-0.4-0.3-0.8-0.3-1.2c0-0.4,0.1-0.7,0.2-1c0.2-0.3,0.4-0.6,0.6-0.8l2.4-2.5c0,0,0-0.1,0-0.1
		c0,0-0.1-0.1-0.1,0l-1.2,0.9c-0.4-0.1-0.7-0.2-1-0.5c-0.3-0.2-0.5-0.5-0.7-0.8c-0.2-0.3-0.3-0.7-0.3-1.1c0-0.4,0.1-0.8,0.3-1.2
		c0.2-0.4,0.5-0.7,0.9-0.9c0.4-0.2,0.8-0.3,1.2-0.3l5,0c0.5,0,0.9,0.1,1.2,0.3c0.3,0.2,0.6,0.4,0.8,0.8c0.2,0.3,0.3,0.7,0.4,1
		c0,0.4,0,0.7-0.1,1.1c-0.1,0.4-0.3,0.7-0.6,1c-0.4,0.4-0.8,0.8-1.3,1.3c-0.4,0.4-0.9,0.9-1.3,1.3c0,0,0,0.1,0,0.1c0,0,0.1,0,0.1,0
		l1.3-0.9c0.4,0.1,0.7,0.2,1,0.4c0.3,0.2,0.5,0.5,0.7,0.8C304.9,39.8,305,40.2,305,40.6z M316,34.6l0,3.3c0,0.7-0.1,1.4-0.4,2
		c-0.3,0.6-0.6,1.2-1.1,1.7c-0.5,0.5-1,0.9-1.6,1.1c-0.6,0.3-1.3,0.4-2,0.4c-0.7,0-1.4-0.1-2-0.4c-0.6-0.3-1.2-0.6-1.7-1.1
		c-0.5-0.5-0.9-1-1.1-1.6c-0.3-0.6-0.4-1.3-0.4-2l0-3.3c0-0.5,0.1-0.9,0.3-1.2c0.2-0.4,0.5-0.7,0.9-0.9c0.4-0.2,0.8-0.3,1.2-0.3
		c0.5,0,0.9,0.1,1.2,0.3c0.4,0.2,0.7,0.5,0.9,0.9c0.2,0.4,0.3,0.8,0.3,1.2c0,0,0,0.1,0,0.3c0,0.1,0,0.3,0,0.5c0,0.2,0,0.4,0,0.7
		c0,0.2,0,0.5,0,0.7c0,0.2,0,0.4,0,0.5c0,0.1,0,0.2,0,0.3c0,0.1,0,0.2,0.1,0.3c0.1,0.1,0.1,0.1,0.2,0.1c0.1,0,0.2,0,0.2-0.1
		c0.1-0.1,0.1-0.2,0.1-0.3l0-3c0-0.5,0.1-0.9,0.3-1.2c0.2-0.4,0.5-0.7,0.9-0.9c0.4-0.2,0.8-0.3,1.2-0.3c0.4,0,0.8,0.1,1.2,0.3
		c0.4,0.2,0.7,0.5,0.9,0.9C315.8,33.8,315.9,34.2,316,34.6z M318.4,41.9c0,0-0.1-0.1-0.1-0.1c0.1,0,0.2-0.1,0.3-0.1
		c0.1-0.1,0.1-0.2,0.1-0.3c0-0.1,0-0.2-0.1-0.2c0-0.1-0.1-0.1-0.2-0.1c-0.1,0-0.2,0-0.3,0h-0.6v1.4h0.3v-0.6h0.1c0.1,0,0.1,0,0.1,0
		c0,0,0.1,0,0.1,0.1c0,0,0.1,0.1,0.1,0.2l0.2,0.3h0.3l-0.2-0.3C318.5,42,318.4,42,318.4,41.9z M317.9,41.6h-0.2v-0.4h0.2
		c0.1,0,0.2,0,0.2,0c0,0,0.1,0,0.1,0.1c0,0,0,0.1,0,0.1c0,0,0,0.1,0,0.1c0,0,0,0-0.1,0.1C318.2,41.6,318.1,41.6,317.9,41.6z
		 M318,40.4c-0.7,0-1.3,0.6-1.3,1.3c0,0.7,0.6,1.3,1.3,1.3c0.7,0,1.3-0.6,1.3-1.3C319.3,41,318.7,40.4,318,40.4z M318,42.9
		c-0.6,0-1.1-0.5-1.1-1.1c0-0.6,0.5-1.1,1.1-1.1c0.6,0,1.1,0.5,1.1,1.1C319.1,42.4,318.6,42.9,318,42.9z"/>
</g>
</svg>
