<?xml version="1.0" encoding="utf-8"?>
<!-- Generator: Adobe Illustrator 16.0.0, SVG Export Plug-In . SVG Version: 6.00 Build 0)  -->
<!DOCTYPE svg PUBLIC "-//W3C//DTD SVG 1.1//EN" "http://www.w3.org/Graphics/SVG/1.1/DTD/svg11.dtd">
<svg version="1.1" xmlns="http://www.w3.org/2000/svg" xmlns:xlink="http://www.w3.org/1999/xlink" x="0px" y="0px" width="828px"
	 height="315px" viewBox="0 0 828 315" enable-background="new 0 0 828 315" xml:space="preserve">
<g id="Vrstva_1">
	<text transform="matrix(1 0 0 1 195.6089 135.9199)"><tspan x="0" y="0" fill="#414042" font-family="Roboto" font-size="98.5943">GDG DevFest</tspan><tspan x="0" y="118.313" fill="#414042" font-family="Roboto" font-size="98.5943">Kosice 2017</tspan></text>
	<text transform="matrix(1 0 0 1 318.2754 252.5859)" fill="#414042" font-family="Roboto" font-size="98.5943">ˇ</text>
</g>
<g id="Vrstva_2">
	<g>
		<g>
			<defs>
				<rect id="SVGID_1_" x="-185.716" y="-191.208" width="1071.211" height="694.083"/>
			</defs>
			<clipPath id="SVGID_2_">
				<use xlink:href="#SVGID_1_"  overflow="visible"/>
			</clipPath>
			<g clip-path="url(#SVGID_2_)">
				<defs>
					<rect id="SVGID_3_" x="-185.716" y="-191.208" width="1071.211" height="694.083"/>
				</defs>
				<clipPath id="SVGID_4_">
					<use xlink:href="#SVGID_3_"  overflow="visible"/>
				</clipPath>
				<polygon clip-path="url(#SVGID_4_)" fill="#FEC111" points="104.141,217.095 87.672,188.601 48.135,256.956 81.986,256.956 
					104.59,217.868 				"/>
				<polygon clip-path="url(#SVGID_4_)" fill="#0C9D58" points="69.855,157.801 87.672,188.601 48.135,256.956 12.501,256.956 				
					"/>
				<g clip-path="url(#SVGID_4_)">
					<defs>
						<rect id="SVGID_5_" x="-185.716" y="-191.208" width="1071.211" height="694.083"/>
					</defs>
					<clipPath id="SVGID_6_">
						<use xlink:href="#SVGID_5_"  overflow="visible"/>
					</clipPath>
					<g opacity="0.2" clip-path="url(#SVGID_6_)" enable-background="new    ">
						<g>
							<defs>
								<rect id="SVGID_7_" x="48.135" y="217.095" width="56.455" height="39.861"/>
							</defs>
							<clipPath id="SVGID_8_">
								<use xlink:href="#SVGID_7_"  overflow="visible"/>
							</clipPath>
							<polygon clip-path="url(#SVGID_8_)" fill="#BE3A26" points="81.986,255.405 49.034,255.405 48.135,256.956 81.986,256.956 
								104.59,217.868 104.141,217.095 							"/>
						</g>
					</g>
					<g opacity="0.2" clip-path="url(#SVGID_6_)" enable-background="new    ">
						<g>
							<defs>
								<rect id="SVGID_9_" x="12.501" y="255.405" width="36.533" height="1.551"/>
							</defs>
							<clipPath id="SVGID_10_">
								<use xlink:href="#SVGID_9_"  overflow="visible"/>
							</clipPath>
							<polygon clip-path="url(#SVGID_10_)" fill="#263238" points="13.4,255.405 12.501,256.956 48.135,256.956 49.034,255.405 
															"/>
						</g>
					</g>
					<g opacity="0.2" clip-path="url(#SVGID_6_)" enable-background="new    ">
						<g>
							<defs>
								<rect id="SVGID_11_" x="12.501" y="157.801" width="57.804" height="99.155"/>
							</defs>
							<clipPath id="SVGID_12_">
								<use xlink:href="#SVGID_11_"  overflow="visible"/>
							</clipPath>
							<polygon clip-path="url(#SVGID_12_)" fill="#FFFFFF" points="12.501,256.956 13.4,256.956 70.305,158.575 69.855,157.801 
															"/>
						</g>
					</g>
				</g>
				<g clip-path="url(#SVGID_4_)">
					<defs>
						<polygon id="SVGID_13_" points="104.59,217.868 104.59,217.868 87.672,188.601 83.52,195.774 						"/>
					</defs>
					<clipPath id="SVGID_14_">
						<use xlink:href="#SVGID_13_"  overflow="visible"/>
					</clipPath>
					<defs>
						<filter id="Adobe_OpacityMaskFilter" filterUnits="userSpaceOnUse" x="83.52" y="188.601" width="21.07" height="29.268">
							<feColorMatrix  type="matrix" values="1 0 0 0 0  0 1 0 0 0  0 0 1 0 0  0 0 0 1 0"/>
						</filter>
					</defs>
					<mask maskUnits="userSpaceOnUse" x="83.52" y="188.601" width="21.07" height="29.268" id="SVGID_15_">
						<g filter="url(#Adobe_OpacityMaskFilter)">
							
								<radialGradient id="SVGID_16_" cx="-1.873" cy="9.0732" r="1.5416" gradientTransform="matrix(44.2635 0 0 44.2635 187.2188 -184.3438)" gradientUnits="userSpaceOnUse">
								<stop  offset="0" style="stop-color:#333333"/>
								<stop  offset="1" style="stop-color:#050505"/>
							</radialGradient>
							<rect x="83.52" y="188.601" clip-path="url(#SVGID_14_)" fill="url(#SVGID_16_)" width="21.07" height="29.268"/>
						</g>
					</mask>
					
						<radialGradient id="SVGID_17_" cx="-1.873" cy="9.0728" r="1.5317" gradientTransform="matrix(44.2635 0 0 44.2635 187.2188 -184.3438)" gradientUnits="userSpaceOnUse">
						<stop  offset="0" style="stop-color:#BE3A26"/>
						<stop  offset="1" style="stop-color:#BE3A26"/>
					</radialGradient>
					
						<rect x="83.52" y="188.601" clip-path="url(#SVGID_14_)" mask="url(#SVGID_15_)" fill="url(#SVGID_17_)" width="21.07" height="29.268"/>
				</g>
				<g clip-path="url(#SVGID_4_)">
					<defs>
						<polygon id="SVGID_18_" points="83.52,195.774 87.672,188.601 69.855,157.801 61.35,172.52 						"/>
					</defs>
					<clipPath id="SVGID_19_">
						<use xlink:href="#SVGID_18_"  overflow="visible"/>
					</clipPath>
					<defs>
						<filter id="Adobe_OpacityMaskFilter_1_" filterUnits="userSpaceOnUse" x="61.35" y="157.801" width="26.322" height="37.973">
							<feColorMatrix  type="matrix" values="1 0 0 0 0  0 1 0 0 0  0 0 1 0 0  0 0 0 1 0"/>
						</filter>
					</defs>
					<mask maskUnits="userSpaceOnUse" x="61.35" y="157.801" width="26.322" height="37.973" id="SVGID_20_">
						<g filter="url(#Adobe_OpacityMaskFilter_1_)">
							
								<radialGradient id="SVGID_21_" cx="-1.8589" cy="9.0029" r="1.5482" gradientTransform="matrix(44.6228 0 0 44.6228 187.0938 -184.0625)" gradientUnits="userSpaceOnUse">
								<stop  offset="0" style="stop-color:#333333"/>
								<stop  offset="1" style="stop-color:#050505"/>
							</radialGradient>
							<rect x="61.35" y="157.801" clip-path="url(#SVGID_19_)" fill="url(#SVGID_21_)" width="26.323" height="37.974"/>
						</g>
					</mask>
					
						<radialGradient id="SVGID_22_" cx="-1.8589" cy="9.0029" r="1.5482" gradientTransform="matrix(44.6228 0 0 44.6228 187.0938 -184.0625)" gradientUnits="userSpaceOnUse">
						<stop  offset="0" style="stop-color:#263238"/>
						<stop  offset="1" style="stop-color:#263238"/>
					</radialGradient>
					
						<rect x="61.35" y="157.801" clip-path="url(#SVGID_19_)" mask="url(#SVGID_20_)" fill="url(#SVGID_22_)" width="26.322" height="37.974"/>
				</g>
				<polygon clip-path="url(#SVGID_4_)" fill="#547DBF" points="48.135,58.646 12.501,58.646 104.59,217.868 122.393,187.081 
					122.408,187.052 				"/>
				<g clip-path="url(#SVGID_4_)">
					<defs>
						<rect id="SVGID_23_" x="-185.716" y="-191.208" width="1071.211" height="694.083"/>
					</defs>
					<clipPath id="SVGID_24_">
						<use xlink:href="#SVGID_23_"  overflow="visible"/>
					</clipPath>
					<path clip-path="url(#SVGID_24_)" fill="#DB4436" d="M133.951,167.096c3.33-5.748,3.33-12.843,0-18.591L81.986,58.646H48.135
						l74.273,128.406L133.951,167.096z"/>
					<g opacity="0.2" clip-path="url(#SVGID_24_)" enable-background="new    ">
						<g>
							<defs>
								<rect id="SVGID_25_" x="12.501" y="58.646" width="109.907" height="159.222"/>
							</defs>
							<clipPath id="SVGID_26_">
								<use xlink:href="#SVGID_25_"  overflow="visible"/>
							</clipPath>
							<polygon clip-path="url(#SVGID_26_)" fill="#2D3079" points="122.408,187.052 121.958,186.294 104.59,216.319 13.4,58.646 
								12.501,58.646 104.59,217.868 122.393,187.081 							"/>
						</g>
					</g>
					<g opacity="0.2" clip-path="url(#SVGID_24_)" enable-background="new    ">
						<g>
							<defs>
								<rect id="SVGID_27_" x="12.501" y="58.646" width="123.912" height="99.929"/>
							</defs>
							<clipPath id="SVGID_28_">
								<use xlink:href="#SVGID_27_"  overflow="visible"/>
							</clipPath>
							<path clip-path="url(#SVGID_28_)" fill="#FFFFFF" d="M81.986,60.195l51.964,89.858c1.533,2.649,2.323,5.578,2.447,8.521
								c0.139-3.471-0.651-6.972-2.447-10.07L81.986,58.646H12.501l0.899,1.549H81.986z"/>
						</g>
					</g>
					<g opacity="0.2" clip-path="url(#SVGID_24_)" enable-background="new    ">
						<g>
							<defs>
								<rect id="SVGID_29_" x="121.958" y="157.025" width="14.455" height="30.026"/>
							</defs>
							<clipPath id="SVGID_30_">
								<use xlink:href="#SVGID_29_"  overflow="visible"/>
							</clipPath>
							<path clip-path="url(#SVGID_30_)" fill="#3E2723" d="M122.408,187.052l11.543-19.956c1.796-3.098,2.586-6.601,2.447-10.07
								c-0.124,2.942-0.914,5.872-2.447,8.522l-11.993,20.746L122.408,187.052z"/>
						</g>
					</g>
				</g>
				<g clip-path="url(#SVGID_4_)">
					<defs>
						<path id="SVGID_31_" d="M12.501,58.646l57.354,99.155l-57.354,99.155h69.485l51.964-89.86c3.33-5.748,3.33-12.843,0-18.591
							L81.986,58.646H12.501z"/>
					</defs>
					<clipPath id="SVGID_32_">
						<use xlink:href="#SVGID_31_"  overflow="visible"/>
					</clipPath>
					<defs>
						
							<filter id="Adobe_OpacityMaskFilter_2_" filterUnits="userSpaceOnUse" x="12.501" y="58.646" width="124.78" height="198.309">
							<feColorMatrix  type="matrix" values="1 0 0 0 0  0 1 0 0 0  0 0 1 0 0  0 0 0 1 0"/>
						</filter>
					</defs>
					<mask maskUnits="userSpaceOnUse" x="12.501" y="58.646" width="124.78" height="198.309" id="SVGID_33_">
						<g filter="url(#Adobe_OpacityMaskFilter_2_)">
							
								<radialGradient id="SVGID_34_" cx="-0.8633" cy="2.5747" r="1.549" gradientTransform="matrix(134.3503 0 0 134.3503 126.9375 -285.75)" gradientUnits="userSpaceOnUse">
								<stop  offset="0" style="stop-color:#1A1A1A"/>
								<stop  offset="1" style="stop-color:#000000"/>
							</radialGradient>
							<rect x="12.501" y="58.646" clip-path="url(#SVGID_32_)" fill="url(#SVGID_34_)" width="124.78" height="198.31"/>
						</g>
					</mask>
					
						<radialGradient id="SVGID_35_" cx="-0.8633" cy="2.5747" r="1.549" gradientTransform="matrix(134.3503 0 0 134.3503 126.9375 -285.75)" gradientUnits="userSpaceOnUse">
						<stop  offset="0" style="stop-color:#FFFFFF"/>
						<stop  offset="1" style="stop-color:#FFFFFF"/>
					</radialGradient>
					
						<rect x="12.501" y="58.646" clip-path="url(#SVGID_32_)" mask="url(#SVGID_33_)" fill="url(#SVGID_35_)" width="124.78" height="198.31"/>
				</g>
				<g clip-path="url(#SVGID_4_)">
					<defs>
						<rect id="SVGID_36_" x="-185.716" y="-191.208" width="1071.211" height="694.083"/>
					</defs>
					<clipPath id="SVGID_37_">
						<use xlink:href="#SVGID_36_"  overflow="visible"/>
					</clipPath>
					<g opacity="0.54" clip-path="url(#SVGID_37_)">
						<g>
							<defs>
								<rect id="SVGID_38_" x="209.976" y="71.934" width="477.208" height="168.004"/>
							</defs>
							<clipPath id="SVGID_39_">
								<use xlink:href="#SVGID_38_"  overflow="visible"/>
							</clipPath>
						</g>
					</g>
				</g>
			</g>
		</g>
	</g>
</g>
</svg>
