<?xml version="1.0" encoding="utf-8"?>
<!-- Generator: Adobe Illustrator 16.0.0, SVG Export Plug-In . SVG Version: 6.00 Build 0)  -->
<!DOCTYPE svg PUBLIC "-//W3C//DTD SVG 1.1//EN" "http://www.w3.org/Graphics/SVG/1.1/DTD/svg11.dtd">
<svg version="1.1" xmlns="http://www.w3.org/2000/svg" xmlns:xlink="http://www.w3.org/1999/xlink" x="0px" y="0px" width="828px"
	 height="315px" viewBox="0 0 828 315" enable-background="new 0 0 828 315" xml:space="preserve">
<g id="Vrstva_1">
	<g>
		<path fill="#fff" d="M270.639,103.482c0,9.859-2.925,17.714-8.775,23.564c-6.573,6.968-15.217,10.451-25.93,10.451
			c-10.254,0-18.93-3.549-26.029-10.648c-7.099-7.099-10.648-15.84-10.648-26.226c0-10.385,3.549-19.127,10.648-26.226
			c7.099-7.099,15.775-10.648,26.029-10.648c5.191,0,10.089,0.921,14.69,2.761c4.6,1.841,8.38,4.437,11.338,7.789l-6.507,6.507
			c-2.169-2.628-4.979-4.683-8.43-6.162s-7.148-2.218-11.092-2.218c-7.69,0-14.198,2.662-19.522,7.986
			c-5.259,5.391-7.887,12.127-7.887,20.212c0,8.085,2.628,14.823,7.887,20.212c5.324,5.324,11.832,7.986,19.522,7.986
			c7.032,0,12.882-1.972,17.55-5.916c4.666-3.943,7.36-9.366,8.084-16.268h-25.634v-8.479h34.212
			C270.474,99.999,270.639,101.774,270.639,103.482z"/>
		<path fill="#fff" d="M281.681,135.92V65.326h21.592c10.779,0,19.438,3.254,25.979,9.761c6.54,6.507,9.81,15.02,9.81,25.536
			c0,10.583-3.271,19.112-9.81,25.585c-6.541,6.475-15.2,9.711-25.979,9.711H281.681z M290.752,74.003v53.241h12.521
			c8.216,0,14.69-2.349,19.423-7.049c4.732-4.699,7.099-11.223,7.099-19.571c0-8.282-2.366-14.789-7.099-19.521
			c-4.733-4.732-11.208-7.099-19.423-7.099H290.752z"/>
		<path fill="#fff" d="M417.74,103.482c0,9.859-2.925,17.714-8.774,23.564c-6.573,6.968-15.217,10.451-25.93,10.451
			c-10.254,0-18.93-3.549-26.029-10.648c-7.099-7.099-10.648-15.84-10.648-26.226c0-10.385,3.549-19.127,10.648-26.226
			c7.099-7.099,15.775-10.648,26.029-10.648c5.191,0,10.089,0.921,14.69,2.761c4.6,1.841,8.38,4.437,11.338,7.789l-6.507,6.507
			c-2.169-2.628-4.979-4.683-8.43-6.162s-7.148-2.218-11.092-2.218c-7.69,0-14.198,2.662-19.522,7.986
			c-5.259,5.391-7.887,12.127-7.887,20.212c0,8.085,2.628,14.823,7.887,20.212c5.324,5.324,11.832,7.986,19.522,7.986
			c7.032,0,12.882-1.972,17.55-5.916c4.666-3.943,7.36-9.366,8.084-16.268h-25.634v-8.479h34.212
			C417.576,99.999,417.74,101.774,417.74,103.482z"/>
		<path fill="#fff" d="M450.473,135.92V65.326h21.592c10.779,0,19.439,3.254,25.98,9.761c6.539,6.507,9.809,15.02,9.809,25.536
			c0,10.583-3.27,19.112-9.809,25.585c-6.541,6.475-15.201,9.711-25.98,9.711H450.473z M459.543,74.003v53.241h12.521
			c8.215,0,14.691-2.349,19.424-7.049c4.732-4.699,7.098-11.223,7.098-19.571c0-8.282-2.365-14.789-7.098-19.521
			s-11.209-7.099-19.424-7.099H459.543z"/>
		<path fill="#fff" d="M537.235,137.498c-7.099,0-12.949-2.431-17.55-7.296c-4.602-4.864-6.901-11.009-6.901-18.438
			c0-7.36,2.233-13.49,6.704-18.388c4.47-4.896,10.188-7.345,17.155-7.345c7.164,0,12.867,2.317,17.106,6.951
			c4.239,4.634,6.359,11.126,6.359,19.473l-0.099,0.986h-37.959c0.131,4.732,1.709,8.545,4.732,11.437
			c3.022,2.893,6.639,4.338,10.846,4.338c5.783,0,10.318-2.892,13.606-8.676l8.084,3.944c-2.169,4.076-5.176,7.264-9.021,9.563
			C546.454,136.347,542.099,137.498,537.235,137.498z M522.742,105.947h27.705c-0.264-3.352-1.627-6.128-4.092-8.331
			c-2.465-2.202-5.768-3.303-9.909-3.303c-3.418,0-6.359,1.052-8.824,3.155C525.157,99.573,523.531,102.398,522.742,105.947z"/>
		<path fill="#fff" d="M590.87,135.92h-9.07l-19.521-48.311h9.859l14.197,37.466h0.197l14.395-37.466h9.663L590.87,135.92z"/>
		<path fill="#fff" d="M627.152,105.651v30.269h-9.071V65.326h41.213v8.677h-32.142v23.169h28.986v8.479H627.152z"/>
		<path fill="#fff" d="M686.701,137.498c-7.099,0-12.949-2.431-17.55-7.296c-4.602-4.864-6.901-11.009-6.901-18.438
			c0-7.36,2.233-13.49,6.704-18.388c4.47-4.896,10.188-7.345,17.155-7.345c7.164,0,12.867,2.317,17.106,6.951
			c4.239,4.634,6.359,11.126,6.359,19.473l-0.099,0.986h-37.959c0.131,4.732,1.709,8.545,4.732,11.437
			c3.022,2.893,6.639,4.338,10.846,4.338c5.783,0,10.318-2.892,13.606-8.676l8.084,3.944c-2.169,4.076-5.176,7.264-9.021,9.563
			C695.92,136.347,691.564,137.498,686.701,137.498z M672.208,105.947h27.705c-0.264-3.352-1.627-6.128-4.092-8.331
			c-2.465-2.202-5.768-3.303-9.909-3.303c-3.418,0-6.359,1.052-8.824,3.155C674.623,99.573,672.997,102.398,672.208,105.947z"/>
		<path fill="#fff" d="M755.321,122.511c0,4.207-1.841,7.756-5.521,10.648c-3.682,2.892-8.315,4.338-13.901,4.338
			c-4.865,0-9.137-1.267-12.817-3.796c-3.682-2.53-6.311-5.867-7.888-10.007l8.085-3.451c1.183,2.893,2.908,5.144,5.176,6.753
			c2.268,1.611,4.748,2.416,7.444,2.416c2.892,0,5.307-0.624,7.246-1.873c1.938-1.248,2.909-2.727,2.909-4.437
			c0-3.089-2.366-5.356-7.099-6.803l-8.282-2.071c-9.4-2.366-14.099-6.901-14.099-13.606c0-4.403,1.79-7.937,5.373-10.599
			c3.582-2.662,8.166-3.993,13.754-3.993c4.271,0,8.134,1.02,11.585,3.056c3.45,2.039,5.866,4.767,7.246,8.184l-8.084,3.352
			c-0.922-2.037-2.416-3.631-4.486-4.782c-2.07-1.149-4.388-1.726-6.951-1.726c-2.366,0-4.486,0.592-6.359,1.775
			s-2.81,2.63-2.81,4.338c0,2.76,2.596,4.732,7.789,5.916l7.296,1.873C750.522,110.384,755.321,115.215,755.321,122.511z"/>
		<path fill="#fff" d="M781.843,136.708c-3.943,0-7.214-1.215-9.81-3.648c-2.598-2.431-3.929-5.817-3.993-10.155V95.891h-8.479v-8.282h8.479
			v-14.79h9.07v14.79h11.831v8.282H777.11v24.057c0,3.221,0.624,5.407,1.873,6.557c1.248,1.15,2.662,1.725,4.24,1.725
			c0.722,0,1.43-0.082,2.119-0.247c0.69-0.163,1.331-0.377,1.923-0.641l2.859,8.084C787.759,136.28,784.998,136.708,781.843,136.708
			z"/>
		<path fill="#fff" d="M243.23,183.64h11.733v0.395l-26.227,30.269l28.001,39.536v0.395h-11.141l-22.973-32.931l-10.845,12.521v20.409h-9.071
			V183.64h9.071v36.382h0.395L243.23,183.64z"/>
		<path fill="#fff" d="M257.724,230.078c0-7.428,2.332-13.572,7-18.438c4.732-4.863,10.681-7.296,17.846-7.296
			c7.164,0,13.079,2.433,17.747,7.296c4.732,4.865,7.099,11.01,7.099,18.438c0,7.493-2.366,13.64-7.099,18.437
			c-4.668,4.865-10.583,7.296-17.747,7.296c-7.165,0-13.113-2.431-17.846-7.296C260.056,243.651,257.724,237.506,257.724,230.078z
			 M266.795,230.078c0,5.192,1.511,9.4,4.535,12.62c3.022,3.221,6.769,4.831,11.24,4.831c4.469,0,8.216-1.61,11.24-4.831
			c3.022-3.22,4.535-7.428,4.535-12.62c0-5.127-1.513-9.301-4.535-12.521c-3.09-3.286-6.837-4.93-11.24-4.93
			c-4.404,0-8.151,1.644-11.24,4.93C268.306,220.777,266.795,224.951,266.795,230.078z"/>
		<path fill="#fff" d="M352.178,240.824c0,4.208-1.841,7.757-5.521,10.648c-3.682,2.892-8.315,4.338-13.901,4.338
			c-4.865,0-9.137-1.266-12.817-3.796c-3.682-2.529-6.31-5.866-7.888-10.007l8.085-3.451c1.183,2.894,2.908,5.145,5.176,6.754
			c2.268,1.611,4.748,2.416,7.444,2.416c2.892,0,5.307-0.624,7.247-1.874c1.938-1.247,2.908-2.727,2.908-4.437
			c0-3.089-2.366-5.356-7.099-6.803l-8.282-2.07c-9.4-2.366-14.099-6.902-14.099-13.606c0-4.402,1.79-7.937,5.374-10.599
			c3.582-2.662,8.166-3.993,13.754-3.993c4.272,0,8.134,1.02,11.584,3.057c3.451,2.038,5.867,4.767,7.247,8.183l-8.085,3.353
			c-0.921-2.036-2.416-3.631-4.486-4.781c-2.071-1.149-4.388-1.726-6.951-1.726c-2.366,0-4.486,0.591-6.359,1.774
			c-1.873,1.184-2.81,2.63-2.81,4.338c0,2.761,2.596,4.732,7.789,5.916l7.296,1.873
			C347.379,228.697,352.178,233.528,352.178,240.824z"/>
		<path fill="#fff" d="M371.305,189.26c0,1.774-0.625,3.287-1.873,4.535c-1.25,1.25-2.761,1.873-4.536,1.873c-1.774,0-3.287-0.623-4.535-1.873
			c-1.25-1.248-1.874-2.761-1.874-4.535s0.624-3.286,1.874-4.535c1.248-1.248,2.761-1.873,4.535-1.873
			c1.775,0,3.286,0.625,4.536,1.873C370.679,185.974,371.305,187.485,371.305,189.26z M369.432,205.922v48.312h-9.071v-48.312
			H369.432z"/>
		<path fill="#fff" d="M402.854,255.811c-7.165,0-13.113-2.431-17.846-7.296c-4.668-4.994-7-11.141-7-18.437c0-7.428,2.332-13.572,7-18.438
			c4.732-4.863,10.681-7.296,17.846-7.296c4.93,0,9.234,1.232,12.916,3.697c3.681,2.465,6.44,5.866,8.282,10.204l-8.282,3.451
			c-2.563-6.047-7.066-9.07-13.508-9.07c-4.141,0-7.724,1.676-10.747,5.028c-2.958,3.352-4.437,7.493-4.437,12.423
			s1.479,9.07,4.437,12.423c3.022,3.352,6.606,5.028,10.747,5.028c6.638,0,11.305-3.022,14.001-9.071l8.084,3.451
			c-1.774,4.338-4.552,7.739-8.331,10.204C412.236,254.578,407.849,255.811,402.854,255.811z"/>
		<path fill="#fff" d="M453.434,255.811c-7.1,0-12.95-2.431-17.551-7.296c-4.602-4.863-6.9-11.009-6.9-18.437c0-7.361,2.233-13.491,6.703-18.388
			s10.188-7.346,17.156-7.346c7.164,0,12.867,2.317,17.105,6.951c4.24,4.634,6.359,11.125,6.359,19.472l-0.098,0.986H438.25
			c0.131,4.732,1.708,8.545,4.732,11.437c3.022,2.894,6.639,4.339,10.846,4.339c5.783,0,10.318-2.892,13.605-8.677l8.084,3.944
			c-2.168,4.076-5.176,7.264-9.021,9.563C462.652,254.66,458.297,255.811,453.434,255.811z M438.939,224.261h27.705
			c-0.264-3.353-1.627-6.128-4.092-8.331c-2.465-2.201-5.768-3.303-9.908-3.303c-3.418,0-6.359,1.052-8.824,3.154
			C441.355,217.886,439.729,220.711,438.939,224.261z"/>
		<path fill="#fff" d="M547.688,245.557v8.677H504.7v-9.07l17.451-17.648c5.85-5.98,9.893-10.467,12.128-13.458
			c2.233-2.99,3.352-6.129,3.352-9.416c0-2.958-1.15-5.487-3.45-7.592c-2.302-2.103-5.26-3.155-8.874-3.155
			c-3.09,0-5.752,0.921-7.986,2.761c-2.235,1.841-3.682,4.076-4.338,6.704l-8.282-3.352c1.314-4.142,3.846-7.642,7.592-10.501
			c3.747-2.858,8.149-4.288,13.212-4.288c6.113,0,11.206,1.873,15.282,5.619c4.074,3.747,6.113,8.349,6.113,13.804
			c0,6.507-3.584,13.541-10.747,21.099l-19.719,19.817H547.688z"/>
		<path fill="#fff" d="M556.362,220.514c0-10.253,2.53-18.698,7.592-25.338c5.061-6.639,11.568-9.958,19.521-9.958s14.46,3.352,19.522,10.057
			c5.061,6.64,7.592,15.052,7.592,25.239c0,10.123-2.531,18.57-7.592,25.339c-5.063,6.64-11.569,9.958-19.522,9.958
			s-14.461-3.318-19.521-9.958C558.893,239.084,556.362,230.637,556.362,220.514z M601.321,220.514
			c0-7.755-1.644-14.131-4.93-19.127c-3.221-4.994-7.526-7.493-12.916-7.493s-9.695,2.499-12.915,7.493
			c-3.288,4.996-4.93,11.372-4.93,19.127c0,7.757,1.642,14.166,4.93,19.227c3.22,4.93,7.525,7.395,12.915,7.395
			s9.695-2.497,12.916-7.493C599.678,234.581,601.321,228.204,601.321,220.514z"/>
		<path fill="#fff" d="M643.519,186.795v67.438h-9.07v-56.199l-13.113,5.719l-3.451-7.69l19.817-9.268H643.519z"/>
		<path fill="#fff" d="M699.421,196.063l-32.733,59.748l-8.085-4.141l31.255-56.198h-34.114l0.197-8.677h43.48V196.063z"/>
	</g>
	<g>
		<path fill="#fff" d="M330.007,198.363l-9.464-14.098h6.704l5.817,9.365h0.197l5.816-9.365h6.507l-9.267,14.098H330.007z"/>
	</g>
	<path fill="#fff" d="M123.589,184.18l9.406-16.193c1.696-2.774,2.776-6.168,2.776-9.715c0-3.546-0.926-6.786-2.776-9.715
		L81.024,58.8H51.105L123.589,184.18z M68.224,163.206l-53.668,92.993H44.32l38.863-67.084L68.224,163.206z M105.854,214.715
		l13.727-23.596L43.24,58.8H15.944L105.854,214.715z M87.192,196.055L52.339,256.2h29.61l20.048-34.546L87.192,196.055z"/>
</g>
<g id="Vrstva_2">
</g>
</svg>
